<?xml version="1.0" standalone="no"?>
<!DOCTYPE svg PUBLIC "-//W3C//DTD SVG 20010904//EN"
 "http://www.w3.org/TR/2001/REC-SVG-20010904/DTD/svg10.dtd">
<svg version="1.0" xmlns="http://www.w3.org/2000/svg"
 width="1792.000000pt" height="576.000000pt" viewBox="0 0 1792.000000 576.000000"
 preserveAspectRatio="xMidYMid meet">

<g transform="translate(0.000000,576.000000) scale(0.100000,-0.100000)"
fill="#000000" stroke="none">
<path d="M0 2880 l0 -2880 8960 0 8960 0 0 2880 0 2880 -1211 0 c-744 0 -1208
-4 -1204 -9 3 -5 1 -12 -5 -16 -5 -3 -10 1 -10 9 0 15 -737 16 -7745 16
l-7745 0 0 -2880z m13235 2392 l30 -87 48 -3 c36 -2 47 -7 44 -16 -6 -16 39
-28 72 -19 23 6 28 19 9 25 -7 3 31 4 84 4 92 -1 95 -1 88 -21 -21 -55 -27
-212 -10 -229 6 -6 10 -29 10 -52 l0 -42 88 -30 c91 -31 92 -34 2 -52 -30 -6
-61 -14 -67 -18 -9 -6 -13 -48 -14 -147 0 -76 -4 -134 -8 -127 -4 7 -12 0 -20
-19 -12 -27 -12 -54 3 -151 4 -26 1 -28 -27 -27 -18 1 -24 3 -14 6 23 6 12 23
-15 23 -23 0 -81 -17 -110 -31 -20 -10 -128 -12 -152 -3 -9 3 -13 10 -10 15 3
5 -2 9 -10 9 -9 0 -28 -28 -47 -67 l-31 -68 -31 66 -31 66 -195 6 c-172 5
-198 4 -208 -11 -7 -8 -15 -14 -17 -11 -5 6 -26 321 -26 401 0 73 1 72 -74 83
-25 4 -48 11 -51 14 -2 4 20 18 50 30 29 12 58 28 64 34 5 7 11 47 12 90 3 61
6 77 19 78 10 0 11 2 3 6 -14 5 -16 46 -7 117 5 36 11 46 25 46 11 0 18 -6 17
-12 -4 -17 49 -22 132 -13 51 6 60 9 43 16 -46 17 -23 29 55 29 52 -1 83 -5
96 -15 18 -13 22 -13 38 5 10 10 18 23 18 27 0 16 84 173 89 167 3 -3 20 -45
36 -92z m175 -102 c0 -5 -2 -10 -4 -10 -3 0 -8 5 -11 10 -3 6 -1 10 4 10 6 0
11 -4 11 -10z m197 -172 c-3 -8 -6 -5 -6 6 -1 11 2 17 5 13 3 -3 4 -12 1 -19z
m3043 -238 c0 -7 -399 -9 -1205 -8 -795 2 -1205 6 -1205 13 0 7 407 9 1205 7
803 -1 1205 -6 1205 -12z m-342 -270 l793 0 -3 -82 -3 -83 -1625 0 -1625 0 -3
74 c-2 41 -1 79 1 86 4 8 220 10 838 8 459 -2 1191 -3 1627 -3z m-8664 -199
c4 -5 -11 -23 -33 -40 -34 -27 -47 -31 -100 -31 -34 0 -61 3 -61 7 0 4 14 22
32 40 29 30 37 33 94 33 35 0 65 -4 68 -9z m-2244 -109 c16 -7 17 -31 12 -294
l-2 -118 -50 0 -50 0 0 203 c0 112 3 207 7 210 8 9 63 8 83 -1z m164 -2 c14
-5 73 -59 132 -120 59 -60 110 -110 115 -110 5 0 6 42 2 94 -3 51 -3 105 1
120 6 25 10 27 54 24 l47 -3 8 -188 c8 -172 7 -190 -9 -208 -36 -40 -62 -26
-183 96 -63 64 -116 113 -118 111 -3 -3 -6 -53 -6 -113 l-2 -108 -52 -3 -53
-3 0 200 c0 180 2 201 18 210 21 13 16 13 46 1z m1990 4 c14 -5 16 -33 16
-211 l0 -204 -52 3 -53 3 -3 195 c-1 107 0 200 2 207 6 13 62 18 90 7z m2538
-3 c50 -5 74 -13 93 -31 25 -23 25 -24 25 -202 l0 -178 -55 0 -55 0 0 80 0 81
-102 -3 -101 -3 -1 -75 -1 -75 -55 0 -55 0 -3 172 c-2 168 -2 172 22 199 18
22 36 30 77 35 76 9 134 9 211 0z m512 3 c14 -5 16 -29 16 -165 l0 -159 129 0
c71 0 136 -3 145 -6 11 -4 16 -19 16 -45 l0 -39 -190 0 c-177 0 -190 1 -200
19 -11 22 -14 383 -3 394 8 9 66 9 87 1z m-4194 -43 c0 -26 -5 -41 -16 -45 -9
-3 -76 -6 -150 -6 l-134 0 0 -34 0 -34 130 -4 c116 -3 132 -5 150 -24 29 -28
42 -94 31 -145 -16 -73 -19 -74 -226 -77 l-185 -3 0 45 0 46 155 0 155 0 0 35
0 35 -120 0 c-173 0 -200 17 -200 129 0 49 4 65 26 90 l26 31 179 0 179 0 0
-39z m490 -1 l0 -40 -104 0 c-57 0 -124 -3 -150 -6 l-46 -7 0 -113 0 -114 129
0 c71 0 136 -3 145 -6 11 -4 16 -19 16 -45 l0 -39 -164 0 c-162 0 -165 0 -195
26 l-31 26 0 158 0 159 26 20 c25 19 40 21 200 21 l174 0 0 -40z m449 25 c36
-18 41 -32 41 -110 0 -78 -15 -114 -49 -121 -14 -3 -29 -6 -32 -7 -4 -1 4 -19
17 -39 18 -27 31 -38 49 -38 22 0 25 -4 25 -40 l0 -40 -54 0 -55 0 -52 80 -52
80 -53 0 -53 0 -3 -77 -3 -78 -52 -3 -53 -3 0 205 0 206 175 0 c135 0 183 -3
204 -15z m696 -8 c38 -32 46 -107 17 -147 -21 -27 -21 -28 -2 -45 26 -24 35
-78 21 -125 -19 -63 -49 -71 -253 -68 l-173 3 -1 195 c0 107 2 198 4 203 2 4
84 7 182 7 172 0 180 -1 205 -23z m505 -17 l0 -39 -142 -3 -143 -3 -3 -37 -3
-38 125 0 126 0 0 -40 0 -39 -122 -3 -123 -3 -3 -37 -3 -37 143 -3 143 -3 3
-42 3 -43 -168 0 c-162 0 -169 1 -198 24 l-30 24 -3 149 c-3 150 -3 150 23
181 l27 32 174 0 174 0 0 -40z m480 0 l0 -40 -75 0 -75 0 -2 -127 c-4 -224 4
-198 -56 -201 l-52 -3 -2 123 c-1 68 -2 141 -2 163 l-1 40 -82 3 -83 3 0 39 0
40 215 0 215 0 0 -40z m460 0 l0 -40 -99 0 c-54 0 -119 -3 -145 -6 -44 -6 -46
-8 -46 -40 l0 -34 125 0 125 0 0 -40 0 -39 -122 -3 -123 -3 -3 -37 -3 -37 143
-3 143 -3 0 -40 0 -40 -168 -3 -168 -2 -30 29 -29 29 0 152 c0 147 1 152 25
175 24 25 27 25 200 25 l175 0 0 -40z m1881 11 l29 -29 0 -176 0 -176 -55 0
-55 0 0 80 0 80 -100 0 -100 0 -2 -62 c0 -35 -1 -70 -2 -78 -1 -11 -15 -16
-53 -18 l-53 -3 0 185 0 185 26 20 c24 19 40 21 181 21 l155 0 29 -29z m-7016
-231 c11 0 44 3 73 6 43 5 59 2 89 -16 20 -12 45 -19 56 -16 30 7 94 -22 123
-57 15 -17 44 -39 65 -49 42 -18 79 -69 79 -107 0 -13 15 -41 34 -62 37 -40
56 -113 39 -144 -6 -9 -8 -49 -5 -89 6 -90 -10 -125 -73 -162 -32 -18 -45 -32
-45 -48 0 -12 -14 -43 -30 -70 -35 -54 -91 -85 -157 -86 l-42 0 9 -32 c12 -40
-2 -58 -45 -58 -29 0 -36 5 -60 52 -15 29 -55 83 -89 120 l-61 68 -66 0 c-55
0 -73 5 -105 26 -43 30 -58 46 -76 87 -11 23 -19 27 -56 27 -59 0 -100 20
-144 68 -38 42 -58 93 -58 148 0 26 -5 33 -27 39 -15 3 -31 12 -35 18 -8 14
-107 -7 -160 -34 -45 -23 -88 -17 -88 13 0 10 -19 40 -42 66 -55 61 -72 90
-60 105 5 7 13 26 17 44 7 35 10 37 105 53 78 14 142 6 195 -25 27 -15 50 -21
68 -18 20 4 28 1 34 -13 3 -11 15 -31 25 -46 17 -25 18 -30 3 -57 -24 -47 -18
-57 15 -26 17 16 30 39 30 51 0 12 15 43 33 70 37 55 102 93 158 94 22 0 42 7
50 17 28 33 91 54 149 48 30 -3 64 -5 75 -5z m-1017 -135 c7 -6 -19 -45 -29
-45 -11 0 -29 41 -22 53 4 7 41 1 51 -8z m-1548 -215 c0 -5 -2 -10 -4 -10 -3
0 -8 5 -11 10 -3 6 -1 10 4 10 6 0 11 -4 11 -10z m4163 -26 l37 -7 0 -258 0
-259 -64 0 c-76 0 -76 0 -76 115 l0 84 -32 6 c-18 3 -80 5 -138 3 l-105 -3 -3
-102 -3 -103 -68 0 c-46 0 -70 4 -73 13 -3 9 -2 472 1 500 1 4 33 7 71 7 l70
0 0 -100 0 -100 143 0 142 0 -3 80 c-2 44 -1 91 2 105 7 27 26 31 99 19z
m1540 0 l37 -7 0 -98 c0 -55 3 -99 6 -99 7 0 71 45 178 124 49 37 99 69 110
72 12 3 51 4 86 2 l65 -3 0 -50 0 -50 -56 -5 c-51 -5 -65 -12 -148 -74 -50
-39 -91 -73 -91 -76 0 -4 41 -39 90 -78 90 -71 92 -72 150 -72 l60 0 0 -55 0
-55 -80 0 c-93 0 -96 1 -260 129 l-105 82 -5 -103 -5 -103 -67 -3 -68 -3 0
259 c0 142 3 262 7 265 8 9 46 9 96 1z m2440 -4 l27 0 0 -260 0 -260 -70 0
-70 0 0 94 c0 52 -4 98 -10 101 -16 10 -180 16 -232 9 l-48 -6 0 -99 0 -100
-67 3 -68 3 -3 258 -2 259 67 -4 68 -3 3 -95 c2 -60 7 -97 15 -102 14 -9 202
-11 246 -2 l31 7 0 97 c0 53 3 100 8 104 4 4 23 5 42 2 19 -3 47 -6 63 -6z
m1357 -239 c0 -228 -1 -238 -21 -260 -18 -19 -28 -22 -58 -16 -30 5 -61 31
-178 149 l-143 144 0 -149 0 -149 -69 0 -68 0 -6 73 c-3 39 -4 150 -2 246 2
155 5 176 21 188 44 32 84 7 242 -149 70 -71 131 -128 135 -128 4 0 7 65 7
143 0 79 2 146 4 148 2 2 34 2 70 1 l66 -4 0 -237z m-4693 222 c11 -7 31 -29
43 -48 22 -35 22 -41 15 -246 l-7 -209 -64 0 c-70 0 -75 5 -72 80 0 19 0 54
-1 78 l-1 42 -130 0 -129 0 -3 -97 -3 -98 -67 -3 -68 -3 0 223 c0 247 2 256
64 284 40 18 389 15 423 -3z m661 11 c19 -6 22 -13 22 -55 l0 -49 -185 0 -185
0 0 -127 c0 -71 -3 -138 -6 -150 l-6 -23 188 -2 189 -3 -1 -50 -1 -50 -194 -3
c-212 -3 -256 3 -288 45 -20 24 -21 39 -21 212 0 265 -5 260 280 260 102 1
195 -2 208 -5z m1330 -12 c13 -7 32 -28 42 -45 18 -29 20 -52 20 -244 l0 -213
-70 0 -69 0 -3 98 -3 97 -135 0 -135 0 -3 -97 -3 -98 -63 0 -64 0 -6 68 c-3
37 -4 138 -3 224 4 169 6 175 62 210 27 17 48 19 220 16 133 -2 197 -7 213
-16z m690 12 c19 -6 22 -13 22 -55 l0 -48 -107 -3 -108 -3 -3 -203 -2 -203
-68 3 -67 3 -3 203 -2 202 -100 0 -100 0 0 55 0 55 258 0 c141 0 267 -3 280
-6z m1298 -11 c12 -7 29 -25 40 -40 16 -25 18 -48 16 -212 -3 -255 2 -251
-277 -251 -166 0 -190 2 -225 20 -22 11 -44 29 -50 39 -6 12 -10 94 -10 198 1
197 5 214 61 245 30 16 54 18 229 15 126 -2 202 -7 216 -14z m-9906 -17 c0 -3
-4 -8 -10 -11 -5 -3 -10 -1 -10 4 0 6 5 11 10 11 6 0 10 -2 10 -4z m2745 -36
c-8 -13 -45 -7 -45 6 0 7 6 14 13 17 15 5 39 -12 32 -23z m-1245 -54 c0 -8 -4
-17 -9 -21 -12 -7 -24 12 -16 25 9 15 25 12 25 -4z m-730 -436 c0 -5 -4 -10
-10 -10 -5 0 -10 5 -10 10 0 6 5 10 10 10 6 0 10 -4 10 -10z m-1270 -45 c0 -8
-4 -15 -10 -15 -5 0 -10 7 -10 15 0 8 5 15 10 15 6 0 10 -7 10 -15z m3320 -80
c0 -8 -7 -15 -15 -15 -8 0 -15 7 -15 15 0 8 7 15 15 15 8 0 15 -7 15 -15z
m8738 -94 c5 -30 -23 -60 -49 -54 -25 7 -24 24 2 57 24 31 43 30 47 -3z m297
-94 c24 -18 11 -37 -26 -37 -39 0 -34 -20 9 -34 51 -18 118 -86 83 -86 -4 0
-20 -10 -35 -21 -27 -21 -27 -22 -9 -43 32 -38 44 -64 30 -69 -11 -3 -84 8
-119 19 -12 4 -15 0 -11 -16 4 -14 1 -20 -10 -20 -21 0 -32 19 -19 32 8 8 -9
25 -58 59 -72 51 -91 82 -93 155 -1 50 13 59 96 56 39 -1 79 2 87 8 21 14 53
12 75 -3z m-634 -24 c61 -32 113 -93 129 -153 11 -39 12 -40 58 -41 26 0 56
-4 66 -8 13 -5 33 0 57 13 30 17 39 18 52 7 17 -14 14 -50 -5 -62 -10 -7 -10
-15 1 -41 34 -87 37 -169 6 -228 -35 -67 -119 -119 -193 -120 -39 0 -43 2 -40
22 2 19 11 24 50 29 26 4 60 15 77 25 35 21 81 100 81 140 -1 74 -69 158 -138
169 -104 17 -104 17 -118 66 -19 64 -84 136 -137 150 -87 23 -173 -8 -221 -81
-23 -36 -28 -39 -52 -30 -68 26 -128 -5 -141 -73 -8 -38 -13 -43 -48 -55 -54
-17 -102 -73 -111 -128 -5 -35 -1 -53 17 -91 33 -66 66 -86 144 -91 62 -4 65
-6 65 -30 0 -24 -1 -25 -70 -20 -83 6 -135 35 -177 99 -23 35 -27 52 -27 108
0 95 39 156 120 189 20 9 37 28 52 62 28 60 81 93 143 89 34 -3 44 2 80 38 75
76 184 94 280 46z m1015 -38 c-4 -14 -10 -25 -15 -25 -5 0 -4 13 2 30 13 35
22 32 13 -5z m-10675 -48 c-1 -12 -15 -9 -19 4 -3 6 1 10 8 8 6 -3 11 -8 11
-12z m10636 -19 c-3 -7 -5 -2 -5 12 0 14 2 19 5 13 2 -7 2 -19 0 -25z m-11127
-18 c0 -5 -2 -10 -4 -10 -3 0 -8 5 -11 10 -3 6 -1 10 4 10 6 0 11 -4 11 -10z
m5228 0 c90 0 92 0 92 -24 0 -29 -28 -36 -152 -36 -87 0 -89 -1 -86 -22 3 -22
9 -23 100 -28 119 -6 138 -18 138 -85 0 -77 -16 -85 -171 -85 l-130 0 3 28 3
27 118 3 c115 3 117 3 117 26 0 22 -4 23 -101 29 -122 6 -139 17 -139 87 0 62
37 95 95 84 11 -2 62 -4 113 -4z m1122 -27 l0 -33 -115 0 -115 0 0 -25 0 -25
115 0 115 0 0 -30 0 -29 -112 -3 c-111 -3 -113 -3 -113 -27 0 -23 0 -23 113
-22 l112 2 0 -30 0 -31 -129 0 c-168 0 -163 -5 -159 148 4 143 -1 139 167 138
l121 -1 0 -32z m474 16 c22 -18 26 -28 26 -74 0 -78 -10 -85 -131 -85 l-99 0
0 -55 c0 -54 -1 -55 -29 -55 l-29 0 -4 138 c-3 75 -3 140 -1 145 2 4 57 7 122
7 105 0 121 -2 145 -21z m551 -69 l90 -91 5 88 c5 86 6 88 30 88 23 0 25 -5
31 -55 3 -30 3 -93 0 -140 -8 -117 -19 -117 -132 -4 l-89 89 0 -88 0 -88 -32
3 -33 3 -2 130 c-1 109 1 132 15 143 9 6 18 12 22 12 3 0 46 -41 95 -90z m483
76 c19 -11 14 -44 -8 -51 -11 -3 -25 -3 -31 0 -5 4 -46 4 -90 0 l-79 -7 0 -79
0 -78 108 -3 107 -3 3 -27 3 -28 -125 0 c-166 0 -166 0 -166 143 0 56 4 107 8
114 4 7 19 16 32 22 28 11 219 9 238 -3z m264 4 l79 0 -3 -27 -3 -28 -112 -3
c-113 -3 -113 -3 -113 -27 l0 -25 116 0 115 0 -3 -27 -3 -28 -112 -3 c-112 -3
-113 -3 -113 -27 0 -24 1 -24 113 -27 l112 -3 3 -27 3 -28 -128 0 c-169 0
-167 -1 -171 125 -2 53 -1 107 2 121 8 32 40 45 95 39 24 -3 79 -5 123 -5z
m-2454 -27 l-3 -28 -112 -3 c-113 -3 -113 -3 -113 -27 l0 -25 115 0 115 0 0
-30 0 -30 -115 0 -115 0 0 -25 c0 -24 0 -24 113 -27 l112 -3 3 -27 3 -28 -135
0 c-168 0 -166 -2 -166 144 0 138 -3 136 167 136 l134 0 -3 -27z m326 11 c13
-12 16 -38 16 -117 0 -149 2 -147 -161 -147 l-129 0 0 140 0 140 129 0 c104 0
133 -3 145 -16z m1178 -1 c16 -14 18 -33 18 -140 l0 -123 -35 0 c-23 0 -35 5
-34 13 1 6 1 31 0 55 l-1 42 -74 0 -75 0 -3 -52 c-3 -52 -4 -53 -35 -56 l-33
-3 0 122 c0 162 -2 159 143 159 89 0 114 -3 129 -17z m4448 -33 c0 -5 -4 -10
-10 -10 -5 0 -10 5 -10 10 0 6 5 10 10 10 6 0 10 -4 10 -10z m-1398 -47 c14
-13 18 -31 18 -89 0 -72 -13 -104 -43 -104 -7 0 -87 -3 -179 -6 -220 -7 -228
-3 -228 109 0 107 0 107 227 107 159 0 189 -2 205 -17z m778 -33 c0 -5 -7 -10
-16 -10 -8 0 -12 5 -9 10 3 6 10 10 16 10 5 0 9 -4 9 -10z m-207 -151 c14 -23
0 -67 -24 -74 -22 -7 -59 18 -59 42 0 20 39 55 57 51 9 -2 20 -10 26 -19z
m-575 -55 c19 -13 22 -24 22 -85 0 -115 11 -109 -217 -109 -238 0 -233 -2
-233 106 0 104 -1 104 225 104 147 0 185 -3 203 -16z m919 -90 c8 -20 -8 -36
-26 -25 -15 10 -8 41 9 41 6 0 13 -7 17 -16z m-6388 -33 c19 -12 30 -80 31
-183 0 -87 0 -88 -25 -88 -14 0 -28 -1 -32 -2 -5 -2 -10 49 -13 112 -4 102 -7
115 -22 114 -10 -1 -18 4 -18 11 0 7 -3 20 -6 29 -5 13 1 16 32 16 22 0 45 -4
53 -9z m311 -11 c24 -24 27 -95 5 -126 -12 -17 -28 -22 -95 -27 -45 -3 -83 -7
-85 -9 -2 -1 -5 -12 -7 -23 -3 -19 3 -20 100 -23 l103 -3 -3 -27 -3 -27 -132
-3 -132 -3 -7 26 c-9 38 2 105 20 124 11 10 43 18 96 22 83 6 107 16 97 43 -5
13 -24 16 -96 16 -49 0 -96 3 -105 6 -16 6 -22 35 -9 47 3 4 57 7 120 7 100 0
115 -2 133 -20z m480 0 c17 -17 20 -33 20 -120 0 -94 -2 -103 -25 -125 -23
-24 -30 -25 -145 -25 l-120 0 0 145 0 145 125 0 c112 0 127 -2 145 -20z m360
-10 l0 -30 -115 0 -115 0 0 -25 c0 -24 0 -24 113 -27 l112 -3 0 -30 0 -30
-110 0 -110 0 -3 -27 -3 -28 115 0 c116 0 116 0 116 -24 0 -31 -19 -36 -152
-36 -103 0 -107 1 -127 26 -18 23 -21 39 -19 127 2 138 0 137 168 137 l130 0
0 -30z m324 -62 l86 -93 0 93 0 92 30 0 30 0 0 -140 0 -140 -25 0 c-17 0 -46
22 -101 80 -43 44 -81 80 -86 80 -4 0 -8 -36 -8 -80 l0 -80 -29 0 c-27 0 -29
3 -35 55 -6 50 0 182 10 213 9 31 47 7 128 -80z m464 76 c20 -14 22 -23 22
-123 0 -148 2 -146 -143 -146 -82 0 -119 4 -130 14 -14 11 -17 34 -17 127 0
143 1 144 145 144 75 0 106 -4 123 -16z m166 -89 l49 -99 49 97 c50 100 60
111 98 105 20 -3 17 -12 -47 -141 -51 -104 -73 -139 -90 -143 -12 -3 -26 -3
-32 0 -9 6 -141 271 -141 283 0 2 15 3 33 1 30 -3 35 -9 81 -103z m314 -37 l3
-138 -36 0 -35 0 0 141 0 140 33 -3 32 -3 3 -137z m342 112 l0 -30 -115 0
-115 0 0 -25 c0 -24 0 -24 113 -27 l112 -3 3 -27 3 -28 -115 0 -116 0 0 -30 0
-30 115 0 c115 0 115 0 115 -24 0 -32 -14 -36 -136 -36 -100 0 -139 9 -156 34
-4 6 -8 59 -8 118 0 142 -5 138 166 138 l134 0 0 -30z m316 16 c17 -13 19 -29
22 -140 l4 -126 -36 0 -36 0 0 110 0 110 -25 0 -25 0 0 -110 0 -110 -30 0 -30
0 0 111 0 110 -27 -3 -27 -3 3 -107 3 -108 -36 0 -36 0 0 124 c0 118 1 126 22
140 31 22 225 23 254 2z m334 -6 c14 -14 20 -33 20 -67 0 -27 -4 -53 -8 -60
-11 -17 -59 -34 -77 -27 -24 10 -17 -13 11 -35 15 -12 40 -21 56 -21 26 0 29
-3 26 -27 -3 -25 -8 -28 -41 -31 -36 -3 -44 2 -103 58 -35 34 -70 60 -77 58
-7 -3 -13 -26 -15 -56 -3 -50 -4 -52 -33 -52 l-29 0 0 140 0 140 125 0 c112 0
127 -2 145 -20z m354 12 c3 -5 2 -18 -1 -30 -5 -21 -11 -22 -114 -22 l-109 0
0 -25 0 -25 110 0 110 0 0 -30 0 -30 -110 0 -110 0 0 -30 0 -30 111 0 110 0
-3 -27 -3 -28 -116 -3 c-105 -2 -118 -1 -142 18 -26 21 -27 24 -27 130 0 141
-1 140 167 140 67 0 124 -4 127 -8z m1517 -114 c1 -7 1 -20 0 -29 -1 -8 10
-21 24 -27 14 -6 25 -18 25 -26 0 -12 20 -16 102 -18 89 -3 103 -5 106 -20 3
-16 -6 -18 -90 -18 -92 0 -95 -1 -123 -30 -20 -21 -38 -30 -61 -30 -24 0 -39
8 -57 30 -25 30 -27 30 -122 30 -86 0 -96 2 -93 18 3 14 17 17 95 20 85 3 94
5 122 31 19 18 31 39 31 55 0 19 5 26 20 26 11 0 21 -6 21 -12z m1109 -168 c0
-5 -5 -10 -11 -10 -5 0 -7 5 -4 10 3 6 8 10 11 10 2 0 4 -4 4 -10z m3480 -170
c0 -5 -4 -10 -10 -10 -5 0 -10 5 -10 10 0 6 5 10 10 10 6 0 10 -4 10 -10z
m1015 -839 c16 -74 120 -178 198 -197 35 -8 35 -21 -2 -29 -73 -16 -179 -122
-197 -197 -8 -36 -21 -36 -29 1 -16 74 -120 178 -197 197 -36 8 -36 21 1 29
74 16 178 120 197 198 8 35 21 35 29 -2z m-14550 -151 c-18 -19 -17 -20 6 -20
14 0 30 -5 37 -12 16 -16 16 -130 0 -146 -7 -7 -37 -12 -68 -12 -77 0 -92 17
-88 96 3 57 4 59 35 68 17 6 34 18 36 28 4 12 14 18 33 18 26 0 27 0 9 -20z
m-1677 -2 c15 -15 15 -51 0 -66 -18 -18 -56 -15 -66 6 -23 44 32 94 66 60z
m-302 -37 c-4 -6 -22 -11 -41 -11 -18 0 -40 -3 -49 -6 -29 -11 -16 -24 25 -24
59 0 79 -14 79 -55 0 -41 -20 -55 -80 -55 -68 0 -80 12 -80 79 0 71 16 88 85
93 53 3 72 -3 61 -21z m-183 2 c3 -10 5 -44 6 -75 1 -70 -13 -80 -97 -76 -43
2 -57 7 -57 18 0 11 14 16 58 18 40 2 57 7 57 17 0 9 -14 15 -37 17 -53 4 -52
32 0 36 56 5 41 27 -19 28 -37 1 -50 5 -52 17 -3 15 7 17 67 17 58 0 70 -3 74
-17z m375 5 c7 -7 12 -39 12 -75 0 -72 -11 -83 -80 -83 -71 0 -80 11 -80 90 0
45 4 70 13 73 25 11 123 7 135 -5z m442 -67 c0 -58 -4 -80 -14 -84 -23 -9 -26
2 -26 85 0 71 2 78 20 78 18 0 20 -7 20 -79z m107 27 l53 -52 0 52 c0 37 4 52
14 52 18 0 30 -151 13 -162 -7 -4 -32 13 -64 45 l-53 51 0 -46 c0 -42 -10 -58
-36 -58 -2 0 -4 38 -4 85 0 60 4 85 12 85 7 0 36 -23 65 -52z m192 0 l51 -53
0 53 c0 45 3 52 20 52 18 0 20 -7 20 -80 0 -98 -11 -103 -82 -33 l-48 47 0
-47 c0 -40 -3 -47 -20 -47 -18 0 -20 7 -20 80 0 98 8 101 79 28z m269 40 c7
-7 12 -39 12 -75 0 -72 -11 -83 -82 -83 -68 0 -88 20 -88 89 0 31 5 62 12 69
7 7 39 12 73 12 34 0 66 -5 73 -12z m96 -45 l28 -57 25 57 c18 40 32 57 44 57
11 0 19 -2 19 -4 0 -2 -16 -38 -35 -80 -45 -98 -58 -99 -108 -3 -43 82 -44 87
-19 87 12 0 27 -19 46 -57z m284 45 c7 -7 12 -42 12 -86 0 -65 -2 -73 -17 -70
-11 2 -19 14 -21 30 -3 22 -9 27 -42 30 -37 3 -39 2 -42 -27 -2 -19 -9 -31
-20 -33 -16 -3 -18 6 -18 72 0 61 3 77 18 85 24 14 115 14 130 -1z m192 -8 c0
-16 -8 -19 -57 -22 l-58 -3 -3 -42 -3 -42 63 -3 c48 -2 63 -7 63 -18 0 -20
-127 -27 -143 -8 -17 21 -18 138 -1 149 8 5 42 9 77 9 55 0 62 -2 62 -20z m68
-62 c-3 -70 -6 -83 -20 -86 -16 -3 -18 6 -18 82 0 80 1 86 20 86 20 0 21 -5
18 -82z m296 31 l46 -51 0 51 c0 44 3 51 20 51 18 0 20 -7 20 -79 0 -47 -4
-83 -11 -87 -6 -3 -35 18 -65 47 l-54 53 0 -47 c0 -40 -3 -47 -20 -47 -18 0
-20 7 -20 73 0 107 15 113 84 36z m276 -14 l0 -64 58 -3 c43 -2 57 -7 57 -18
0 -12 -15 -15 -75 -15 l-75 0 -3 83 c-3 77 -2 82 18 82 18 0 20 -6 20 -65z
m170 -21 c0 -76 -2 -85 -17 -82 -15 3 -18 16 -21 86 -3 77 -2 82 18 82 19 0
20 -6 20 -86z m174 64 c23 -33 21 -103 -4 -128 -17 -17 -31 -20 -83 -18 l-62
3 -3 83 -3 82 70 0 c61 0 72 -3 85 -22z m200 7 c4 -12 -6 -15 -59 -15 -51 0
-65 -3 -65 -15 0 -11 12 -15 50 -15 43 0 50 -3 50 -20 0 -17 -7 -20 -50 -20
-38 0 -50 -4 -50 -15 0 -12 13 -15 60 -15 53 0 60 -2 60 -20 0 -18 -7 -20 -80
-20 l-80 0 0 85 0 85 79 0 c61 0 80 -3 85 -15z m164 6 c8 -5 12 -23 10 -47 -2
-31 -7 -39 -28 -44 l-25 -6 33 -24 c38 -28 41 -40 9 -40 -14 0 -36 14 -54 35
-39 43 -51 44 -55 3 -2 -22 -9 -34 -20 -36 -16 -3 -18 6 -18 82 l0 86 68 0
c37 0 73 -4 80 -9z m192 -11 c6 -11 10 -48 8 -83 -2 -49 -6 -62 -20 -65 -15
-3 -18 4 -18 34 0 36 -1 36 -31 30 -17 -3 -38 -6 -45 -6 -9 0 -14 -11 -14 -30
0 -20 -5 -30 -15 -30 -12 0 -15 15 -15 73 0 43 5 78 12 85 7 7 38 12 70 12 47
0 59 -4 68 -20z m194 5 c-6 -14 -21 -17 -94 -19 -23 -1 -25 -6 -28 -48 l-3
-48 45 0 c36 0 44 3 40 15 -4 8 -15 15 -25 15 -10 0 -19 7 -19 15 0 11 12 15
45 15 l45 0 0 -38 c0 -21 -5 -43 -12 -50 -16 -16 -130 -16 -146 0 -16 16 -16
130 0 146 7 7 41 12 85 12 60 0 71 -3 67 -15z m182 -7 c10 -31 5 -120 -8 -135
-13 -16 -102 -17 -129 -3 -16 9 -19 22 -19 73 0 36 5 68 12 75 7 7 39 12 74
12 56 0 63 -2 70 -22z m124 10 c0 -7 7 -22 15 -32 12 -16 19 -18 39 -8 13 6
27 20 31 31 7 23 45 29 45 8 0 -7 -15 -30 -34 -51 -21 -22 -36 -50 -38 -69 -4
-45 -32 -43 -36 3 -2 20 -16 48 -33 67 -16 19 -29 40 -29 48 0 18 40 20 40 3z
m355 -8 c0 -11 -15 -16 -62 -18 -79 -4 -82 -20 -6 -24 46 -2 59 -7 61 -20 3
-16 -5 -18 -57 -18 l-61 0 0 -36 c0 -28 -3 -35 -17 -32 -15 3 -19 16 -21 72
-4 99 -5 97 85 94 61 -2 78 -6 78 -18z m57 -42 l3 -63 43 -3 42 -3 0 65 c0 59
2 66 20 66 18 0 20 -7 20 -73 0 -43 -5 -78 -12 -85 -17 -17 -123 -16 -137 1
-6 8 -14 46 -17 85 -7 69 -6 72 14 72 19 0 21 -7 24 -62z m308 43 c0 -15 -6
-19 -27 -18 -27 2 -28 1 -33 -63 -4 -51 -9 -66 -22 -68 -16 -3 -18 5 -18 62
l0 66 -29 0 c-31 0 -47 13 -36 30 3 6 42 10 86 10 71 0 79 -2 79 -19z m50 -46
l0 -65 45 0 45 0 0 65 c0 58 2 65 20 65 18 0 20 -7 20 -69 0 -89 -11 -101 -90
-101 -72 0 -80 10 -80 104 0 59 2 66 20 66 18 0 20 -7 20 -65z m308 17 c3 -37
0 -44 -17 -49 -28 -7 -26 -17 4 -37 32 -21 32 -36 1 -36 -17 0 -34 12 -52 35
-33 43 -54 46 -54 6 0 -20 -6 -30 -20 -34 -19 -5 -20 0 -20 79 l0 85 78 -3 77
-3 3 -43z m180 36 c7 -7 12 -39 12 -75 0 -73 -10 -83 -88 -83 -63 0 -75 14
-78 90 -2 47 1 62 14 70 24 14 126 12 140 -2z m72 -48 c0 -47 -3 -60 -15 -60
-12 0 -15 13 -15 60 0 47 3 60 15 60 12 0 15 -13 15 -60z m-5500 5 c0 -8 -9
-15 -20 -15 -20 0 -26 11 -13 23 12 13 33 7 33 -8z m865 -35 c0 -11 -14 -16
-52 -18 -42 -2 -53 0 -53 12 0 17 22 25 70 23 24 -1 35 -7 35 -17z m-865 -55
c0 -46 -3 -55 -17 -55 -15 0 -18 8 -15 55 3 39 8 55 18 55 10 0 14 -14 14 -55z
m2632 -11 c-5 -34 -11 -44 -27 -44 -12 0 -14 6 -9 28 9 37 14 44 27 39 7 -2
11 -13 9 -23z m2874 15 c9 -15 -11 -33 -30 -26 -9 4 -13 13 -10 22 7 17 30 20
40 4z"/>
<path d="M12690 4454 c0 -14 4 -23 9 -20 5 3 7 15 4 26 -7 28 -13 25 -13 -6z"/>
<path d="M15279 4476 c-8 -8 3 -86 11 -81 5 3 6 14 3 25 -8 30 4 25 59 -25 28
-25 55 -45 60 -45 5 0 8 20 7 44 -2 26 3 51 10 60 12 14 10 16 -12 16 -24 0
-25 -3 -20 -35 7 -41 -2 -44 -36 -11 -33 30 -76 57 -82 52z"/>
<path d="M15797 4473 c-50 -3 -57 -6 -47 -18 7 -8 10 -25 7 -37 -4 -13 -2 -30
3 -38 7 -11 4 -17 -8 -22 -9 -4 18 -7 61 -7 62 -1 77 2 77 14 0 17 -16 20 -25
5 -3 -5 -21 -10 -38 -10 l-32 0 3 50 c4 49 4 50 37 50 18 0 35 -6 38 -12 2 -7
8 -10 12 -6 11 10 -2 38 -17 36 -7 -1 -39 -3 -71 -5z"/>
<path d="M15920 4460 c0 -11 7 -20 15 -20 8 0 36 -20 63 -45 53 -51 72 -56 72
-20 0 14 -5 25 -10 25 -6 0 -35 18 -65 40 -61 45 -75 49 -75 20z"/>
<path d="M16325 4468 c-3 -7 -4 -34 -2 -60 2 -42 5 -48 24 -48 15 0 21 5 17
14 -3 8 -6 34 -7 57 -2 41 -22 65 -32 37z"/>
<path d="M14360 4460 c0 -5 4 -10 9 -10 5 0 11 -17 14 -37 3 -27 0 -42 -11
-50 -13 -11 -2 -13 61 -13 73 0 77 1 77 23 -1 20 -2 20 -11 5 -6 -12 -22 -18
-43 -18 -33 0 -34 1 -34 42 -1 23 4 48 10 55 8 10 2 13 -31 13 -22 0 -41 -4
-41 -10z"/>
<path d="M14533 4463 c13 -3 18 -13 16 -31 -6 -62 16 -82 92 -82 45 0 59 15
59 62 0 21 5 38 10 38 6 0 10 5 10 10 0 6 -15 10 -32 10 -30 -1 -31 -2 -15
-14 19 -15 22 -48 7 -77 -12 -22 -72 -27 -87 -6 -6 6 -9 31 -8 55 l3 42 -37
-1 c-20 -1 -28 -3 -18 -6z"/>
<path d="M14761 4433 c1 -38 1 -38 9 -8 l7 30 23 -52 c21 -48 50 -71 50 -40 0
6 10 23 21 37 l20 25 -3 -35 c-4 -45 27 -56 42 -15 14 38 13 55 -5 49 -11 -5
-15 1 -15 20 0 37 -22 32 -44 -9 -11 -19 -22 -35 -26 -35 -3 0 -14 16 -23 35
-11 23 -24 35 -37 35 -17 0 -20 -6 -19 -37z"/>
<path d="M14976 4458 c-3 -7 -7 -34 -10 -60 l-6 -48 41 0 c37 0 39 1 24 16
-12 13 -15 27 -10 60 5 40 4 44 -15 44 -11 0 -22 -6 -24 -12z"/>
<path d="M15083 4459 c20 -12 24 -78 5 -97 -9 -9 5 -12 65 -12 62 0 77 3 77
15 0 18 -12 19 -27 4 -16 -16 -57 -7 -61 15 -3 15 1 18 22 14 18 -4 26 -1 26
9 0 9 -7 12 -24 7 -29 -7 -42 19 -20 41 14 13 10 15 -33 15 -37 -1 -44 -3 -30
-11z"/>
<path d="M15202 4454 c9 -9 21 -13 27 -9 16 10 3 25 -22 25 -20 0 -20 -1 -5
-16z"/>
<path d="M15550 4445 c-32 -34 -19 -78 24 -83 28 -3 28 -3 12 19 -21 31 -20
45 4 69 19 19 19 20 2 20 -10 0 -29 -11 -42 -25z"/>
<path d="M16050 4455 c0 -8 5 -15 10 -15 6 0 10 7 10 15 0 8 -4 15 -10 15 -5
0 -10 -7 -10 -15z"/>
<path d="M16105 4459 c-11 -17 0 -20 21 -4 17 13 17 14 2 15 -9 0 -20 -5 -23
-11z"/>
<path d="M16170 4420 c5 -41 3 -53 -9 -60 -12 -7 -6 -9 22 -10 27 0 36 3 31
12 -4 7 -6 34 -5 60 2 45 1 48 -21 48 -23 0 -24 -2 -18 -50z"/>
<path d="M16255 4460 c3 -5 10 -10 16 -10 5 0 9 5 9 10 0 6 -7 10 -16 10 -8 0
-12 -4 -9 -10z"/>
<path d="M16430 4464 c0 -3 6 -11 13 -19 11 -11 16 -10 25 6 11 17 9 19 -13
19 -14 0 -25 -3 -25 -6z"/>
<path d="M16522 4440 c1 -33 14 -41 21 -12 2 12 9 4 21 -25 10 -24 24 -43 32
-43 7 0 24 19 36 43 l23 42 3 -35 c2 -19 -1 -36 -7 -38 -24 -8 -9 -22 24 -22
19 0 35 5 35 10 0 6 -4 10 -10 10 -18 0 -12 70 8 77 13 5 9 9 -18 15 -27 6
-38 4 -47 -10 -43 -60 -38 -59 -64 -19 -30 46 -58 49 -57 7z"/>
<path d="M15675 4450 c-3 -5 1 -10 10 -10 9 0 13 5 10 10 -3 6 -8 10 -10 10
-2 0 -7 -4 -10 -10z"/>
<path d="M15816 4411 c-3 -5 0 -11 8 -14 15 -6 26 1 26 15 0 11 -27 10 -34 -1z"/>
<path d="M15920 4411 c0 -6 5 -13 10 -16 6 -3 10 1 10 9 0 9 -4 16 -10 16 -5
0 -10 -4 -10 -9z"/>
<path d="M15665 4381 c4 -14 0 -21 -12 -24 -15 -4 -14 -5 3 -6 13 -1 28 9 38
24 16 24 16 25 -9 25 -21 0 -25 -4 -20 -19z"/>
<path d="M14756 4373 c-11 -11 -6 -23 9 -23 8 0 15 4 15 9 0 13 -16 22 -24 14z"/>
<path d="M15920 4366 c0 -9 6 -16 13 -16 16 0 46 20 30 20 -6 0 -18 3 -27 6
-11 4 -16 1 -16 -10z"/>
<path d="M16523 4373 c-18 -6 -16 -23 1 -23 17 0 30 16 19 23 -5 2 -14 2 -20
0z"/>
<path d="M15265 4360 c-4 -6 5 -10 20 -10 15 0 24 4 20 10 -3 6 -12 10 -20 10
-8 0 -17 -4 -20 -10z"/>
<path d="M16393 4353 c9 -2 23 -2 30 0 6 3 -1 5 -18 5 -16 0 -22 -2 -12 -5z"/>
<path d="M9913 4093 c-19 -4 -23 -11 -23 -39 l0 -34 105 0 105 0 0 34 c0 22
-6 36 -16 40 -17 7 -135 6 -171 -1z"/>
<path d="M7080 4060 l0 -40 101 0 100 0 -3 38 -3 37 -97 3 -98 3 0 -41z"/>
<path d="M7787 4093 c-25 -4 -28 -8 -25 -36 l3 -32 100 0 100 0 3 31 c3 26 -1
33 -20 38 -25 6 -115 6 -161 -1z"/>
<path d="M7767 3934 c-4 -4 -7 -22 -7 -41 l0 -33 106 0 105 0 -3 38 -3 37 -95
3 c-53 1 -99 0 -103 -4z"/>
<path d="M11089 4085 c-1 -3 -1 -14 -1 -25 0 -11 0 -24 1 -30 1 -6 42 -10 101
-10 l100 0 0 35 0 35 -100 0 c-55 0 -100 -2 -101 -5z"/>
<path d="M4184 3871 c-18 -11 -35 -24 -38 -30 -4 -6 -19 -11 -34 -11 -39 0
-125 -43 -150 -75 -22 -28 -29 -79 -13 -90 5 -3 21 6 35 20 14 14 36 25 49 25
14 0 27 7 31 15 7 20 26 19 26 0 0 -8 5 -24 12 -35 11 -17 14 -18 30 -4 21 20
42 10 29 -14 -19 -36 -16 -69 8 -89 18 -15 22 -24 15 -36 -8 -14 -15 -12 -53
21 -35 31 -42 42 -39 67 3 27 0 30 -30 33 -42 4 -59 -10 -72 -60 -12 -43 -31
-46 -40 -7 -5 18 -12 23 -31 21 -46 -4 -66 -50 -62 -139 2 -31 52 -102 84
-119 16 -8 51 -14 79 -14 l50 0 0 38 c0 34 -4 41 -41 62 -38 21 -43 21 -51 6
-12 -22 -25 -20 -31 5 -7 26 0 46 19 53 21 8 92 -23 109 -47 14 -20 14 -20 45
6 41 35 102 50 170 43 45 -5 59 -2 78 14 28 23 27 67 -1 62 -22 -4 -33 24 -17
43 8 9 8 15 2 15 -6 0 -17 3 -25 6 -12 4 -16 -3 -19 -28 -3 -36 -21 -41 -26
-7 -6 38 7 68 33 75 24 6 24 7 8 20 -17 13 -17 15 5 33 12 11 22 27 22 35 0 9
8 20 18 23 9 4 22 14 29 22 10 13 15 14 32 4 15 -10 20 -9 25 2 7 19 35 19 42
0 4 -8 15 -15 25 -15 10 0 19 -5 19 -11 0 -6 9 -8 22 -4 17 6 20 4 15 -9 -4
-9 1 -20 11 -26 16 -9 16 -11 0 -23 -16 -13 -16 -15 3 -30 26 -23 24 -36 -7
-47 -21 -8 -24 -13 -14 -25 13 -16 6 -35 -14 -35 -8 0 -16 -10 -19 -22 -5 -17
-9 -19 -21 -9 -12 10 -19 8 -37 -10 -20 -20 -23 -21 -34 -5 -12 15 -13 15 -18
-4 -4 -16 0 -20 19 -20 13 0 33 5 43 11 19 13 71 5 71 -11 0 -13 -37 -23 -97
-25 -30 -2 -65 -10 -80 -20 -20 -14 -44 -17 -100 -16 -119 4 -183 -45 -183
-138 0 -60 23 -97 75 -121 53 -24 88 -25 166 -5 41 11 86 14 146 11 67 -4 93
-2 110 10 13 8 23 18 23 23 0 12 -80 31 -128 31 -39 0 -62 16 -75 53 -4 11
-17 17 -35 17 -34 0 -68 22 -58 39 5 8 23 9 55 5 31 -4 51 -2 55 5 9 15 46 14
46 -1 0 -6 -9 -22 -21 -34 l-21 -22 26 -17 c18 -12 36 -15 57 -11 19 3 42 0
59 -9 16 -8 47 -15 69 -15 48 0 58 -13 32 -39 l-21 -21 28 -5 c15 -4 36 -8 46
-10 34 -7 116 43 132 80 24 59 16 115 -17 115 -26 0 -24 16 6 36 20 13 25 24
25 59 0 36 -6 50 -34 80 -19 19 -37 51 -40 70 -8 43 -48 91 -82 99 -14 4 -42
25 -63 46 -34 36 -43 40 -85 40 -33 0 -56 6 -73 20 -28 22 -101 28 -120 9 -9
-9 -20 -9 -44 0 -49 17 -120 13 -155 -8z m111 -54 c24 -19 10 -40 -21 -33 -20
5 -28 0 -45 -29 -24 -40 -44 -41 -44 -4 0 17 -6 25 -23 27 -15 2 -22 9 -20 20
3 13 15 17 55 17 29 1 55 4 59 8 10 10 18 9 39 -6z m362 -72 c3 -9 20 -22 38
-29 18 -8 45 -31 61 -52 16 -22 32 -40 37 -42 4 -2 7 -15 7 -28 0 -17 -6 -24
-20 -24 -11 0 -20 7 -20 15 0 9 -12 33 -26 55 -21 32 -35 41 -65 46 -36 6 -39
9 -39 40 0 35 16 46 27 19z m8 -209 c0 -76 -3 -87 -24 -110 -28 -29 -81 -36
-81 -11 0 8 8 15 18 15 35 0 50 30 49 100 -2 67 5 90 26 90 8 0 12 -26 12 -84z
m125 -35 c13 -25 13 -82 0 -116 -7 -18 -6 -31 2 -45 11 -16 9 -22 -7 -34 -25
-19 -34 -20 -41 -1 -4 8 -17 15 -31 15 -33 0 -27 32 7 40 34 8 56 72 41 116
-14 40 -14 44 4 44 8 0 19 -9 25 -19z m-520 -160 c0 -22 20 -41 43 -41 29 0
17 -34 -13 -38 -17 -2 -34 6 -50 23 -13 14 -31 25 -41 25 -22 0 -41 24 -29 36
5 5 27 10 50 10 31 1 40 -2 40 -15z"/>
<path d="M4450 3781 c-35 -9 -53 -22 -68 -52 -12 -23 -12 -31 2 -57 20 -39 49
-55 86 -47 42 9 65 40 64 87 -1 31 -8 46 -25 59 -13 10 -26 18 -29 18 -3 -1
-16 -4 -30 -8z m44 -32 c34 -26 34 -62 0 -88 -33 -26 -49 -26 -74 -1 -24 24
-26 67 -3 92 21 24 44 23 77 -3z"/>
<path d="M4430 3725 c-15 -18 2 -45 30 -45 23 0 34 28 19 46 -15 18 -33 18
-49 -1z"/>
<path d="M4625 3201 c11 -4 49 -11 85 -15 45 -4 58 -3 43 3 -12 6 -50 12 -85
16 -41 3 -56 2 -43 -4z"/>
<path d="M4466 3192 c-7 -11 85 -62 110 -61 12 0 7 6 -16 16 -19 8 -47 24 -62
34 -14 11 -29 15 -32 11z"/>
<path d="M4367 3184 c-7 -7 32 -74 44 -74 5 0 0 18 -11 40 -21 42 -23 44 -33
34z"/>
<path d="M4430 3183 c0 -12 91 -84 137 -107 18 -9 45 -16 60 -15 l28 1 -30 7
c-41 10 -123 58 -162 95 -18 16 -33 25 -33 19z"/>
<path d="M4540 3184 c0 -14 76 -34 127 -33 l58 1 -50 9 c-27 4 -66 12 -85 18
-39 12 -50 13 -50 5z"/>
<path d="M4680 3130 c8 -5 20 -10 25 -10 6 0 3 5 -5 10 -8 5 -19 10 -25 10 -5
0 -3 -5 5 -10z"/>
<path d="M4475 3095 c17 -13 37 -24 45 -25 8 0 -2 11 -22 25 -47 32 -62 32
-23 0z"/>
<path d="M4480 3041 c0 -6 4 -12 9 -16 5 -3 12 -19 16 -35 7 -33 25 -41 25
-11 0 33 -19 71 -35 71 -8 0 -15 -4 -15 -9z"/>
<path d="M6243 3404 c-3 -9 -2 -28 3 -43 9 -25 12 -26 99 -29 50 -2 109 0 133
3 36 5 42 10 42 30 0 54 -2 55 -141 55 -110 0 -131 -2 -136 -16z"/>
<path d="M8237 3413 c-11 -11 -8 -58 5 -71 8 -8 54 -12 140 -12 l128 0 0 45 0
45 -133 0 c-74 0 -137 -3 -140 -7z"/>
<path d="M10220 3280 l0 -150 135 0 135 0 0 150 0 150 -135 0 -135 0 0 -150z"/>
<path d="M12385 2640 c3 -5 17 -10 31 -10 14 0 22 4 19 10 -3 6 -17 10 -31 10
-14 0 -22 -4 -19 -10z"/>
<path d="M8360 2435 c0 -26 0 -26 83 -23 76 3 82 5 85 26 3 21 1 22 -82 22
-85 0 -86 0 -86 -25z"/>
<path d="M7527 2464 c-4 -4 -7 -43 -7 -86 l0 -78 85 0 86 0 -3 83 -3 82 -75 3
c-42 1 -79 0 -83 -4z"/>
<path d="M8708 2435 l-5 -25 83 0 c83 0 84 0 84 25 0 25 -1 25 -79 25 -76 0
-79 -1 -83 -25z"/>
<path d="M11583 2389 c-7 -7 -13 -30 -13 -50 0 -72 -7 -69 186 -69 l174 0 0
60 0 60 -117 0 c-65 0 -140 3 -168 6 -34 4 -54 2 -62 -7z m322 -54 c0 -19 -8
-20 -142 -23 -137 -2 -143 -2 -143 17 0 19 8 21 118 24 170 5 167 5 167 -18z"/>
<path d="M11574 2136 c-3 -7 -4 -33 -2 -57 l3 -44 176 -3 177 -2 4 30 c3 16 3
43 0 60 l-4 30 -174 0 c-140 0 -176 -3 -180 -14z m92 -31 c7 -18 -13 -45 -33
-45 -17 0 -27 24 -19 45 7 20 45 19 52 0z m229 -15 c0 -38 -39 -35 -43 3 -3
25 0 28 20 25 17 -2 23 -9 23 -28z"/>
<path d="M7072 1928 l3 -83 75 0 75 0 3 83 3 82 -81 0 -81 0 3 -82z"/>
<path d="M8225 1998 c-3 -7 -3 -35 -1 -63 2 -27 5 -58 5 -67 1 -16 12 -18 75
-18 41 0 76 4 78 10 2 5 2 41 0 80 l-4 70 -74 0 c-51 0 -76 -4 -79 -12z"/>
<path d="M9690 1985 c0 -25 1 -25 80 -25 79 0 80 0 80 25 0 25 -1 25 -80 25
-79 0 -80 0 -80 -25z"/>
<path d="M11723 1844 c-8 -22 10 -49 32 -49 10 0 22 7 28 16 15 24 1 49 -28
49 -15 0 -28 -7 -32 -16z"/>
<path d="M2750 515 l0 -45 45 0 45 0 0 45 0 45 -45 0 -45 0 0 -45z"/>
<path d="M1107 593 c-12 -11 -8 -23 8 -23 8 0 15 7 15 15 0 16 -12 20 -23 8z"/>
<path d="M740 485 c0 -13 9 -16 43 -13 23 2 42 8 42 13 0 6 -19 11 -42 13 -34
3 -43 0 -43 -13z"/>
<path d="M930 533 c0 -23 2 -25 13 -12 6 7 18 20 26 27 12 10 10 12 -12 12
-23 0 -27 -4 -27 -27z"/>
<path d="M967 522 c-20 -21 -37 -41 -37 -45 0 -4 18 -7 40 -7 l40 0 0 45 c0
25 -1 45 -3 45 -2 0 -20 -17 -40 -38z"/>
<path d="M1963 563 c-32 -4 -33 -6 -33 -49 l0 -44 46 0 45 0 -3 47 c-3 50 -6
52 -55 46z"/>
<path d="M2320 545 c0 -11 11 -15 40 -15 29 0 40 4 40 15 0 11 -11 15 -40 15
-29 0 -40 -4 -40 -15z"/>
<path d="M3490 516 l0 -46 46 0 45 0 -3 43 c-3 42 -3 42 -45 45 l-43 3 0 -45z"/>
<path d="M3860 544 c0 -12 6 -15 23 -10 12 3 30 6 40 6 9 0 17 5 17 10 0 6
-18 10 -40 10 -30 0 -40 -4 -40 -16z"/>
<path d="M4050 545 c0 -11 11 -15 40 -15 29 0 40 4 40 15 0 11 -11 15 -40 15
-29 0 -40 -4 -40 -15z"/>
<path d="M4443 563 c-20 -4 -23 -11 -23 -49 l0 -44 40 0 40 0 0 50 c0 53 -1
54 -57 43z"/>
<path d="M5653 562 c-49 -5 -40 -22 12 -22 25 0 45 4 45 9 0 12 -20 17 -57 13z"/>
<path d="M5803 554 c-3 -8 -2 -30 1 -49 7 -33 9 -35 46 -35 l40 0 0 49 0 48
-41 0 c-25 0 -43 -5 -46 -13z"/>
</g>
</svg>
