<?xml version="1.0" encoding="utf-8" standalone="yes"?>
<!DOCTYPE svg PUBLIC "-//W3C//DTD SVG 1.1//EN" "http://www.w3.org/Graphics/SVG/1.1/DTD/svg11.dtd">
<svg style="fill:none;stroke:none;fill-rule:evenodd;clip-rule:evenodd;stroke-linecap:round;stroke-linejoin:round;stroke-miterlimit:1.5;" version="1.1" xmlns="http://www.w3.org/2000/svg" xmlns:xlink="http://www.w3.org/1999/xlink" width="808" height="1044" viewBox="0 0 808 1044"><style class="text-font-style fontImports" data-font-family="Roboto">@import url(https://fonts.googleapis.com/css2?family=Roboto:wght@400;700&amp;amp;display=block);</style><rect id="" x="0" y="0" width="807.989" height="1044" style="fill: #2c2c2c;"></rect><g id="items" style="isolation: isolate"><g id="blend" style="mix-blend-mode: normal"><g id="g-root-tf_qu1zezrstmvh-fill" data-item-order="-1265311"><g id="tf_qu1zezrstmvh-fill-merged" stroke="none" fill="#2c2c2c" fill-opacity="1"><g><path d="M0.001 0 H807.991 V1044 H0.001 V0"></path></g></g></g><g id="g-root-cp_0b_g-0b_vcdh1nrsqtxh-fill" data-item-order="-599351" transform="translate(37.99998474121094, 494.15576171875)"></g><g id="g-root-cp_1_g-1_959yffrsqwb2-fill" data-item-order="-599339" transform="translate(55.33985900878906, 481.2109375)"></g><g id="g-root-cp_2_g-2_4g3c0brss8hz-fill" data-item-order="-599335" transform="translate(93.73896789550781, 489.68798828125)"></g><g id="g-root-cp_3_g-3_9tvvrss9a8-fill" data-item-order="-599331" transform="translate(131.98501586914062, 497.40185546875)"></g><g id="g-root-cp_4_g-4_1q5qvm3rss9vt-fill" data-item-order="-599327" transform="translate(165.43499755859375, 498.55078125)"></g><g id="g-root-cp_5_g-5_1q5qvm3rss9vu-fill" data-item-order="-599323" transform="translate(200.30096435546875, 487.27001953125)"></g><g id="g-root-cp_0a_g-0a_1lpxdhnrssao3-fill" data-item-order="-599319" transform="translate(39.61799621582031, 252.25390625)"></g><g id="g-root-tx_objetivo_zjgbyjrss9vw-fill" data-item-order="0" transform="translate(298.7640075683594, 62)"><g id="tx_objetivo_zjgbyjrss9vw-fill-merged" stroke="none" fill="#ffffff" fill-opacity="1"><g><text style="font: bold 25px Roboto, sans-serif; white-space: pre;" font-weight="bold" font-size="25px" font-family="Roboto, sans-serif"><tspan x="15.46" y="43" dominant-baseline="ideographic">OBJETIVOS</tspan></text></g></g></g><g id="g-root-ic_2_zrki2zrssagz-fill" data-item-order="0" transform="translate(355.7540283203125, 140)"></g><g id="g-root-tx_tendenci_hxsl8rrss8i1-fill" data-item-order="0" transform="translate(403.5280456542969, 146)"><g id="tx_tendenci_hxsl8rrss8i1-fill-merged" stroke="none" fill="#ffffff" fill-opacity="1"><g><text style="font: bold 15px Roboto, sans-serif; white-space: pre;" font-weight="bold" font-size="15px" font-family="Roboto, sans-serif"><tspan x="12" y="31" dominant-baseline="ideographic">Promover la reflexión y actualización en </tspan><tspan x="12" y="49" dominant-baseline="ideographic">torno a las tendencias de la inteligencia </tspan><tspan x="12" y="67" dominant-baseline="ideographic">artificial y la transformación digital.</tspan></text></g></g></g><g id="g-root-ic_trai_8x5sazrsv1fp-fill" data-item-order="0" transform="translate(355.7540283203125, 272)"></g><g id="g-root-tx_desarrol_mczma3rstp1c-fill" data-item-order="0" transform="translate(403.5280456542969, 278)"><g id="tx_desarrol_mczma3rstp1c-fill-merged" stroke="none" fill="#ffffff" fill-opacity="1"><g><text style="font: bold 15px Roboto, sans-serif; white-space: pre;" font-weight="bold" font-size="15px" font-family="Roboto, sans-serif"><tspan x="12" y="28" dominant-baseline="ideographic">Fortalecer en los estudiantes las </tspan><tspan x="12" y="46" dominant-baseline="ideographic">habilidades blandas y competencias </tspan><tspan x="12" y="64" dominant-baseline="ideographic">profesionales necesarias para el liderazgo y </tspan><tspan x="12" y="82" dominant-baseline="ideographic">el trabajo en equipo.</tspan></text></g></g></g><g id="g-root-ic_team_1uoor63rssa9y-fill" data-item-order="0" transform="translate(136.09600830078125, 309.94189453125)"></g><g id="g-root-tx_objetivo_1cw5si3rssah1-fill" data-item-order="0" transform="translate(118.09600830078125, 417.94189453125)"><g id="tx_objetivo_1cw5si3rssah1-fill-merged" stroke="none" fill="#ffffff" fill-opacity="1"><g><text style="font: bold 20px Roboto, sans-serif; white-space: pre;" font-weight="bold" font-size="20px" font-family="Roboto, sans-serif"><tspan x="22.77" y="34" dominant-baseline="ideographic">OBJETIVOS </tspan><tspan x="14.67" y="58" dominant-baseline="ideographic">ESPECIFICOS</tspan></text></g></g></g><g id="g-root-ic_anal_7rix7rszabk-fill" data-item-order="0" transform="translate(355.7540283203125, 416)"></g><g id="g-root-tx_divulgac_zly8azrszbib-fill" data-item-order="0" transform="translate(403.5280456542969, 422)"><g id="tx_divulgac_zly8azrszbib-fill-merged" stroke="none" fill="#ffffff" fill-opacity="1"><g><text style="font: bold 15px Roboto, sans-serif; white-space: pre;" font-weight="bold" font-size="15px" font-family="Roboto, sans-serif"><tspan x="12" y="28" dominant-baseline="ideographic">Generar espacios de divulgación de </tspan><tspan x="12" y="46" dominant-baseline="ideographic">proyectos académicos, investigativos y de </tspan><tspan x="12" y="64" dominant-baseline="ideographic">grado desarrollados por estudiantes y </tspan><tspan x="12" y="82" dominant-baseline="ideographic">docentes.</tspan></text></g></g></g><g id="g-root-ic_buil_18kplzfrt22oc-fill" data-item-order="0" transform="translate(355.7540283203125, 560)"></g><g id="g-root-tx_vinculac_1lqjukrrt24uf-fill" data-item-order="0" transform="translate(403.5280456542969, 566)"><g id="tx_vinculac_1lqjukrrt24uf-fill-merged" stroke="none" fill="#ffffff" fill-opacity="1"><g><text style="font: bold 15px Roboto, sans-serif; white-space: pre;" font-weight="bold" font-size="15px" font-family="Roboto, sans-serif"><tspan x="12" y="31" dominant-baseline="ideographic">Establecer y consolidar vínculos con </tspan><tspan x="12" y="49" dominant-baseline="ideographic">empresas aliadas y comunidades de </tspan><tspan x="12" y="67" dominant-baseline="ideographic">emprendimiento, a través de la feria </tspan><tspan x="12" y="85" dominant-baseline="ideographic">empresarial , la participación en foros, </tspan><tspan x="12" y="103" dominant-baseline="ideographic">conferencias y visitas pedagógicas.</tspan></text></g></g></g><g id="g-root-ic_five_v49ax7rt4weg-fill" data-item-order="0" transform="translate(355.7540283203125, 728)"></g><g id="g-root-tx_integrac_hyf2bvrt3gub-fill" data-item-order="0" transform="translate(403.5280456542969, 734)"><g id="tx_integrac_hyf2bvrt3gub-fill-merged" stroke="none" fill="#ffffff" fill-opacity="1"><g><text style="font: bold 15px Roboto, sans-serif; white-space: pre;" font-weight="bold" font-size="15px" font-family="Roboto, sans-serif"><tspan x="12" y="28" dominant-baseline="ideographic">Impulsar la integración institucional </tspan><tspan x="12" y="46" dominant-baseline="ideographic">mediante actividades culturales, deportivas </tspan><tspan x="12" y="64" dominant-baseline="ideographic">y sociales que fomenten el sentido de </tspan><tspan x="12" y="82" dominant-baseline="ideographic">pertenencia y la proyección comunitaria.</tspan></text></g></g></g><g id="g-root-tf_qu1zezrstmvh-stroke" data-item-order="-1265311"></g><g id="g-root-cp_0b_g-0b_vcdh1nrsqtxh-stroke" data-item-order="-599351" transform="translate(37.99998474121094, 494.15576171875)"><g id="cp_0b_g-0b_vcdh1nrsqtxh-stroke" fill="none" stroke-linecap="round" stroke-linejoin="round" stroke-miterlimit="4" stroke="#ffffff" stroke-width="1" stroke-opacity="1"><g><path d="M 275.618215 94.238294C 276.751515 97.352094 275.116015 100.806094 271.965115 101.952894L 257.936515 107.056094C 254.822615 108.189394 253.217115 111.632494 254.350415 114.746394L 294.024815 223.750694L 293.324815 225.254894C 292.391215 227.257094 290.011215 228.123294 288.009115 227.189694L 286.507715 226.487794L 247.859415 120.302594C 246.726115 117.188694 243.283015 115.583194 240.169215 116.716594C 237.055315 117.849894 235.449815 121.292994 236.583115 124.406794L 271.127215 219.315794L 263.125715 215.586394C 261.683515 214.913894 260.567515 213.695994 260.023215 212.200694L 225.987115 118.687094C 222.854215 119.787194 219.422315 118.193194 218.297015 115.101494C 217.175915 112.021094 218.764215 108.607994 221.848715 107.424694L 265.916915 91.385194C 269.512815 90.076394 274.025015 89.860994 275.618215 94.238294Z"></path></g></g><g id="cp_0b_g-0b_vcdh1nrsqtxh-stroke" fill="none" stroke-linecap="round" stroke-linejoin="round" stroke-miterlimit="4" stroke="#ffffff" stroke-width="1" stroke-opacity="1"><g><path d="M 286.507842 226.486362L 247.859542 120.301063C 246.726142 117.187163 243.283142 115.581663 240.169242 116.715063C 237.055342 117.848363 235.449842 121.291463 236.583242 124.405363L 271.127242 219.314262L 286.507842 226.486362Z"></path></g></g><g id="cp_0b_g-0b_vcdh1nrsqtxh-stroke" fill="none" stroke-linecap="round" stroke-linejoin="round" stroke-miterlimit="4" stroke="#ffffff" stroke-width="1" stroke-opacity="1"><g><path d="M 257.93682 107.052606C 254.82292 108.185906 253.21742 111.629006 254.35082 114.742806L 294.02512 223.747206L 303.34032 203.770706C 303.80712 202.769606 303.37402 201.579606 302.37292 201.112806L 292.65012 196.579006L 295.39092 190.701306C 295.85772 189.700306 295.42462 188.510306 294.42352 188.043506L 288.54592 185.302706L 286.49382 179.664506L 290.92502 170.161606C 291.14922 169.680906 291.17322 169.130806 290.99182 168.632406L 288.82232 162.671806C 288.64092 162.173306 288.26892 161.767406 287.78822 161.543206L 278.28532 157.111906L 281.52122 150.172506C 281.74542 149.691706 281.76942 149.141606 281.58802 148.643206L 280.10252 144.562006C 279.92112 144.063506 279.54912 143.657606 279.06842 143.433406L 275.97412 141.990506L 277.41702 138.896106C 277.64112 138.415406 277.66522 137.865306 277.48372 137.366906L 275.99832 133.285606C 275.81692 132.787206 275.44492 132.381206 274.96412 132.157106L 268.02472 128.921106L 270.76552 123.043506C 271.23232 122.042406 270.79922 120.852406 269.79812 120.385606L 263.92042 117.644806L 267.15642 110.705406C 267.38052 110.224606 267.40452 109.674506 267.22312 109.176106L 265.45432 104.316406L 257.93682 107.052606Z"></path></g></g><g id="cp_0b_g-0b_vcdh1nrsqtxh-stroke" fill="none" stroke-linecap="round" stroke-linejoin="round" stroke-miterlimit="4" stroke="#ffffff" stroke-width="1" stroke-opacity="1"><g><path d="M 237.417832 16.975288L 216.359032 13.330188C 214.260132 12.966888 212.125932 13.743688 210.751532 15.371188L 184.723632 46.192988C 183.336232 47.835888 182.934132 50.095688 183.669532 52.116288L 197.366332 89.747788C 198.101732 91.768488 199.862332 93.241088 201.981132 93.607788L 217.622532 96.315188C 217.729332 96.333688 217.816132 96.229788 217.779032 96.127988C 216.645732 93.014188 218.251232 89.571088 221.365132 88.437788L 255.194032 76.124988C 258.307932 74.991688 261.750932 76.597187 262.884332 79.711088C 262.921432 79.813088 263.055032 79.836888 263.125032 79.753888L 273.367132 67.625488C 274.754432 65.982588 275.156532 63.722788 274.421132 61.702188L 260.724332 24.070688C 259.988932 22.049988 258.228332 20.577388 256.109532 20.210687L 251.615432 19.432788C 246.651332 23.875588 241.377132 27.979088 235.829432 31.706888C 236.906232 35.080488 235.134732 38.731588 231.776932 39.953688L 216.054132 45.676288C 214.174832 46.360388 212.187032 46.142088 210.565332 45.242788L 210.563532 45.243488C 209.215132 44.495288 208.120032 43.275988 207.551132 41.713088C 207.283032 40.976388 207.151632 40.210988 207.150932 39.450988C 207.150932 39.432888 207.151032 39.414788 207.151132 39.396688C 207.161932 37.858388 207.707632 36.344788 208.737632 35.137188L 215.210832 27.547688C 216.579432 25.942988 218.690232 25.174788 220.770132 25.524288L 224.166332 26.094988C 228.772832 23.318988 233.197432 20.271788 237.417832 16.975288Z"></path></g></g><g id="cp_0b_g-0b_vcdh1nrsqtxh-stroke" fill="none" stroke-linecap="round" stroke-linejoin="round" stroke-miterlimit="4" stroke="#ffffff" stroke-width="1" stroke-opacity="1"><g><path d="M 220.347924 108.257813L 177.671424 115.782813L 177.750724 115.835713C 174.944824 116.767813 173.167924 119.612413 173.690724 122.577313C 174.262024 125.817512 177.365024 127.983213 180.641324 127.443913L 197.921924 225.447113C 198.198224 227.014212 199.085824 228.407413 200.389324 229.320113L 207.621624 234.384413L 190.083124 134.918813C 189.507724 131.655513 191.686724 128.543512 194.950124 127.968113C 198.213424 127.392713 201.325424 129.571713 201.900824 132.835113L 221.523124 244.118313L 222.879824 245.068113C 224.689424 246.335213 227.183624 245.895413 228.450724 244.085813L 229.401124 242.728613L 209.257924 128.490913C 208.682524 125.227612 210.861524 122.115613 214.124924 121.540213L 226.247624 119.402713L 225.987624 118.688413C 222.854724 119.788513 219.422924 118.194513 218.297624 115.102713C 217.376524 112.572013 218.284224 109.816713 220.347924 108.257813Z"></path></g></g><g id="cp_0b_g-0b_vcdh1nrsqtxh-stroke" fill="none" stroke-linecap="round" stroke-linejoin="round" stroke-miterlimit="4" stroke="#ffffff" stroke-width="1" stroke-opacity="1"><g><path d="M 214.125131 121.541544C 210.861831 122.116944 208.682731 125.228944 209.258231 128.492244L 229.401431 242.729944L 239.610431 228.149844C 240.244031 227.245044 240.024131 225.997944 239.119331 225.364444L 233.806931 221.644644L 238.198631 215.372444C 238.502931 214.937944 238.622131 214.400444 238.530031 213.878044L 237.775831 209.600844C 237.683731 209.078544 237.387831 208.614144 236.953331 208.309844L 230.681231 203.918044L 229.639331 198.009244L 234.031131 191.737144C 234.335331 191.302644 234.454531 190.765044 234.362431 190.242644L 233.608231 185.965544C 233.516131 185.443144 233.220331 184.978744 232.785831 184.674444L 226.513631 180.282744L 232.666931 171.494944C 233.300531 170.590044 233.080631 169.342944 232.175831 168.709444L 223.388031 162.556144L 227.107831 157.243744C 227.741331 156.338944 227.521431 155.091844 226.616631 154.458244L 224.779531 153.171944L 228.360231 148.058244C 228.664431 147.623744 228.783631 147.086144 228.691531 146.563844L 227.590031 140.317044C 227.497931 139.794644 227.202131 139.330244 226.767631 139.026044L 218.178531 133.011944L 222.570331 126.739844C 222.874531 126.305244 222.993731 125.767744 222.901631 125.245344L 222.003631 120.152344L 214.125131 121.541544Z"></path></g></g><g id="cp_0b_g-0b_vcdh1nrsqtxh-stroke" fill="none" stroke-linecap="round" stroke-linejoin="round" stroke-miterlimit="4" stroke="#ffffff" stroke-width="1" stroke-opacity="1"><g><path d="M 194.950326 127.9672C 191.686926 128.5426 189.507926 131.6545 190.083426 134.9179L 207.621826 234.3835L 221.523326 244.1174L 201.901026 132.8341C 201.325626 129.5707 198.213726 127.3917 194.950326 127.9672Z"></path></g></g><g id="cp_0b_g-0b_vcdh1nrsqtxh-stroke" fill="none" stroke-linecap="round" stroke-linejoin="round" stroke-miterlimit="4" stroke="#ffffff" stroke-width="1" stroke-opacity="1"><g><path d="M 189.722162 24.449097C 188.790262 24.515197 187.852762 24.630197 186.912462 24.795997C 172.227262 27.385397 162.421762 41.389197 165.011162 56.074297L 166.400362 63.952797C 166.688062 65.584497 165.598562 67.140497 163.966862 67.428197C 153.088962 69.346197 145.825562 79.719397 147.743662 90.597297C 149.661762 101.475197 160.034862 108.738497 170.912762 106.820497L 195.152362 102.546397C 191.992662 101.299997 189.467662 98.751197 188.279762 95.487497L 173.026562 53.579497C 171.555962 49.539297 172.359362 45.021097 175.132462 41.735397L 189.722162 24.449097Z"></path></g></g><g id="cp_0b_g-0b_vcdh1nrsqtxh-stroke" fill="none" stroke-linecap="round" stroke-linejoin="round" stroke-miterlimit="4" stroke="#ffffff" stroke-width="1" stroke-opacity="1"><g><path d="M 161.984391 133.246094C 161.984391 129.932394 164.67069 127.246094 167.98439 127.246094L 175.98439 127.246094L 175.98439 132.417694C 175.98439 132.948094 175.77369 133.456794 175.39859 133.831894L 169.98439 139.246094L 174.57019 143.831894C 175.35119 144.612894 175.35119 145.879294 174.57019 146.660294L 169.98439 151.246094L 175.39859 156.660294C 175.77369 157.035394 175.98439 157.544094 175.98439 158.074494L 175.98439 162.417694C 175.98439 162.948094 175.77369 163.456794 175.39859 163.831894L 169.98439 169.246094L 174.57019 173.831894C 175.35119 174.612894 175.35119 175.879294 174.57019 176.660294L 169.98439 181.246094L 177.39859 188.660294C 177.77369 189.035394 177.98439 189.544094 177.98439 190.074494L 177.98439 196.417694C 177.98439 196.948094 177.77369 197.456794 177.39859 197.831894L 169.98439 205.246094L 175.39859 210.660294C 175.77369 211.035394 175.98439 211.544094 175.98439 212.074494L 175.98439 216.417694C 175.98439 216.948094 175.77369 217.456794 175.39859 217.831894L 169.98439 223.246094L 177.57019 230.831894C 178.35119 231.612894 178.35119 232.879294 177.57019 233.660294L 161.98439 249.246094L 161.98439 249.244594L 161.984391 133.246094ZM 161.98439 249.244594L 169.98419 241.244794"></path></g></g><g id="cp_0b_g-0b_vcdh1nrsqtxh-stroke" fill="none" stroke-linecap="round" stroke-linejoin="round" stroke-miterlimit="4" stroke="#ffffff" stroke-width="1" stroke-opacity="1"><g><path d="M 147.985367 130.246094C 144.671667 130.246094 141.985366 132.932394 141.985367 136.246094L 141.985367 237.244794L 141.985367 237.246094L 153.985367 249.244794L 153.985367 136.246094C 153.985367 132.932394 151.299067 130.246094 147.985367 130.246094ZM 153.985367 249.246094L 153.985367 249.244794L 141.985367 237.244794"></path></g></g><g id="cp_0b_g-0b_vcdh1nrsqtxh-stroke" fill="none" stroke-linecap="round" stroke-linejoin="round" stroke-miterlimit="4" stroke="#ffffff" stroke-width="1" stroke-opacity="1"><g><path d="M 157.042967 115.269531C 161.867867 117.057131 167.216967 117.626031 172.650067 116.668031L 177.672467 115.782831L 177.751767 115.835631C 174.945767 116.767831 173.168867 119.612331 173.691667 122.577331C 174.092367 124.849531 175.737967 126.593331 177.815167 127.246431L 167.985467 127.247231C 164.671767 127.247231 161.985467 129.933531 161.985467 133.247231L 161.985467 249.245731L 160.813767 250.417531C 159.251667 251.979631 156.718967 251.979631 155.156867 250.417531L 153.985767 249.246431L 153.985767 136.247731C 153.985767 132.934031 151.299467 130.247731 147.985767 130.247731C 144.672067 130.247731 141.985767 132.934031 141.985767 136.247731L 141.985767 237.246431L 135.742667 231.003431C 134.617467 229.878131 133.985267 228.352031 133.985267 226.760731L 133.985267 127.245631C 130.665067 127.207831 127.985367 124.536231 127.985367 121.246031C 127.985367 118.182431 130.308867 115.655031 133.309367 115.291031L 157.042967 115.269531ZM 161.985467 249.245731L 161.985467 249.247231M 153.985767 249.246431L 153.985767 249.247731M 141.985767 237.246431L 141.985767 237.247731"></path></g></g><g id="cp_0b_g-0b_vcdh1nrsqtxh-stroke" fill="none" stroke-linecap="round" stroke-linejoin="round" stroke-miterlimit="4" stroke="#ffffff" stroke-width="1" stroke-opacity="1"><g><path d="M 166.699988 24.236936C 158.211088 32.273336 153.793188 44.283836 155.974988 56.657236L 156.426488 59.217836C 143.628788 64.252436 135.631088 77.615036 137.784988 91.662936C 135.559988 92.540636 133.985588 94.709736 133.985588 97.246536C 133.985588 100.140636 130.805788 101.811936 128.654188 99.876536C 119.725388 91.845036 114.110588 80.201536 114.110588 67.246536C 114.110588 43.015036 133.754088 23.371536 157.985588 23.371536C 160.969288 23.371536 163.883488 23.669336 166.699988 24.236936Z"></path></g></g><g id="cp_0b_g-0b_vcdh1nrsqtxh-stroke" fill="none" stroke-linecap="round" stroke-linejoin="round" stroke-miterlimit="4" stroke="#ffffff" stroke-width="1" stroke-opacity="1"><g><path d="M 129.269321 124.938838C 129.274821 124.945738 129.280221 124.952638 129.285721 124.959538L 126.307021 141.852938C 126.214921 142.375338 125.919021 142.839738 125.484521 143.143938L 119.212421 147.535838L 122.932221 152.848238C 123.565721 153.753038 123.345821 155.000138 122.441021 155.633638L 117.128621 159.353437L 121.520421 165.625638C 121.824621 166.060138 121.943821 166.597738 121.851721 167.120038L 121.097521 171.397238C 121.005421 171.919638 120.709621 172.383938 120.275121 172.688238L 114.002921 177.080038L 118.394721 183.352138C 118.699021 183.786637 118.818121 184.324238 118.726021 184.846638L 117.971921 189.123738C 117.879821 189.646138 117.583921 190.110538 117.149421 190.414738L 110.877321 194.806538L 116.891421 203.395638C 117.195621 203.830138 117.314821 204.367638 117.222721 204.890038L 116.121221 211.136838C 116.029121 211.659238 115.733321 212.123638 115.298821 212.427838L 106.709721 218.441938L 112.863021 227.229738C 113.496521 228.134538 113.276721 229.381638 112.371821 230.015238L 94.316421 242.657738L 114.459621 128.420038C 115.035021 125.156638 118.147021 122.977638 121.410321 123.553138L 129.269321 124.938838Z"></path></g></g><g id="cp_0b_g-0b_vcdh1nrsqtxh-stroke" fill="none" stroke-linecap="round" stroke-linejoin="round" stroke-miterlimit="4" stroke="#ffffff" stroke-width="1" stroke-opacity="1"><g><path d="M 101.194293 123.033606C 97.930893 122.458106 94.818993 124.637106 94.243593 127.900506L 76.705093 227.366106L 86.438993 241.267606L 106.061293 129.984306C 106.636693 126.720906 104.457693 123.609006 101.194293 123.033606ZM 106.061293 129.984306L 86.438993 241.267606L 76.705093 227.366106L 94.243593 127.900506C 94.818993 124.637106 97.930893 122.458106 101.194293 123.033606C 104.457693 123.609006 106.636693 126.720906 106.061293 129.984306ZM 86.438993 241.267606L 106.061293 129.984306C 106.636693 126.720906 104.457693 123.609006 101.194293 123.033606C 97.930893 122.458106 94.818993 124.637106 94.243593 127.900506L 76.705093 227.366106L 86.438993 241.267606Z"></path></g></g><g id="cp_0b_g-0b_vcdh1nrsqtxh-stroke" fill="none" stroke-linecap="round" stroke-linejoin="round" stroke-miterlimit="4" stroke="#ffffff" stroke-width="1" stroke-opacity="1"><g><path d="M 129.310703 113.012838L 87.414103 105.960938C 85.228603 106.554138 83.474903 108.341938 83.059503 110.697738C 82.488203 113.937938 84.663303 117.034238 87.926503 117.648038L 70.645903 215.651237C 70.369603 217.218438 70.727103 218.831138 71.639803 220.134638L 76.705202 227.367338L 94.243703 127.901738C 94.819103 124.638438 97.931103 122.459438 101.194403 123.034838C 104.457803 123.610238 106.636803 126.722138 106.061403 129.985537L 86.439103 241.268838L 87.387903 242.625038C 88.655003 244.434638 91.149103 244.874438 92.958803 243.607338L 94.317403 242.656838L 114.460603 128.419138C 115.036003 125.155738 118.148003 122.976738 121.411403 123.552138L 129.269603 124.938038C 128.464303 123.920038 127.984403 122.638438 127.984403 121.246038C 127.984403 118.182438 130.307902 115.655038 133.308403 115.291038C 131.940903 114.587238 130.607303 113.826838 129.310703 113.012838ZM 129.269603 124.938038L 123.379503 123.899738"></path></g></g><g id="cp_0b_g-0b_vcdh1nrsqtxh-stroke" fill="none" stroke-linecap="round" stroke-linejoin="round" stroke-miterlimit="4" stroke="#ffffff" stroke-width="1" stroke-opacity="1"><g><path d="M 132.109806 19.835325C 115.350106 29.001425 103.983506 46.795725 103.983506 67.244725C 103.983506 73.247825 104.963106 79.022125 106.771106 84.416425L 100.087606 83.238025C 96.824206 82.662625 93.712306 84.841625 93.136806 88.104925C 92.799006 90.021125 90.140506 90.249525 89.480706 88.419025L 77.380906 54.847425C 76.658706 52.843425 77.053006 50.606825 78.417106 48.970725L 104.251006 17.986025C 105.628006 16.334425 107.783606 15.546025 109.901306 15.919425L 132.109806 19.835325Z"></path></g></g><g id="cp_0b_g-0b_vcdh1nrsqtxh-stroke" fill="none" stroke-linecap="round" stroke-linejoin="round" stroke-miterlimit="4" stroke="#ffffff" stroke-width="1" stroke-opacity="1"><g><path d="M 81.302015 98.324863L 48.498315 86.385563C 45.366415 85.288063 41.936815 86.882063 40.811915 89.972563C 39.686615 93.064263 41.291015 96.491363 44.398015 97.662463L 10.361815 191.176063C 9.817615 192.671363 9.889615 194.321663 10.562215 195.763863L 14.292515 203.763563L 48.836015 108.856063C 49.969415 105.742163 53.412415 104.136663 56.526315 105.269962C 59.640215 106.403363 61.245715 109.846363 60.112315 112.960263L 21.464615 219.144063L 22.165515 220.647263C 23.099215 222.649363 25.479115 223.515563 27.481215 222.581963L 28.981015 221.882463L 68.655315 112.878063C 69.788715 109.764263 73.231715 108.158662 76.345615 109.292063L 78.226415 109.976763L 78.228015 109.975963L 82.969615 111.701763C 82.971715 111.372063 83.001415 111.038263 83.060615 110.702863C 83.475815 108.347863 85.228415 106.560463 87.412915 105.966663C 84.773015 104.585563 82.698115 102.246563 81.669515 99.357163L 81.302015 98.324863ZM 14.292515 203.763563L 14.292015 203.764963M 21.464615 219.144063L 21.464115 219.145563M 76.345615 109.292063L 82.969615 111.702963"></path></g></g><g id="cp_0b_g-0b_vcdh1nrsqtxh-stroke" fill="none" stroke-linecap="round" stroke-linejoin="round" stroke-miterlimit="4" stroke="#ffffff" stroke-width="1" stroke-opacity="1"><g><path d="M 56.526307 105.26975C 53.412407 104.13635 49.969407 105.74185 48.836007 108.85575L 14.292507 203.76325L 14.292007 203.76475L 21.464107 219.14525L 21.464607 219.14385L 60.112307 112.96005C 61.245707 109.84615 59.640207 106.40305 56.526307 105.26975ZM 14.292507 203.76325L 21.464607 219.14385"></path></g></g><g id="cp_0b_g-0b_vcdh1nrsqtxh-stroke" fill="none" stroke-linecap="round" stroke-linejoin="round" stroke-miterlimit="4" stroke="#ffffff" stroke-width="1" stroke-opacity="1"><g><path d="M 76.34606 109.293188C 73.23216 108.159788 69.78916 109.765288 68.65576 112.879188L 28.98146 221.883488L 48.73806 212.670888C 49.21876 212.446688 49.59076 212.040788 49.77216 211.542288L 51.94166 205.581688C 52.12306 205.083287 52.09906 204.533188 51.87496 204.052388L 47.44366 194.549588L 54.38316 191.313587C 54.86386 191.089488 55.23586 190.683488 55.41726 190.184988L 56.90266 186.103788C 57.08416 185.605388 57.06006 185.055288 56.83596 184.574488L 53.59996 177.635088L 59.47766 174.894288C 60.47876 174.427487 60.91186 173.237488 60.44506 172.236388L 57.70426 166.358788L 67.42706 161.824988C 68.42816 161.358088 68.86126 160.168188 68.39446 159.167088L 63.86066 149.444288L 69.73826 146.703488C 70.73936 146.236688 71.17246 145.046688 70.70566 144.045687L 67.96486 138.167988L 74.90436 134.932088C 75.38506 134.707888 75.75706 134.301887 75.93846 133.803488L 77.42386 129.722288C 77.60536 129.223788 77.58126 128.673688 77.35716 128.192988L 74.12116 121.253488L 81.06066 118.017588C 81.54146 117.793388 81.91336 117.387488 82.09486 116.888988L 83.86356 112.029288L 76.34606 109.293188ZM 78.22846 109.977088L 78.22686 109.977888L 76.34606 109.293188"></path></g></g><g id="cp_0b_g-0b_vcdh1nrsqtxh-stroke" fill="none" stroke-linecap="round" stroke-linejoin="round" stroke-miterlimit="4" stroke="#ffffff" stroke-width="1" stroke-opacity="1"><g><path d="M 68.493185 44.887C 65.799385 48.1439 65.017285 52.5772 66.434785 56.559L 76.630385 85.1995L 60.111585 79.1872C 57.120885 78.0987 54.688085 75.8678 53.342985 72.9834L 40.373485 45.1702C 38.506285 41.1659 40.238685 36.4061 44.243085 34.5388L 95.629785 10.5768C 96.191185 10.315 96.767485 10.1239 97.348585 10L 68.493185 44.887Z"></path></g></g></g><g id="g-root-cp_1_g-1_959yffrsqwb2-stroke" data-item-order="-599339" transform="translate(55.33985900878906, 481.2109375)"><g id="cp_1_g-1_959yffrsqwb2-stroke" fill="none" stroke-linecap="round" stroke-linejoin="round" stroke-miterlimit="4" stroke="#ffffff" stroke-width="1" stroke-opacity="1"><g><path d="M 59.288385 98.1453L 42.769685 92.133C 39.779085 91.0445 37.346585 88.8137 36.001585 85.9293L 23.032085 58.1162C 21.164885 54.1118 22.897285 49.352 26.901585 47.4848L 78.288285 23.5227C 78.850185 23.2607 79.426985 23.0696 80.008485 22.9457L 80.104185 22.83C 82.855985 19.503 87.183385 17.9108 91.435285 18.6605L 96.984585 19.639L 95.722085 16.9315C 92.921185 10.925 85.781485 8.3263 79.774985 11.1272L 16.931485 40.4316C 10.924985 43.2325 8.326285 50.3722 11.127185 56.3787L 31.157485 99.3338L 63.961685 111.2732L 59.288385 98.1453Z"></path></g></g></g><g id="g-root-cp_2_g-2_4g3c0brss8hz-stroke" data-item-order="-599335" transform="translate(93.73896789550781, 489.68798828125)"><g id="cp_2_g-2_4g3c0brss8hz-stroke" fill="none" stroke-linecap="round" stroke-linejoin="round" stroke-miterlimit="4" stroke="#ffffff" stroke-width="1" stroke-opacity="1"><g><path d="M 97.109915 17.956C 97.036915 17.9417 96.963815 17.9281 96.890415 17.9152L 53.036715 10.1826C 48.784815 9.4329 44.457815 11.0251 41.706115 14.352L 12.753315 49.3562C 10.059515 52.6131 9.277615 57.047 10.695115 61.0289L 25.929615 103.8245C 26.958515 106.7145 29.034015 109.0536 31.674715 110.4345L 73.581515 117.4881C 63.098815 110.9099 55.036215 100.8305 51.033315 88.8892L 44.348815 87.7106C 41.085515 87.1351 37.973515 89.3142 37.398115 92.5775C 37.060215 94.4937 34.401715 94.7221 33.742015 92.8916L 21.642215 59.3199C 20.919915 57.316 21.314315 55.0793 22.678415 53.4433L 48.512315 22.4586C 49.889315 20.807 52.044915 20.0186 54.162515 20.392L 76.368015 24.3074C 82.632315 20.8808 89.650315 18.6597 97.109915 17.956Z"></path></g></g></g><g id="g-root-cp_3_g-3_9tvvrss9a8-stroke" data-item-order="-599331" transform="translate(131.98501586914062, 497.40185546875)"><g id="cp_3_g-3_9tvvrss9a8-stroke" fill="none" stroke-linecap="round" stroke-linejoin="round" stroke-miterlimit="4" stroke="#ffffff" stroke-width="1" stroke-opacity="1"><g><path d="M 83.9131 13.7902C 77.7514 11.3444 71.0327 10 64 10C 34.1766 10 10 34.1766 10 64C 10 84.9326 21.9104 103.0833 39.324 112.045L 63.0445 112.0234C 53.3851 108.4397 45.829 99.9709 43.9108 89.0919C 43.8711 88.8668 43.834 88.6418 43.7995 88.417C 41.5746 89.2947 40.0003 91.4638 40.0003 94.0006C 40.0003 96.8946 36.8205 98.566 34.6689 96.6306C 25.7401 88.5991 20.1253 76.9555 20.1253 64.0006C 20.1253 39.7691 39.7688 20.1256 64.0003 20.1256C 66.9837 20.1256 69.8976 20.4233 72.7139 20.9908C 75.9137 17.9615 79.6919 15.4968 83.9131 13.7902Z"></path></g></g></g><g id="g-root-cp_4_g-4_1q5qvm3rss9vt-stroke" data-item-order="-599327" transform="translate(165.43499755859375, 498.55078125)"><g id="cp_4_g-4_1q5qvm3rss9vt-stroke" fill="none" stroke-linecap="round" stroke-linejoin="round" stroke-miterlimit="4" stroke="#ffffff" stroke-width="1" stroke-opacity="1"><g><path d="M 70.3051 10.5539C 66.2603 9.8333 62.0224 9.798 57.7412 10.5529C 38.161 14.0055 25.0869 32.6772 28.5394 52.2573L 28.9909 54.818C 15.9882 59.9332 7.9405 73.6455 10.4608 87.9388C 13.3379 104.2556 28.8976 115.1506 45.2145 112.2735L 50.2371 111.3879L 92.9125 103.8631C 93.3603 103.5247 93.8626 103.2426 94.4124 103.0313L 70.0714 98.8114C 69.2575 98.6703 68.4701 98.4476 67.7185 98.1512L 43.478 102.4255C 32.6001 104.3435 22.2269 97.0802 20.3089 86.2023C 18.3908 75.3244 25.6542 64.9512 36.532 63.0332C 38.1637 62.7454 39.2532 61.1895 38.9655 59.5578L 37.5763 51.6793C 34.987 36.9942 44.7925 22.9904 59.4776 20.401C 60.4178 20.2352 61.3551 20.1203 62.2868 20.0541L 70.3051 10.5539ZM 50.2371 111.3879L 50.3164 111.4408"></path></g></g></g><g id="g-root-cp_5_g-5_1q5qvm3rss9vu-stroke" data-item-order="-599323" transform="translate(200.30096435546875, 487.27001953125)"><g id="cp_5_g-5_1q5qvm3rss9vu-stroke" fill="none" stroke-linecap="round" stroke-linejoin="round" stroke-miterlimit="4" stroke="#ffffff" stroke-width="1" stroke-opacity="1"><g><path d="M 84.659531 15.6571L 53.047931 10.1766C 48.847931 9.4485 44.576931 11.003 41.827631 14.2604L 12.829831 48.6179C 10.056731 51.9036 9.253331 56.4218 10.723931 60.462L 25.977131 102.3701C 27.447731 106.4103 30.967331 109.355 35.203631 110.0894L 59.548131 114.31L 103.785031 98.2081L 119.719831 79.3281C 122.492931 76.0424 123.296331 71.5242 121.825831 67.484L 106.572531 25.5759C 105.167131 21.7146 101.890031 18.8539 97.904431 17.967C 95.157031 20.869 92.290131 23.6566 89.311731 26.3222L 93.808031 27.1004C 95.926831 27.4672 97.687331 28.9397 98.422831 30.9604L 112.119631 68.5919C 112.855031 70.6126 112.452931 72.8723 111.065531 74.5152L 100.823531 86.6437C 100.753431 86.7266 100.619931 86.7028 100.582831 86.6008C 99.449431 83.487 96.006331 81.8814 92.892531 83.0148L 59.063531 95.3275C 55.949731 96.4609 54.344231 99.9039 55.477531 103.0178C 55.514631 103.1196 55.427731 103.2234 55.321031 103.2049L 39.679631 100.4976C 37.560831 100.1308 35.800231 98.6582 35.064831 96.6376L 21.368031 59.006C 20.632531 56.9854 21.034731 54.7257 22.422031 53.0828L 48.450031 22.2609C 49.824331 20.6335 51.958531 19.8567 54.057531 20.22L 75.113731 23.8646C 78.424831 21.2786 81.610331 18.5392 84.659531 15.6571Z"></path></g></g></g><g id="g-root-cp_0a_g-0a_1lpxdhnrssao3-stroke" data-item-order="-599319" transform="translate(39.61799621582031, 252.25390625)"><g id="cp_0a_g-0a_1lpxdhnrssao3-stroke" fill="none" stroke-linecap="round" stroke-linejoin="round" stroke-miterlimit="4" stroke="#ffffff" stroke-width="1" stroke-opacity="1"><g><path d="M 55.2828 258.8382C 27.4046 232.5778 10 195.3214 10 154C 10 74.471 74.471 10 154 10C 233.529 10 298 74.471 298 154C 298 214.0711 261.2172 265.5511 208.9459 287.1459C 207.5974 286.3976 206.5023 285.1783 205.9335 283.6154C 205.1163 281.3702 205.5695 278.8591 207.1199 277.0413L 208.5919 275.3156C 254.8203 254.4804 287 207.9982 287 154C 287 80.5461 227.4539 21 154 21C 80.5461 21 21 80.5461 21 154C 21 193.7514 38.4393 229.4296 66.0845 253.8013L 55.2828 258.8382Z"></path></g></g></g><g id="g-root-tx_objetivo_zjgbyjrss9vw-stroke" data-item-order="0" transform="translate(298.7640075683594, 62)"></g><g id="g-root-ic_2_zrki2zrssagz-stroke" data-item-order="0" transform="translate(355.7540283203125, 140)"><g id="ic_2_zrki2zrssagz-stroke" fill="none" stroke-linecap="round" stroke-linejoin="round" stroke-miterlimit="4" stroke="#ffffff" stroke-width="1" stroke-opacity="1"><g><path d="M 28.429001 43.643501C 28.428173 44.530987 27.708488 45.25 26.821001 45.25L 12.3565 45.25C 11.469597 45.249172 10.750827 44.530403 10.75 43.643501L 10.75 39.625C 10.75 34.74308 14.70758 30.7855 19.5895 30.7855C 24.471422 30.7855 28.429001 34.74308 28.429001 39.625ZM 16.2145 36.25C 16.2145 36.457108 16.382393 36.625 16.5895 36.625C 16.796606 36.625 16.9645 36.457108 16.9645 36.25C 16.9645 36.042892 16.796606 35.875 16.5895 35.875C 16.382393 35.875 16.2145 36.042892 16.2145 36.25M 22.2145 36.240997C 22.2145 36.448105 22.382393 36.615997 22.5895 36.615997C 22.796608 36.615997 22.9645 36.448105 22.9645 36.240997C 22.9645 36.033894 22.796608 35.865997 22.5895 35.865997C 22.382393 35.865997 22.2145 36.033894 22.2145 36.240997M 19.5895 30.7855L 19.5895 27.570999M 17.178999 25.1605C 17.179001 26.491783 18.258217 27.571001 19.5895 27.571001C 20.920782 27.571001 22 26.491783 22 25.1605C 22 23.829218 20.920782 22.75 19.5895 22.75C 18.258217 22.75 17.179001 23.829218 17.179001 25.1605M 10.75 41.2225L 28.429001 41.2225M 36.099998 33.25L 33.400002 33.25M 37.75 30.25L 31.75 30.25M 34.75 10.75L 34.75 13M 24.25 21.25L 26.5 21.25M 45.25 21.25L 43 21.25M 26.0905 14.0905L 28 16M 43.4095 14.0905L 41.5 16M 40 21.25C 40 18.350506 37.649494 16 34.75 16C 31.850506 16 29.500002 18.350506 29.500002 21.25C 29.328621 23.062366 30.200825 24.814911 31.749998 25.771L 31.75 26.5C 31.75 26.914213 32.085785 27.25 32.5 27.25L 37 27.25C 37.414215 27.25 37.75 26.914213 37.75 26.5L 37.75 25.75C 39.297394 24.802376 40.170341 23.056492 39.999996 21.25Z"></path></g></g></g><g id="g-root-tx_tendenci_hxsl8rrss8i1-stroke" data-item-order="0" transform="translate(403.5280456542969, 146)"></g><g id="g-root-ic_trai_8x5sazrsv1fp-stroke" data-item-order="0" transform="translate(355.7540283203125, 272)"><g id="ic_trai_8x5sazrsv1fp-stroke" fill="none" stroke-linecap="round" stroke-linejoin="round" stroke-miterlimit="4" stroke="#ffffff" stroke-width="1" stroke-opacity="1"><g><path d="M 32.049999 19.7395L 23.747499 16.183001C 23.470936 16.065184 23.291439 15.793614 23.291439 15.493C 23.291439 15.192386 23.470936 14.920816 23.747499 14.802999L 32.049999 11.2465C 32.427391 11.084721 32.854607 11.084721 33.231998 11.2465L 43.140999 15.493L 33.230499 19.7395C 32.853539 19.90085 32.42696 19.90085 32.049999 19.7395ZM 38.6395 17.422001L 38.6395 22.521999C 38.639488 22.805832 38.479256 23.065344 38.225498 23.192501L 33.310001 25.657C 32.887882 25.867933 32.391117 25.867933 31.969 25.657L 27.055 23.200001C 26.800663 23.073261 26.639793 22.813667 26.6395 22.529499L 26.6395 17.429501M 43.1395 15.493L 43.1395 20.743M 43.1395 20.743L 45.198997 26.236C 45.24308 26.351183 45.227463 26.480703 45.157265 26.582106C 45.087063 26.683508 44.971329 26.743717 44.848 26.743L 41.431 26.743C 41.307671 26.743717 41.191936 26.683508 41.121735 26.582106C 41.051533 26.480703 41.035912 26.351183 41.079998 26.236L 43.1395 20.743M 37.4305 30.382C 36.86129 33.474384 35.128429 36.230965 32.588497 38.084499L 32.588501 44.875M 19.987 44.875L 19.987 41.095001L 18.726999 41.095001C 16.640535 41.093346 14.949999 39.401466 14.95 37.315002L 14.95 33.533501L 11.407 33.533501C 11.205226 33.534309 11.015332 33.43819 10.896512 33.275112C 10.777692 33.11203 10.744395 32.901817 10.807 32.709999C 12.916 26.179001 14.5 19.217501 20.3785 16.789"></path></g></g></g><g id="g-root-tx_desarrol_mczma3rstp1c-stroke" data-item-order="0" transform="translate(403.5280456542969, 278)"></g><g id="g-root-ic_team_1uoor63rssa9y-stroke" data-item-order="0" transform="translate(136.09600830078125, 309.94189453125)"><g id="ic_team_1uoor63rssa9y-stroke" fill="none" stroke-linecap="round" stroke-linejoin="round" stroke-miterlimit="4" stroke="#efd80d" stroke-width="1" stroke-opacity="1"><g><path d="M 17.288 26.056C 17.285671 33.82056 23.579437 40.116215 31.343998 40.116215C 39.108559 40.116215 45.402328 33.82056 45.399998 26.056C 45.402328 18.291439 39.108559 11.995783 31.343998 11.995783C 23.579437 11.995783 17.285671 18.291439 17.288 26.056M 39.924 47.411999C 34.380859 44.384632 27.652245 44.504082 22.220051 47.726292C 16.787857 50.948502 13.456965 56.79604 13.455999 63.112L 13.456 78.444L 21.548 78.444L 23.68 104L 39.012001 104M 84.400002 69.968002C 87.196243 80.836777 82.345055 92.228798 72.571487 97.744835C 62.797916 103.260864 50.538128 101.525986 42.678806 93.514725C 34.819481 85.503456 33.319641 73.2127 39.02179 63.546532C 44.723934 53.88036 56.206749 49.248169 67.019997 52.251999M 72.759995 76.192001C 72.759995 83.053581 67.197586 88.615997 60.335999 88.615997C 53.474415 88.615997 47.911999 83.053581 47.911999 76.192001C 47.911999 69.330414 53.474415 63.767998 60.335999 63.767998M 78.260002 57.824001L 61.007999 76.192001M 89.891998 45.608002L 89.879997 32.228001L 77.660004 43.472L 78.260002 57.824001M 89.891998 45.608002L 102.543999 45.608002L 91.300003 57.824001L 78.260002 57.824001"></path></g></g></g><g id="g-root-tx_objetivo_1cw5si3rssah1-stroke" data-item-order="0" transform="translate(118.09600830078125, 417.94189453125)"></g><g id="g-root-ic_anal_7rix7rszabk-stroke" data-item-order="0" transform="translate(355.7540283203125, 416)"><g id="ic_anal_7rix7rszabk-stroke" fill="none" stroke-linecap="round" stroke-linejoin="round" stroke-miterlimit="4" stroke="#ffffff" stroke-width="1" stroke-opacity="1"><g><path d="M 21.274 45.25L 22.024 36.25L 25.774 36.25L 25.774 31C 25.774 26.857864 22.416136 23.5 18.274 23.5C 14.131865 23.5 10.774 26.857864 10.774 31L 10.774 36.25L 14.524 36.25L 15.274 45.25ZM 13.024 16C 13.024 18.899494 15.374505 21.25 18.274 21.25C 21.173496 21.25 23.524 18.899494 23.524 16C 23.524 13.100505 21.173496 10.75 18.274 10.75C 15.374505 10.75 13.024 13.100505 13.024 16ZM 33.273998 10.75L 33.273998 13.75M 26.524 13.75L 43.774002 13.75C 44.602428 13.75 45.274002 14.421573 45.274002 15.25L 45.274002 28.75C 45.274002 29.578428 44.602428 30.25 43.774002 30.25L 28.774 30.25M 28.024 22.948L 29.606501 21.365499C 29.899374 21.072714 30.374126 21.072714 30.667 21.365499L 31.716999 22.415501C 32.009876 22.708286 32.484627 22.708286 32.7775 22.415501L 35.154999 20.049999C 35.447876 19.757214 35.922623 19.757214 36.2155 20.049999L 38.062 21.8965C 38.354874 22.189287 38.829624 22.189287 39.122501 21.8965L 42.290501 18.726999M 33.273998 30.25L 33.273998 37.394501M 33.223 37.358501L 29.524 40M 33.223 37.358501L 36.920502 40"></path></g></g></g><g id="g-root-tx_divulgac_zly8azrszbib-stroke" data-item-order="0" transform="translate(403.5280456542969, 422)"></g><g id="g-root-ic_buil_18kplzfrt22oc-stroke" data-item-order="0" transform="translate(355.7540283203125, 560)"><g id="ic_buil_18kplzfrt22oc-stroke" fill="none" stroke-linecap="round" stroke-linejoin="round" stroke-miterlimit="4" stroke="#ffffff" stroke-width="1" stroke-opacity="1"><g><path d="M 10 10M 36.25 40.66L 30.309999 41.860001M 31 35.185001L 28.224998 36.324997C 27.783945 36.511707 27.286055 36.511707 26.844999 36.324997C 26.194822 36.057869 25.761951 35.434029 25.73929 34.731476C 25.716625 34.028923 26.108391 33.378483 26.740002 33.07L 29.530001 31.719999C 29.872663 31.54141 30.25359 31.448751 30.639999 31.450001C 30.930988 31.456051 31.219332 31.506636 31.494999 31.6L 36.564999 33.549999M 19.75 41.935001L 21.85 41.935001L 25.344999 44.59C 25.706322 45.002533 26.329161 45.055542 26.755001 44.709999L 32.005001 40.494999C 32.428867 40.136986 32.495029 39.508423 32.154999 39.07L 29.275002 35.889999M 26.5 33.189999L 26.139999 32.889999C 25.755741 32.6283 25.299847 32.492054 24.835001 32.5C 24.557745 32.496033 24.28245 32.547012 24.025002 32.650002L 19.75 34.435001M 15.25 42.685001C 15.25 43.099213 15.585787 43.435001 16 43.435001L 18.25 43.435001C 19.078426 43.435001 19.75 42.763428 19.75 41.935001L 19.75 34.435001C 19.75 33.606575 19.078426 32.935001 18.25 32.935001L 16 32.935001C 15.585787 32.935001 15.25 33.270786 15.25 33.685001ZM 40.75 42.685001C 40.75 43.099213 40.414215 43.435001 40 43.435001L 37.75 43.435001C 36.921574 43.435001 36.25 42.763428 36.25 41.935001L 36.25 34.435001C 36.25 33.606575 36.921574 32.935001 37.75 32.935001L 40 32.935001C 40.414215 32.935001 40.75 33.270786 40.75 33.685001ZM 27.25 28.434999L 27.25 11.815001C 27.252434 11.541036 27.401194 11.28929 27.639999 11.155C 27.874908 11.011839 28.170094 11.011839 28.405001 11.155L 37.404999 16.93C 37.61993 17.074406 37.749187 17.316063 37.749996 17.574999L 37.75 28.405001M 36.25 16.225L 36.25 11.185M 27.25 17.934999L 30.25 17.934999M 27.25 22.434999L 31.75 22.434999M 16.75 25.434999L 21.25 25.434999M 27.25 20.934999L 17.5 20.934999C 17.085787 20.934999 16.75 21.270786 16.75 21.684999L 16.75 28.434999"></path></g></g></g><g id="g-root-tx_vinculac_1lqjukrrt24uf-stroke" data-item-order="0" transform="translate(403.5280456542969, 566)"></g><g id="g-root-ic_five_v49ax7rt4weg-stroke" data-item-order="0" transform="translate(355.7540283203125, 728)"><g id="ic_five_v49ax7rt4weg-stroke" fill="none" stroke-linecap="round" stroke-linejoin="round" stroke-miterlimit="4" stroke="#ffffff" stroke-width="1" stroke-opacity="1"><g><path d="M 12.25 22C 12.25 24.071068 13.928932 25.75 16 25.75C 18.071068 25.75 19.75 24.071068 19.75 22C 19.75 19.928932 18.071068 18.25 16 18.25C 13.928932 18.25 12.25 19.928932 12.25 22M 36.25 22C 36.25 24.071068 37.928932 25.75 40 25.75C 42.071068 25.75 43.75 24.071068 43.75 22C 43.75 19.928932 42.071068 18.25 40 18.25C 37.928932 18.25 36.25 19.928932 36.25 22M 34.75 45.25L 34.75 33.208C 30.90044 32.852444 27.626049 30.25271 26.407 26.584L 25.115499 22.712502C 24.905279 22.083797 24.983006 21.394382 25.327936 20.82827C 25.672867 20.262156 26.249893 19.876963 26.905001 19.775501C 28.026772 19.637215 29.086895 20.321024 29.4235 21.4L 30.6775 25.1605C 31.391262 27.301355 33.393299 28.746567 35.650002 28.750002L 42.240997 28.75C 43.897854 28.75 45.240997 30.093145 45.240997 31.75L 45.240997 45.25M 25.6285 24.25L 25.328499 25.1605C 24.612646 27.307642 22.601326 28.754318 20.338001 28.750002L 13.753 28.75C 12.096146 28.75 10.753 30.093145 10.753 31.75L 10.753 45.25M 21.25 45.25L 21.25 33.208C 23.907557 32.962296 26.34775 31.636459 28.000002 29.540501M 27.25 10.75L 27.25 13.75M 33.120998 13.879L 31 16M 21.379 13.879L 23.5 16"></path></g></g></g><g id="g-root-tx_integrac_hyf2bvrt3gub-stroke" data-item-order="0" transform="translate(403.5280456542969, 734)"></g></g></g><path id="w23xq4rt0nph" d="M65.283 12.757a.35.35 0 0 0 .584.157l5.203-5.141-6.183 3.523.396 1.461zm-2.216-11.7a.35.35 0 0 0-.522.305v3.111l3.276-1.868-2.754-1.548zm3.728 2.105l-4.25 2.421v2.445l6.391-3.644-2.141-1.222zm4.708 3.303a.35.35 0 0 0 0-.609l-1.592-.9-7.365 4.199v1.782a.35.35 0 0 0 .523.305l8.435-4.777z M44.542 2.513c0-.433.355-.783.792-.783s.792.35.792.783-.355.783-.792.783-.792-.35-.792-.783zm59.171 0c0-.433.355-.783.792-.783s.792.35.792.783-.355.783-.792.783-.792-.35-.792-.783zm-85.951 7.636h-1.27v-.487c-.276.201-.864.609-1.881.609-1.202 0-2.274-.794-2.137-2.078.118-1.106 1.153-1.584 1.848-1.727l2.17-.345c0-.539-.29-.956-1.064-1.006s-1.21.305-1.571 1.017l-1.124-.605c1.218-2.631 5.029-1.764 5.029.414v4.207zm-1.27-2.86c.006.396-.062 1.112-.819 1.59-.587.37-1.841.299-1.903-.395-.049-.555.461-.791.906-.898l1.816-.297zm72.662 2.86h-1.27v-.487c-.276.201-.864.609-1.881.609-1.202 0-2.274-.794-2.137-2.078.118-1.106 1.153-1.584 1.848-1.727l2.17-.345c0-.539-.29-.956-1.064-1.006s-1.21.305-1.571 1.017l-1.124-.605c1.218-2.631 5.029-1.764 5.029.414v4.207zm-1.27-2.86c.006.396-.062 1.112-.82 1.59-.587.37-1.841.299-1.903-.395-.049-.555.461-.791.906-.898l1.816-.297zM99.096 10.149H97.85v-8.45h1.246v4.895l2.68-2.559h1.738l-2.633 2.535 2.715 3.578h-1.556l-2.077-2.707-.867.844v1.863zm6.053-6.114h-1.255v6.113h1.255V4.035zm-59.2 0h-1.255v6.113h1.255V4.035zm5.584 6.113V1.697h1.255v2.695c.361-.346 1-.485 1.47-.485 1.452 0 2.477 1.082 2.457 2.448v3.792h-1.27v-3.68c0-.408-.214-1.339-1.315-1.339-.968 0-1.342.756-1.342 1.339v3.681h-1.255zm-4.76-4.894V4.039h.621a.45.45 0 0 0 .45-.45v-.855h1.251v1.305h1.309v1.215h-1.309v3.109c0 .293.105.664.648.664.365 0 .531-.035.736-.07v1.137s-.361.113-.857.113c-1.398 0-1.777-1.051-1.777-1.788V5.254h-1.071zM36.528 4.039h-1.394l2.191 6.106h1.125l1.234-3.918 1.238 3.918h1.129l2.188-6.106h-1.383l-1.359 3.93-1.256-3.93h-1.124l-1.242 3.957-1.348-3.957zM26.212 7.141c-.02 1.566 1.187 3.129 3.223 3.129 1.566 0 2.383-.918 2.734-1.719L31.172 8c-.315.399-.801 1.094-1.738 1.094-1.145 0-1.825-.781-1.891-1.52h4.625c.074-.284.148-.995-.03-1.559-.336-1.064-1.221-2.102-2.839-2.102s-3.088 1.152-3.088 3.227zm1.363-.75h3.348c-.055-.43-.566-1.301-1.623-1.301a1.79 1.79 0 0 0-1.725 1.301zm-8.758.75c.038 1.758 1.277 3.133 3.145 3.133 1.074 0 1.723-.477 1.961-.672v.547h1.242V1.703h-1.258v2.888c-.414-.36-1.062-.68-1.93-.68-1.91 0-3.198 1.473-3.16 3.23zm1.309-.08c0 1.119.723 1.978 1.836 1.978a1.88 1.88 0 0 0 1.94-1.904c0-1.371-1.011-1.99-1.972-1.99s-1.805.798-1.805 1.916zm76.683-.028C96.771 5.275 95.532 3.9 93.664 3.9c-1.074 0-1.723.477-1.961.672v-.547h-1.242v8.22h1.258V9.583c.414.36 1.063.68 1.93.68 1.91 0 3.198-1.473 3.16-3.23zm-1.309.08c0-1.119-.723-1.978-1.836-1.978a1.88 1.88 0 0 0-1.94 1.904c0 1.371 1.011 1.99 1.972 1.99S95.5 8.231 95.5 7.113zM106.441 10.173V4.036h1.254v.382c.361-.346 1-.485 1.47-.485 1.452 0 2.477 1.082 2.457 2.448v3.792h-1.27V6.492c0-.408-.214-1.339-1.315-1.339-.969 0-1.342.756-1.342 1.339v3.681h-1.254zm-30.383-.021V1.824h1.084l4.215 5.777V1.824h1.32v8.328h-1.094l-4.207-5.796v5.796h-1.319zM5.24 10.149H4V2.377h1.014l2.664 3.597 2.654-3.592h1.03v7.766h-1.256V4.762L7.678 8.068 5.24 4.742v5.407z" transform="translate(671.989013671875, 1010)" fill="#acacac88" stroke="none"></path></svg>