<?xml version="1.0" standalone="no"?>
<!DOCTYPE svg PUBLIC "-//W3C//DTD SVG 20010904//EN"
 "http://www.w3.org/TR/2001/REC-SVG-20010904/DTD/svg10.dtd">
<svg version="1.0" xmlns="http://www.w3.org/2000/svg"
 width="1792.000000pt" height="576.000000pt" viewBox="0 0 1792.000000 576.000000"
 preserveAspectRatio="xMidYMid meet">

<g transform="translate(0.000000,576.000000) scale(0.100000,-0.100000)"
fill="#000000" stroke="none">
<path d="M0 2880 l0 -2880 8960 0 8960 0 0 2880 0 2880 -8960 0 -8960 0 0
-2880z m13235 2395 l28 -94 80 -3 c77 -3 80 -4 63 -20 -17 -17 -17 -18 1 -18
10 0 25 5 33 10 13 9 13 11 0 20 -11 7 -7 10 18 10 17 0 32 -4 32 -10 0 -10
43 -5 92 10 35 11 40 4 23 -35 -7 -19 -12 -35 -11 -37 9 -11 14 -68 6 -63 -6
4 -11 -12 -12 -37 -2 -59 1 -81 12 -88 4 -3 10 -23 12 -45 l3 -40 83 -29 c45
-16 81 -31 78 -33 -2 -2 -37 -12 -77 -21 l-74 -17 -6 -165 c-7 -198 -6 -185
-24 -170 -13 11 -15 7 -16 -26 -1 -46 -5 -74 -13 -82 -11 -11 -49 -13 -191
-13 l-141 -1 -23 -59 c-12 -32 -27 -59 -31 -59 -5 0 -21 27 -36 61 l-27 60
-141 -2 c-78 -1 -157 1 -176 5 -19 4 -45 9 -57 12 -17 3 -23 11 -23 32 0 15
-5 34 -10 42 -8 12 -10 8 -11 -15 -1 -27 -2 -26 -10 10 -4 22 -8 60 -7 85 l1
45 6 -47 c4 -26 10 -51 15 -55 12 -13 -5 250 -19 279 -8 17 -9 27 -3 25 6 -1
12 3 15 9 3 10 -55 32 -132 49 -29 7 -29 8 38 41 l67 34 0 63 c0 50 4 64 19
74 20 13 23 60 2 55 -8 -2 -11 8 -9 30 2 23 8 32 18 31 10 -2 16 5 17 18 1 12
4 23 6 25 4 4 95 10 200 13 30 1 46 5 42 11 -4 6 -10 8 -15 5 -5 -3 -12 -1
-15 5 -5 8 -11 8 -20 0 -9 -8 -15 -8 -20 0 -10 17 20 23 96 18 44 -2 73 -9 78
-17 10 -15 35 24 92 142 18 37 36 67 39 67 4 0 19 -43 35 -95z m-535 -269 c0
-3 -4 -8 -10 -11 -5 -3 -10 -1 -10 4 0 6 5 11 10 11 6 0 10 -2 10 -4z m2761
-236 c659 0 1189 -4 1189 -9 0 -13 -2404 -1 -2409 12 -2 6 3 8 13 4 10 -4 553
-7 1207 -7z m867 -280 l773 0 -3 -82 -3 -83 -1627 -2 -1628 -1 0 82 c0 46 3
86 7 90 4 4 390 4 858 1 467 -2 1198 -5 1623 -5z m-11979 -170 c229 -38 391
-271 354 -511 -15 -94 -57 -176 -142 -276 -70 -83 -84 -111 -96 -193 -4 -25
-12 -51 -17 -57 -8 -10 -54 -13 -169 -13 -179 0 -171 -4 -184 85 -11 73 -21
94 -73 150 -26 27 -60 66 -75 85 -26 33 -27 34 -33 13 -10 -36 -54 -45 -102
-21 -26 14 -103 -2 -164 -33 -46 -23 -64 -17 -87 30 -11 20 -32 50 -49 67 -43
45 -50 63 -46 113 3 25 5 46 7 47 7 7 163 34 197 34 44 0 104 -21 132 -47 9
-8 24 -13 32 -10 8 3 17 1 20 -6 3 -7 3 16 0 51 -13 133 31 264 121 360 63 68
131 108 218 127 78 17 79 17 156 5z m8369 -38 c2 -7 -3 -12 -10 -12 -8 0 -15
7 -15 15 0 18 19 15 25 -3z m-7150 -184 l3 -38 -75 0 -76 0 0 -145 0 -145 -45
0 c-42 0 -45 2 -46 28 -2 58 -5 120 -7 190 l-2 72 -70 0 -70 0 0 40 0 40 193
-2 192 -3 3 -37z m407 2 l0 -35 -127 -3 -128 -3 0 -34 0 -35 115 0 115 0 0
-34 0 -33 -67 -6 c-38 -4 -89 -7 -115 -7 -47 0 -48 -1 -48 -30 l0 -30 109 0
c60 0 116 -3 125 -6 10 -4 16 -18 16 -40 l0 -34 -150 0 c-147 0 -152 1 -175
25 -24 23 -25 29 -25 155 l0 132 30 29 29 30 148 -3 148 -3 0 -35z m423 -2 l3
-38 -130 0 -131 0 0 -105 0 -105 108 0 c141 0 152 -4 152 -46 l0 -34 -155 0
c-152 0 -156 1 -180 25 -24 23 -25 30 -25 149 0 132 8 167 44 184 12 7 81 10
166 9 l145 -2 3 -37z m172 -33 l0 -76 97 3 97 3 -1 60 c-1 80 2 85 53 85 l44
0 0 -185 0 -185 -45 0 -45 0 0 70 0 70 -100 0 -100 0 0 -70 0 -70 -50 0 -50 0
0 178 c0 98 3 182 7 185 3 4 26 7 50 7 l43 0 0 -75z m546 -37 l114 -112 -1
100 c0 54 0 105 0 112 1 8 17 12 46 12 l45 0 0 -179 c0 -190 0 -191 -49 -191
-9 0 -65 47 -124 105 -60 58 -109 105 -110 105 -1 0 -1 -47 1 -105 l3 -105
-50 0 -51 0 0 173 c0 245 10 250 176 85z m648 83 c25 -24 26 -28 26 -152 0
-70 -3 -135 -6 -144 -14 -35 -58 -45 -199 -45 -131 0 -137 1 -160 25 -24 23
-25 29 -25 155 l0 132 30 30 30 30 139 -4 c132 -3 141 -4 165 -27z m196 -116
l0 -145 108 0 c141 0 152 -4 152 -46 l0 -34 -168 0 c-117 0 -172 4 -180 12 -8
8 -12 64 -12 185 l0 173 50 0 50 0 0 -145z m1018 103 l3 -38 -145 0 -146 0 0
-105 0 -105 100 0 100 0 0 34 c0 34 -1 35 -47 38 -46 3 -48 5 -51 34 -2 19 2
33 10 36 7 2 53 2 102 0 l88 -4 -4 -103 c-2 -57 -7 -107 -12 -112 -4 -4 -152
-7 -329 -6 l-322 3 -28 31 -29 31 4 130 c3 127 3 130 31 153 l27 24 323 -2
322 -2 3 -37z m182 -143 l0 -185 -45 0 -45 0 -1 88 c-1 48 -3 123 -5 167 -4
110 -2 115 52 115 l44 0 0 -185z m438 143 l3 -38 -130 0 -131 0 0 -105 0 -105
108 0 c141 0 152 -4 152 -46 l0 -34 -155 0 c-152 0 -156 1 -180 25 -24 23 -25
29 -25 158 0 187 1 188 210 184 l145 -2 3 -37z m405 30 c43 -23 46 -36 47
-200 l0 -158 -49 0 -49 0 1 70 c2 50 -2 71 -11 75 -8 3 -49 5 -93 5 l-79 0 0
-75 0 -75 -50 0 -50 0 0 150 c0 157 7 191 44 208 30 15 262 15 289 0z m229
-135 l3 -148 128 -3 127 -3 0 -34 0 -35 -174 0 c-149 0 -175 2 -180 16 -3 9
-6 92 -6 185 l0 169 50 0 49 0 3 -147z m928 107 l0 -40 -70 0 c-68 0 -77 -4
-70 -35 1 -5 -1 -65 -5 -132 l-7 -123 -44 0 -44 0 0 145 0 144 -72 3 c-68 3
-73 5 -76 26 -8 52 -6 52 198 52 l190 0 0 -40z m426 7 c23 -26 24 -35 24 -153
0 -125 0 -126 -29 -155 l-29 -29 -142 0 c-136 0 -142 1 -165 25 -24 23 -25 29
-25 159 l0 134 32 27 c31 26 32 26 171 23 138 -3 139 -3 163 -31z m194 -112
l0 -145 95 0 95 0 0 145 0 145 50 0 50 0 0 -150 c0 -160 -7 -191 -47 -209 -13
-6 -80 -11 -153 -11 -122 0 -130 1 -157 24 l-28 24 -3 161 -3 161 50 0 51 0 0
-145z m725 105 l0 -35 -132 -3 -133 -3 0 -104 0 -105 130 0 130 0 0 -40 0 -40
-151 0 -151 0 -29 29 c-29 29 -29 30 -29 153 0 132 8 160 54 178 11 5 86 8
166 7 l145 -2 0 -35z m165 -35 l0 -75 100 0 100 0 0 75 0 75 50 0 50 0 0 -63
c0 -35 -3 -119 -7 -185 l-6 -122 -44 0 -43 0 0 69 c0 81 0 81 -100 81 -100 0
-100 0 -100 -81 l0 -69 -45 0 c-44 0 -45 1 -45 33 -1 17 -3 94 -7 169 -3 75
-3 144 0 153 5 10 20 15 52 15 l45 0 0 -75z m-9272 -292 c-2 -10 -13 -19 -26
-21 -17 -3 -22 2 -22 17 0 16 6 21 26 21 19 0 25 -5 22 -17z m72 -282 c0 -14
-18 -23 -30 -16 -6 4 -8 11 -5 16 8 12 35 12 35 0z m-1240 -76 c0 -8 -4 -15
-10 -15 -5 0 -10 7 -10 15 0 8 5 15 10 15 6 0 10 -7 10 -15z m2219 -189 c6 -7
9 -21 5 -30 -5 -14 -28 -16 -170 -16 -137 0 -166 3 -170 15 -4 8 -4 22 0 30 8
21 317 22 335 1z m-11 -88 c7 -7 8 -17 1 -30 -9 -16 -24 -18 -153 -18 -115 0
-146 3 -156 15 -7 8 -10 22 -6 30 4 12 31 15 154 15 98 0 152 -4 160 -12z
m-72 -89 c14 -24 -23 -41 -86 -40 -70 1 -80 5 -80 32 0 17 7 19 79 19 47 0 83
-5 87 -11z m-2866 -69 c0 -5 -2 -10 -4 -10 -3 0 -8 5 -11 10 -3 6 -1 10 4 10
6 0 11 -4 11 -10z m-1270 -39 c0 -6 -4 -13 -10 -16 -5 -3 -10 1 -10 9 0 9 5
16 10 16 6 0 10 -4 10 -9z m3322 -86 c0 -5 -5 -11 -11 -13 -6 -2 -11 4 -11 13
0 9 5 15 11 13 6 -2 11 -8 11 -13z m7947 -11 c19 -16 31 -35 31 -50 0 -13 9
-33 20 -44 17 -17 20 -33 20 -102 0 -112 -6 -118 -126 -118 -121 0 -124 3
-124 119 0 64 4 92 14 100 8 7 17 27 20 45 14 72 89 98 145 50z m789 -106 c-2
-15 -11 -24 -26 -26 -19 -3 -23 0 -20 15 2 10 11 17 21 17 9 -1 14 2 11 7 -3
5 0 9 6 9 6 0 10 -10 8 -22z m277 -71 c22 -17 12 -37 -19 -37 -12 0 -26 -3
-29 -7 -12 -12 25 -43 64 -53 40 -11 73 -50 50 -58 -7 -2 -21 -13 -31 -24 -18
-20 -18 -21 6 -65 l24 -46 -62 7 c-51 5 -76 15 -137 54 -80 50 -106 83 -116
147 -5 31 -3 45 12 62 15 19 24 20 58 13 22 -4 34 -8 27 -9 -31 -3 3 -21 39
-21 21 0 39 5 39 10 0 6 -6 10 -12 11 -14 1 41 28 58 29 5 0 18 -6 29 -13z
m371 -64 c-5 -12 -10 -13 -18 -5 -8 8 -8 15 3 28 15 18 25 4 15 -23z m-946
-90 c0 -22 -29 -27 -50 -8 -20 18 -20 17 -20 -98 l0 -117 58 -1 c31 0 75 -3
97 -7 l40 -7 5 -115 c4 -99 7 -115 23 -118 11 -2 17 3 17 15 0 10 9 31 19 47
15 22 17 35 10 53 -11 31 -3 67 22 89 22 20 27 92 7 99 -7 3 -49 6 -93 8 -73
2 -80 4 -80 22 0 19 8 20 102 23 99 3 101 2 122 -24 13 -17 21 -41 21 -66 0
-30 6 -45 24 -59 29 -23 39 -59 26 -95 -8 -20 -7 -31 4 -43 8 -9 16 -27 18
-41 2 -21 9 -26 39 -28 l37 -3 5 -62 c4 -34 4 -93 2 -132 -2 -38 -4 -76 -4
-83 -1 -10 -115 -12 -553 -10 l-553 3 0 165 0 165 43 3 c36 3 42 6 42 25 0 12
7 31 16 42 10 14 13 32 8 62 -6 38 -3 45 25 73 17 18 31 40 31 50 0 10 12 28
26 39 23 18 41 21 116 21 71 0 90 -3 95 -15 9 -24 1 -26 -88 -29 -65 -2 -84
-6 -95 -21 -12 -15 -9 -21 16 -45 30 -28 40 -76 20 -96 -6 -6 -1 -26 13 -56
17 -36 27 -48 44 -48 21 0 22 5 25 93 l3 92 95 5 95 5 3 113 c3 109 -3 128
-28 98 -13 -17 -40 -10 -40 9 0 7 21 36 47 65 l46 51 49 -47 c26 -27 48 -54
48 -61z m-2801 71 c-26 -29 -65 -47 -80 -38 -5 3 0 19 11 35 17 23 29 29 57
29 l36 0 -24 -26z m-6889 -18 c0 -11 -19 -15 -25 -6 -3 5 1 10 9 10 9 0 16 -2
16 -4z m-500 -36 c0 -5 -4 -10 -10 -10 -5 0 -10 5 -10 10 0 6 5 10 10 10 6 0
10 -4 10 -10z m6275 -78 c28 -39 52 -71 55 -71 3 0 20 22 38 49 53 77 77 99
101 93 20 -5 21 -11 21 -144 l0 -139 -32 0 -33 0 3 80 c2 44 0 80 -5 80 -5 0
-16 -12 -25 -27 -9 -16 -29 -43 -45 -62 l-29 -33 -44 63 -45 64 -3 -82 -3 -83
-29 0 -30 0 0 139 c0 125 2 140 18 144 29 8 35 3 87 -71z m1530 -67 l0 -140
-25 -3 c-21 -2 -40 13 -105 84 l-80 88 -7 -45 c-3 -24 -7 -63 -7 -86 -1 -41
-2 -43 -31 -43 l-30 0 0 140 0 140 29 0 c24 0 44 -16 110 -86 l81 -87 0 85 c0
47 3 88 7 92 4 4 19 6 33 4 l25 -3 0 -140z m1025 110 c0 -16 -26 -47 -92 -106
l-91 -84 94 -5 c94 -5 94 -5 97 -32 l3 -28 -145 0 -146 0 0 29 c0 24 16 44 88
110 l87 80 -77 1 c-93 0 -108 5 -108 36 0 23 0 23 138 26 75 2 140 2 145 0 4
-2 7 -14 7 -27z m-3892 -2 l-3 -28 -112 -3 c-113 -3 -113 -3 -113 -27 0 -25 1
-25 92 -25 80 0 95 -3 115 -22 31 -29 32 -99 3 -128 -18 -18 -33 -20 -151 -20
l-130 0 3 28 3 27 115 5 c108 5 115 6 118 27 3 20 -1 21 -98 25 -93 3 -103 5
-121 27 -23 28 -25 88 -3 119 14 21 22 22 150 22 l135 0 -3 -27z m350 0 l-3
-28 -112 -3 c-112 -3 -113 -3 -113 -27 0 -24 1 -24 113 -27 l112 -3 0 -25 0
-25 -112 -3 c-112 -3 -113 -3 -113 -27 0 -24 1 -24 113 -27 l112 -3 3 -27 3
-28 -130 0 c-171 0 -171 0 -171 142 0 141 -3 138 167 138 l134 0 -3 -27z m324
10 c15 -14 18 -32 18 -120 0 -144 0 -144 -167 -141 l-127 3 1 135 c1 74 2 136
2 138 1 1 58 2 128 2 104 0 130 -3 145 -17z m358 -13 l0 -30 -115 0 -115 0 0
-25 0 -25 115 0 115 0 0 -30 0 -30 -115 0 -115 0 0 -25 0 -25 115 0 115 0 0
-30 0 -30 -129 0 c-104 0 -133 3 -145 16 -20 20 -23 233 -4 252 8 8 55 12 145
12 l133 0 0 -30z m860 0 l0 -30 -116 0 c-114 0 -115 0 -112 -22 3 -22 7 -23
116 -26 l112 -3 0 -29 0 -29 -112 -3 c-109 -3 -113 -4 -116 -25 -3 -23 -2 -23
112 -23 l116 0 0 -30 0 -30 -127 0 c-166 0 -163 -3 -163 145 0 73 4 115 12
123 8 8 55 12 145 12 l133 0 0 -30z m110 -80 l0 -110 105 0 105 0 0 -30 0 -30
-140 0 -140 0 0 140 0 140 35 0 35 0 0 -110z m530 80 l0 -30 -108 0 c-60 0
-111 -3 -114 -6 -3 -3 -4 -14 -1 -25 5 -17 15 -19 114 -19 l109 0 0 -30 0 -29
-112 -3 c-105 -3 -113 -4 -113 -23 0 -19 8 -20 113 -23 l112 -3 0 -29 0 -30
-127 0 c-166 0 -163 -3 -163 141 0 143 -5 139 161 139 l129 0 0 -30z m662 13
c15 -14 18 -32 18 -124 0 -140 1 -139 -167 -139 l-123 0 0 140 0 140 127 0
c104 0 130 -3 145 -17z m358 -13 l0 -30 -110 0 -110 0 0 -25 0 -25 110 0 110
0 0 -30 0 -30 -110 0 -110 0 0 -25 0 -25 110 0 110 0 0 -30 0 -30 -123 0
c-168 0 -167 -1 -167 137 0 146 -3 143 162 143 l128 0 0 -30z m2020 -35 c16
-19 9 -45 -16 -62 -19 -12 -23 -11 -38 12 -15 23 -15 26 4 45 24 24 33 25 50
5z m-8440 -5 c0 -5 -9 -10 -20 -10 -11 0 -20 5 -20 10 0 6 9 10 20 10 11 0 20
-4 20 -10z m93 3 c-7 -2 -19 -2 -25 0 -7 3 -2 5 12 5 14 0 19 -2 13 -5z m1790
-198 c-3 -283 -4 -321 -10 -307 -2 6 -13 12 -22 12 -10 0 -21 3 -25 7 -13 13
-58 14 -74 1 -9 -8 -13 -8 -9 -2 8 14 -17 26 -37 18 -9 -3 -15 7 -19 33 -9 52
-9 408 0 417 4 4 50 5 103 4 l95 -3 -2 -180z m6757 121 c0 -2 -9 -2 -20 1 -11
3 -20 9 -20 15 0 5 9 4 20 -2 11 -6 20 -12 20 -14z m78 -128 c16 -16 15 -53
-2 -68 -42 -34 -94 22 -56 60 23 23 41 25 58 8z m-12513 -158 c3 -5 1 -10 -4
-10 -6 0 -11 5 -11 10 0 6 2 10 4 10 3 0 8 -4 11 -10z m12869 1 c3 -5 0 -11
-8 -14 -15 -6 -26 1 -26 15 0 11 27 10 34 -1z m-6440 -43 c12 -17 16 -50 16
-140 l0 -118 -35 0 -35 0 0 110 c0 103 -1 110 -20 110 -11 0 -20 3 -20 8 0 4
-3 17 -6 30 -6 20 -3 22 39 22 36 0 49 -5 61 -22z m296 2 c29 -29 27 -101 -2
-134 -22 -24 -26 -24 -131 -19 -89 5 -107 8 -103 20 3 8 6 21 6 29 0 11 19 14
89 14 89 0 105 6 93 38 -3 8 -33 12 -102 12 -90 0 -99 2 -105 20 -3 11 -3 24
0 30 4 6 54 10 121 10 101 0 116 -2 134 -20z m480 0 c17 -17 20 -33 20 -119 0
-141 0 -141 -160 -144 l-125 -2 -3 143 -3 142 126 0 c112 0 127 -2 145 -20z
m360 -10 l0 -30 -115 0 -115 0 0 -25 0 -25 110 0 110 0 0 -30 0 -30 -111 0
-110 0 3 -27 3 -28 108 -3 c106 -3 107 -3 107 -27 0 -25 -1 -25 -102 -27 -188
-3 -188 -3 -188 141 0 53 4 101 8 107 18 26 53 33 170 34 l122 0 0 -30z m322
-62 l87 -93 1 93 0 92 30 0 30 0 0 -140 0 -140 -27 0 c-22 0 -44 17 -101 80
-40 44 -78 80 -83 80 -5 0 -9 -36 -9 -80 l0 -80 -29 0 c-28 0 -28 1 -35 75 -6
66 -2 157 9 193 10 29 46 7 127 -80z m466 76 c20 -14 22 -23 22 -120 0 -58 -5
-114 -10 -125 -10 -17 -22 -19 -133 -19 -82 0 -127 4 -135 12 -8 8 -12 50 -12
124 0 143 1 144 145 144 75 0 106 -4 123 -16z m167 -85 l49 -102 50 102 c49
97 52 101 83 101 18 0 33 -2 33 -5 0 -3 -30 -66 -67 -140 -65 -129 -69 -135
-98 -135 -29 0 -33 6 -98 135 -37 74 -67 137 -67 140 0 3 15 5 33 5 33 0 35
-3 82 -101z m315 -39 l0 -140 -35 0 -35 0 0 133 c0 74 3 137 7 140 3 4 19 7
35 7 l28 0 0 -140z m340 110 l0 -30 -115 0 -115 0 0 -25 0 -25 115 0 115 0 0
-30 0 -30 -116 0 -115 0 3 -27 3 -28 113 -3 c112 -3 112 -3 112 -27 l0 -25
-132 0 c-171 0 -168 -2 -168 137 0 143 0 143 170 143 l130 0 0 -30z m316 16
c17 -13 19 -29 22 -140 l4 -126 -36 0 -36 0 0 110 0 110 -25 0 -25 0 0 -110 0
-110 -30 0 -30 0 0 110 0 110 -25 0 -25 0 0 -110 0 -110 -35 0 -35 0 0 124 c0
118 1 126 22 140 31 22 225 23 254 2z m334 -6 c14 -14 20 -33 20 -68 0 -54
-16 -76 -63 -87 l-28 -7 22 -24 c13 -14 34 -24 51 -24 23 0 28 -4 28 -25 0
-23 -3 -25 -48 -25 -45 0 -51 4 -102 55 -30 30 -60 55 -67 55 -7 0 -13 -19
-15 -52 -3 -52 -4 -53 -35 -56 l-33 -3 0 140 0 141 125 0 c112 0 127 -2 145
-20z m350 -10 l0 -30 -110 0 -110 0 0 -25 c0 -24 1 -24 108 -27 l107 -3 3 -27
3 -28 -111 0 -111 0 3 -27 3 -28 108 -3 c106 -3 107 -3 107 -27 l0 -25 -127 0
c-166 0 -163 -3 -163 141 0 140 -1 139 167 139 l123 0 0 -30z m-5190 -415 l0
-245 -99 0 -99 0 -5 33 c-7 48 -9 436 -2 447 3 6 51 10 106 10 l99 0 0 -245z
m1760 190 l0 -25 -135 0 -135 0 0 25 0 25 135 0 135 0 0 -25z m6140 -35 c0 -5
-7 -10 -15 -10 -8 0 -15 5 -15 10 0 6 7 10 15 10 8 0 15 -4 15 -10z m-7700
-131 c0 -16 -31 -22 -43 -10 -9 9 -9 14 2 20 16 10 41 4 41 -10z m5140 -33 c0
-3 -4 -8 -10 -11 -5 -3 -10 -1 -10 4 0 6 5 11 10 11 6 0 10 -2 10 -4z m5970
-6 c0 -5 -4 -10 -10 -10 -5 0 -10 5 -10 10 0 6 5 10 10 10 6 0 10 -4 10 -10z
m-11650 -160 l0 -70 -105 0 -105 0 0 70 0 70 105 0 105 0 0 -70z m7638 -632
c6 -13 11 -17 11 -10 1 8 17 12 46 12 39 0 45 -3 51 -25 15 -59 -16 -93 -70
-79 -22 5 -26 12 -26 40 0 19 -4 34 -10 34 -5 0 -10 -4 -10 -9 0 -6 -21 -13
-46 -17 -38 -5 -45 -10 -41 -25 3 -12 0 -19 -9 -19 -10 0 -14 15 -14 60 l0 60
53 0 c46 0 56 -3 65 -22z m977 12 c-3 -5 -24 -10 -46 -10 -28 0 -39 -4 -39
-15 0 -10 11 -15 35 -15 44 0 46 -18 3 -22 -45 -4 -49 -28 -4 -28 19 0 38 -4
41 -10 6 -10 1 -12 -40 -12 -56 0 -55 -1 -55 62 l0 60 56 0 c34 0 53 -4 49
-10z m-427 -18 c2 -7 -5 -12 -16 -12 -15 0 -19 -7 -18 -37 1 -53 -18 -58 -22
-5 -2 28 -8 42 -18 42 -14 0 -19 12 -9 22 10 10 79 2 83 -10z m110 1 c2 -9 -8
-13 -32 -13 -20 0 -36 -4 -36 -10 0 -5 16 -10 35 -10 19 0 35 -4 35 -10 0 -5
-16 -10 -35 -10 -24 0 -35 -5 -35 -15 0 -10 11 -15 35 -15 19 0 35 -5 35 -11
0 -6 -19 -9 -47 -7 l-48 3 -3 49 c-2 32 1 52 10 58 19 12 81 5 86 -9z m100 0
c2 -9 -8 -13 -32 -13 -20 0 -36 -4 -36 -10 0 -5 15 -10 34 -10 26 0 36 -5 41
-20 4 -12 1 -27 -5 -35 -14 -17 -90 -21 -90 -5 0 6 16 10 35 10 19 0 35 4 35
9 0 5 -16 12 -35 15 -30 6 -35 11 -35 36 0 15 6 31 13 34 21 9 70 2 75 -11z
m300 7 c6 0 12 -4 12 -10 0 -5 -16 -10 -35 -10 -19 0 -35 -4 -35 -10 0 -5 13
-10 28 -10 30 0 52 -16 52 -37 0 -19 -44 -37 -74 -29 -32 8 -34 28 -3 26 37
-3 49 -1 42 10 -3 6 -19 10 -35 10 -34 0 -44 20 -23 50 11 15 22 20 37 16 11
-3 27 -6 34 -6z m120 -8 c2 -7 -6 -12 -17 -12 -18 0 -21 -6 -21 -40 0 -22 -4
-40 -10 -40 -5 0 -10 18 -10 40 0 29 -4 40 -15 40 -29 0 -15 19 18 23 42 5 50
3 55 -11z m218 -3 c17 -14 18 -75 2 -85 -7 -5 -30 -9 -50 -10 l-38 -2 0 59 0
59 36 -5 c20 -2 42 -10 50 -16z m274 -34 c0 -66 -15 -72 -54 -22 l-26 32 0
-32 c0 -18 -4 -33 -10 -33 -5 0 -10 23 -10 50 0 28 3 50 7 50 4 0 22 -14 40
-32 l33 -32 0 37 c0 20 5 37 10 37 6 0 10 -25 10 -55z m107 38 c3 -8 -4 -13
-16 -13 -16 0 -20 -7 -23 -42 -2 -24 -7 -43 -13 -43 -5 0 -11 19 -13 43 -2 28
-8 42 -18 42 -16 0 -19 17 -3 22 25 8 83 2 86 -9z m103 2 c0 -10 -11 -15 -35
-15 -19 0 -35 -4 -35 -10 0 -5 16 -10 35 -10 19 0 35 -4 35 -10 0 -5 -16 -10
-35 -10 -24 0 -35 -5 -35 -15 0 -10 11 -15 35 -15 19 0 35 -4 35 -10 0 -5 -20
-10 -45 -10 l-45 0 0 53 c0 30 3 57 7 60 3 4 24 7 45 7 27 0 38 -4 38 -15z
m108 -2 c2 -9 -8 -13 -32 -13 -45 0 -48 -18 -3 -22 26 -2 33 -8 35 -30 3 -24
-1 -28 -32 -33 -19 -4 -43 -2 -53 4 -16 9 -15 10 9 11 14 0 35 3 45 7 14 6 10
10 -22 19 -45 12 -58 40 -29 61 22 16 76 13 82 -4z m-1817 -25 l28 -33 1 33
c0 17 5 32 10 32 6 0 10 -25 10 -55 0 -30 -4 -55 -9 -55 -5 0 -23 17 -40 38
l-30 37 -1 -32 c0 -18 -4 -33 -10 -33 -5 0 -10 23 -10 50 0 59 12 63 51 18z
m159 22 c0 -5 -16 -10 -35 -10 -19 0 -35 -4 -35 -10 0 -5 16 -10 36 -10 45 0
42 -24 -4 -28 -43 -4 -41 -22 3 -22 19 0 35 -4 35 -10 0 -5 -20 -10 -45 -10
l-45 0 0 55 0 55 45 0 c25 0 45 -4 45 -10z m60 -22 l29 -33 1 33 c0 20 5 32
14 32 10 0 12 -12 9 -47 -7 -70 -7 -70 -39 -34 l-29 33 -5 -28 c-8 -47 -25
-33 -28 24 -4 61 6 65 48 20z m830 -8 c0 -36 3 -40 25 -40 23 0 25 4 25 40 0
22 5 40 10 40 6 0 10 -22 10 -49 0 -50 -9 -61 -48 -61 -33 0 -47 18 -48 65 -1
32 2 45 12 45 10 0 14 -13 14 -40z m230 -9 c0 -47 -12 -72 -24 -52 -8 13 5
101 15 101 5 0 9 -22 9 -49z m108 0 c4 -48 -12 -77 -23 -42 -8 27 -41 27 -48
0 -3 -12 -10 -18 -16 -14 -12 7 -15 88 -4 99 4 4 25 6 48 4 40 -3 40 -3 43
-47z m3457 0 c16 -74 120 -178 198 -197 35 -8 35 -21 -2 -29 -73 -16 -179
-122 -197 -197 -8 -36 -21 -36 -29 1 -16 74 -120 178 -197 197 -36 8 -36 21 1
29 74 16 178 120 197 198 8 35 21 35 29 -2z m-4215 9 c0 -5 -4 -10 -10 -10 -5
0 -10 5 -10 10 0 6 5 10 10 10 6 0 10 -4 10 -10z m0 -50 c0 -5 -4 -10 -10 -10
-5 0 -10 5 -10 10 0 6 5 10 10 10 6 0 10 -4 10 -10z m1287 -84 c-4 -9 2 -17
14 -21 15 -5 19 -16 19 -55 0 -43 -3 -48 -26 -54 -37 -10 -61 1 -68 30 -8 32
-1 57 27 89 24 27 42 33 34 11z m-11602 -26 c-18 -20 -17 -20 12 -20 37 0 43
-12 43 -90 0 -50 -3 -61 -21 -71 -29 -15 -128 -7 -140 12 -5 8 -9 37 -9 66 0
58 17 83 56 83 13 0 23 3 23 8 -4 23 4 32 28 32 25 0 26 0 8 -20z m-1663 -15
c9 -21 8 -28 -7 -45 -25 -27 -53 -25 -67 5 -9 21 -8 28 7 45 25 27 53 25 67
-5z m11006 8 c2 -9 -8 -13 -32 -13 -44 0 -48 -18 -5 -22 71 -7 59 -68 -13 -68
-49 0 -47 22 3 31 34 6 27 14 -16 21 -24 4 -33 46 -13 59 18 13 71 7 76 -8z
m110 0 c2 -9 -8 -13 -32 -13 -20 0 -36 -4 -36 -10 0 -5 16 -10 35 -10 19 0 35
-4 35 -10 0 -5 -16 -10 -35 -10 -46 0 -45 -18 0 -22 50 -4 44 -23 -7 -23 l-43
0 -3 44 c-5 63 2 73 45 69 20 -2 38 -9 41 -15z m410 -1 c2 -8 -9 -12 -37 -12
-23 0 -41 -4 -41 -10 0 -5 18 -10 40 -10 22 0 40 -4 40 -10 0 -5 -18 -10 -40
-10 -41 0 -57 -19 -17 -21 44 -2 50 -4 54 -16 3 -9 -10 -13 -46 -13 l-51 0 0
53 c0 30 3 57 7 61 11 11 86 2 91 -12z m110 6 c17 -17 15 -45 -4 -56 -14 -8
-14 -10 0 -21 20 -17 20 -31 1 -31 -8 0 -22 11 -31 25 -20 30 -32 32 -36 5 -2
-12 -7 -22 -13 -23 -11 -2 -20 77 -11 99 7 17 77 19 94 2z m124 -12 c12 -18 9
-61 -5 -80 -20 -28 -79 -18 -91 15 -13 38 0 77 27 82 28 5 60 -2 69 -17z m112
3 c-3 -5 -18 -9 -35 -9 -16 0 -29 -4 -29 -10 0 -5 13 -10 29 -10 38 0 56 -22
41 -49 -8 -17 -20 -21 -56 -21 -32 0 -44 4 -41 13 2 7 16 11 34 9 40 -4 53 15
16 24 -49 10 -53 13 -53 34 0 12 9 24 21 28 26 10 81 3 73 -9z m790 15 c30
-11 16 -24 -26 -24 -47 0 -42 -16 7 -22 26 -3 30 -7 30 -33 l0 -30 -95 0 -95
0 -3 53 -3 52 45 0 c26 0 46 -4 46 -10 0 -5 -16 -10 -35 -10 -19 0 -35 -4 -35
-10 0 -5 16 -10 35 -10 19 0 35 -4 35 -10 0 -5 -16 -10 -35 -10 -34 0 -48 -13
-22 -22 6 -3 40 -5 75 -4 66 1 85 18 30 26 -22 3 -34 11 -36 24 -7 33 41 56
82 40z m116 -9 c0 -8 -7 -15 -15 -15 -11 0 -15 -11 -15 -40 0 -22 -4 -40 -10
-40 -5 0 -10 18 -10 40 0 33 -3 40 -20 40 -20 0 -26 11 -13 23 3 4 24 7 45 7
27 0 38 -4 38 -15z m38 -51 c-2 -27 -7 -48 -13 -46 -10 2 -17 90 -8 105 12 20
24 -14 21 -59z m372 6 c0 -33 -4 -60 -10 -60 -6 0 -10 27 -10 60 0 33 4 60 10
60 6 0 10 -27 10 -60z m-2012 18 l20 -31 16 31 c26 50 46 42 46 -18 0 -56 -17
-68 -23 -17 l-3 32 -14 -34 -13 -34 -24 29 -23 29 0 -32 c0 -18 -4 -33 -10
-33 -5 0 -10 25 -10 55 0 30 4 55 9 55 5 0 18 -14 29 -32z m122 -18 c0 -27 -4
-50 -10 -50 -5 0 -10 23 -10 50 0 28 5 50 10 50 6 0 10 -22 10 -50z m48 8 c-3
-42 -2 -43 30 -46 48 -5 39 -24 -10 -20 l-43 3 -3 53 c-3 43 0 52 13 52 13 0
16 -9 13 -42z m696 26 c10 -26 7 -69 -6 -82 -13 -13 -84 -17 -91 -4 -2 4 -2
28 1 55 l4 47 43 0 c30 0 45 -5 49 -16z m111 6 c-3 -5 -19 -10 -36 -10 -16 0
-29 -4 -29 -10 0 -5 13 -10 29 -10 17 0 33 -4 36 -10 4 -6 -8 -10 -29 -10 -45
0 -48 -18 -4 -22 17 -2 33 -9 36 -16 3 -10 -8 -12 -44 -10 -49 3 -49 3 -52 42
-5 58 1 66 53 66 28 0 44 -4 40 -10z m83 -40 c-4 -67 -22 -69 -26 -2 -2 42 0
52 13 52 13 0 15 -10 13 -50z m66 18 l26 -33 0 33 c0 17 5 32 10 32 6 0 10
-22 10 -50 0 -56 -10 -62 -42 -25 -12 14 -25 25 -30 25 -4 0 -8 -11 -8 -25 0
-14 -4 -25 -10 -25 -5 0 -10 23 -10 50 0 60 16 66 54 18z m92 0 c15 -30 18
-31 28 -15 22 37 34 52 39 47 7 -7 -34 -110 -44 -110 -8 0 -59 91 -59 105 0
17 22 0 36 -27z m534 23 c0 -6 -17 -11 -37 -13 -33 -3 -38 -7 -41 -29 -2 -19
2 -28 16 -31 26 -7 50 7 28 15 -25 10 -19 27 10 27 23 0 25 -3 22 -32 -3 -29
-7 -33 -36 -36 -18 -2 -40 2 -48 9 -14 12 -20 80 -7 92 10 11 93 8 93 -2z
m106 -5 c3 -7 3 -33 1 -57 -3 -36 -5 -40 -11 -21 -11 29 -56 31 -56 2 0 -33
-18 -23 -21 13 -8 66 -1 77 42 77 25 0 42 -5 45 -14z m109 4 c-3 -5 -20 -10
-36 -10 -28 0 -30 -2 -27 -32 3 -29 7 -33 36 -36 48 -5 39 -24 -10 -20 -37 3
-43 7 -50 33 -4 16 -5 39 -2 52 5 20 13 23 51 23 27 0 42 -4 38 -10z m219 -21
l26 -31 0 31 c0 17 5 31 10 31 6 0 10 -25 10 -55 0 -62 -11 -65 -47 -12 l-23
32 0 -32 c0 -18 -4 -35 -10 -38 -6 -4 -10 10 -10 34 0 21 -3 46 -6 55 -11 28
23 18 50 -15z m214 -18 c4 -48 -6 -61 -48 -61 -36 0 -50 18 -50 60 0 47 6 52
55 48 40 -3 40 -3 43 -47z m-14065 12 c3 -10 5 -44 6 -75 1 -70 -13 -80 -97
-76 -43 2 -57 7 -57 18 0 11 14 16 58 18 42 2 57 7 57 17 0 11 -12 15 -41 15
-33 0 -40 3 -37 18 2 12 14 18 41 20 24 2 37 8 37 18 0 10 -14 14 -55 14 -42
0 -55 3 -55 15 0 12 14 15 69 15 58 0 70 -3 74 -17z m187 3 c0 -11 -15 -16
-52 -18 -64 -4 -80 -28 -18 -28 60 0 80 -14 80 -55 0 -25 -6 -37 -21 -46 -28
-14 -118 -6 -130 12 -15 25 -10 111 8 131 21 24 133 27 133 4z m188 2 c18 -18
15 -118 -5 -140 -17 -19 -56 -23 -112 -12 l-31 7 0 72 c0 39 3 75 7 78 11 12
128 8 141 -5z m430 -68 c-4 -107 -22 -108 -26 -2 -2 69 0 82 13 82 13 0 15
-13 13 -80z m103 35 c23 -25 45 -45 50 -45 5 0 9 20 9 45 0 63 25 61 34 -1 17
-128 1 -143 -76 -67 l-48 47 0 -47 c0 -40 -3 -47 -20 -47 -18 0 -20 7 -20 80
0 96 10 101 71 35z m199 -7 l49 -53 1 53 c0 45 3 52 20 52 18 0 20 -7 20 -80
0 -98 -11 -103 -82 -33 l-48 47 0 -47 c0 -40 -3 -47 -20 -47 -18 0 -20 7 -20
80 0 99 10 102 80 28z m268 40 c7 -7 12 -39 12 -75 0 -57 -2 -64 -23 -72 -27
-10 -116 -3 -134 11 -17 14 -15 115 3 133 19 18 124 21 142 3z m96 -45 l29
-58 26 57 c20 45 31 57 49 58 22 0 21 -2 -18 -79 -42 -84 -50 -94 -67 -83 -10
6 -83 145 -83 157 0 3 8 5 18 5 12 0 28 -20 46 -57z m284 45 c7 -7 12 -42 12
-86 0 -65 -2 -73 -17 -70 -12 2 -19 14 -21 36 -4 35 -4 35 -50 26 -24 -5 -32
-12 -34 -33 -2 -15 -10 -27 -20 -29 -16 -3 -18 6 -18 72 0 61 3 77 18 85 24
14 115 14 130 -1z m192 -8 c0 -18 -7 -20 -61 -20 l-60 0 3 -42 3 -43 63 -3
c53 -3 63 -6 60 -20 -3 -13 -16 -18 -63 -20 -81 -4 -93 7 -97 86 -3 76 3 82
90 82 55 0 62 -2 62 -20z m68 -62 c-2 -66 -6 -83 -18 -83 -12 0 -16 17 -18 83
-3 77 -2 82 18 82 20 0 21 -5 18 -82z m292 36 l45 -45 5 43 c4 30 10 44 23 46
15 3 17 -6 17 -77 0 -45 -5 -83 -11 -86 -5 -4 -33 16 -61 44 -28 28 -52 51
-54 51 -2 0 -4 -20 -4 -45 0 -38 -3 -45 -20 -45 -17 0 -20 7 -20 49 0 65 10
111 24 111 7 0 32 -20 56 -46z m280 -19 l0 -65 55 0 c49 0 55 -2 55 -20 0 -19
-5 -21 -72 -18 l-73 3 -3 83 c-3 77 -2 82 18 82 18 0 20 -6 20 -65z m170 -15
c0 -73 -2 -80 -20 -80 -18 0 -20 7 -20 80 0 73 2 80 20 80 18 0 20 -7 20 -80z
m163 67 c13 -9 18 -28 19 -71 2 -74 -11 -86 -99 -86 l-63 0 0 85 0 85 63 0
c35 0 71 -6 80 -13z m207 -2 c0 -10 -16 -15 -62 -17 -38 -2 -63 -8 -66 -15 -3
-10 12 -13 52 -13 49 0 56 -2 56 -20 0 -18 -7 -20 -55 -20 -42 0 -55 -3 -55
-15 0 -12 14 -15 65 -15 58 0 65 -2 65 -20 0 -18 -7 -20 -79 -20 -91 0 -89 -4
-83 108 l4 62 79 0 c62 0 79 -3 79 -15z m169 1 c7 -8 11 -29 9 -47 -2 -26 -9
-35 -28 -39 l-25 -6 32 -24 c18 -13 30 -27 27 -32 -11 -18 -42 -6 -73 28 -37
40 -55 40 -56 -2 0 -19 -6 -30 -17 -32 -16 -3 -18 6 -18 82 l0 86 69 0 c47 0
72 -4 80 -14z m186 -10 c11 -17 15 -42 13 -83 -3 -50 -6 -58 -23 -58 -15 0
-21 8 -23 33 -3 31 -5 32 -40 29 -33 -4 -37 -7 -40 -36 -2 -23 -8 -31 -23 -31
-17 0 -19 7 -19 65 0 84 18 105 90 105 41 0 52 -4 65 -24z m195 9 c0 -10 -15
-15 -57 -17 l-58 -3 -3 -47 -3 -48 40 0 c30 0 41 4 41 15 0 9 -10 15 -26 15
-35 0 -29 34 6 37 52 4 61 -5 58 -55 l-3 -47 -63 -3 c-38 -2 -69 2 -78 9 -18
14 -19 130 -2 147 18 18 148 16 148 -3z m178 3 c7 -7 12 -39 12 -75 0 -73 -11
-83 -84 -83 -64 0 -84 22 -85 94 0 42 4 58 17 65 24 14 126 13 140 -1z m141
-25 l24 -37 32 37 c30 35 65 49 65 27 0 -5 -15 -27 -34 -48 -22 -24 -36 -50
-38 -72 -4 -48 -32 -48 -36 0 -2 20 -16 48 -33 67 -16 19 -29 40 -29 48 0 27
25 15 49 -22z m341 17 c0 -18 -7 -20 -60 -20 -77 0 -79 -18 -2 -22 43 -2 57
-7 57 -18 0 -11 -14 -16 -57 -18 l-58 -3 0 -34 c0 -28 -4 -35 -20 -35 -18 0
-20 7 -20 78 0 43 3 82 7 85 3 4 39 7 80 7 66 0 73 -2 73 -20z m60 -46 l0 -65
43 3 42 3 3 63 c3 54 6 62 22 62 18 0 20 -7 20 -69 0 -87 -12 -101 -82 -101
-74 0 -88 16 -88 102 0 61 2 68 20 68 18 0 20 -7 20 -66z m300 47 c0 -15 -6
-19 -27 -18 -27 2 -28 1 -31 -60 -3 -55 -6 -63 -22 -63 -18 0 -20 7 -20 60 l0
60 -30 0 c-23 0 -30 4 -30 20 0 18 7 20 80 20 72 0 80 -2 80 -19z m58 -49 l3
-63 42 3 42 3 3 63 c3 53 6 63 20 60 14 -3 17 -16 19 -63 2 -85 -13 -105 -78
-105 -81 0 -89 8 -89 96 0 66 2 75 18 72 14 -3 18 -16 20 -66z m303 44 c14
-30 4 -76 -16 -76 -23 0 -18 -18 10 -36 14 -9 22 -20 19 -25 -11 -19 -42 -8
-73 27 -37 40 -54 40 -61 -2 -3 -16 -11 -29 -18 -29 -6 0 -12 3 -12 8 0 4 0
41 0 82 l0 75 70 0 c65 0 71 -2 81 -24z m189 5 c18 -34 12 -109 -10 -131 -25
-25 -111 -28 -134 -4 -19 19 -22 124 -4 142 7 7 39 12 75 12 51 0 64 -3 73
-19z m70 -36 c0 -48 -2 -55 -20 -55 -18 0 -20 7 -20 55 0 48 2 55 20 55 18 0
20 -7 20 -55z m-5482 -2 c2 -8 -6 -13 -22 -13 -25 0 -33 10 -19 24 10 10 36 3
41 -11z m850 -35 c3 -15 -4 -18 -46 -18 -54 0 -63 5 -55 26 8 23 97 15 101 -8z
m-858 -53 c0 -42 -3 -55 -15 -55 -12 0 -15 13 -15 55 0 42 3 55 15 55 12 0 15
-13 15 -55z m2618 -17 c-2 -22 -9 -34 -21 -36 -15 -3 -17 1 -11 25 9 36 13 43
25 43 6 0 9 -15 7 -32z m2870 9 c2 -12 -3 -17 -17 -17 -15 0 -21 6 -21 21 0
25 33 22 38 -4z m6155 -16 c5 -5 7 -19 5 -32 -2 -20 -10 -25 -43 -29 -31 -4
-40 -9 -40 -24 0 -11 -6 -21 -12 -23 -10 -4 -13 13 -13 63 l0 67 47 -7 c26 -3
51 -10 56 -15z m2281 4 c-4 -10 0 -15 15 -15 20 0 22 -5 19 -47 l-3 -48 -45 0
-45 0 -3 39 c-3 29 2 44 19 62 25 27 52 32 43 9z m-2180 -11 c18 -7 22 -49 6
-59 -7 -4 -7 -13 0 -26 15 -26 -11 -26 -35 1 -10 11 -22 20 -27 20 -4 0 -8 -9
-8 -20 0 -11 -4 -20 -10 -20 -11 0 -14 93 -3 103 8 9 56 9 77 1z m122 -8 c8
-21 12 -70 7 -83 -6 -16 -75 -17 -91 -1 -17 17 -15 64 4 82 19 20 73 21 80 2z
m54 -8 l21 -23 19 25 c27 36 36 17 11 -23 -11 -19 -21 -42 -21 -51 0 -9 -4
-16 -10 -16 -5 0 -10 9 -10 21 0 11 -9 32 -20 46 -33 43 -25 59 10 21z m178 5
c2 -9 -8 -13 -32 -13 -20 0 -36 -4 -36 -10 0 -5 16 -10 35 -10 19 0 35 -4 35
-10 0 -5 -16 -10 -35 -10 -19 0 -35 -4 -35 -10 0 -5 16 -10 35 -10 19 0 35 -4
35 -10 0 -5 -22 -10 -50 -10 l-50 0 0 48 c0 27 3 52 7 56 12 11 86 2 91 -11z
m102 2 c0 -10 -11 -15 -35 -15 -32 0 -35 -2 -35 -30 0 -28 2 -30 40 -30 22 0
40 -5 40 -11 0 -6 -19 -9 -47 -7 l-48 3 -3 47 c-3 50 1 54 61 57 18 1 27 -4
27 -14z m110 0 c0 -8 -7 -15 -15 -15 -11 0 -15 -11 -15 -40 0 -29 -4 -40 -15
-40 -11 0 -15 11 -15 40 0 33 -3 40 -20 40 -20 0 -26 11 -13 23 3 4 26 7 50 7
32 0 43 -4 43 -15z m97 7 c10 -6 17 -52 14 -90 -1 -9 -15 -12 -48 -10 -48 3
-48 3 -51 41 -2 21 2 45 9 53 12 15 56 19 76 6z m123 -8 c0 -11 -8 -14 -27
-12 -40 4 -40 -16 -1 -22 66 -10 38 -76 -29 -68 -42 5 -41 28 1 28 45 0 48 18
4 22 -33 3 -46 23 -34 54 8 21 86 19 86 -2z m138 10 c34 -7 47 -36 36 -79 -6
-22 -11 -25 -55 -25 l-49 0 0 48 c0 65 5 69 68 56z m142 -9 c0 -11 -11 -15
-36 -15 -21 0 -33 -4 -29 -10 3 -5 19 -10 36 -10 16 0 29 -4 29 -10 0 -5 -16
-10 -35 -10 -19 0 -35 -4 -35 -10 0 -5 15 -10 34 -10 19 0 38 -4 41 -10 4 -6
-13 -10 -44 -10 l-51 0 0 48 c0 27 3 52 7 55 3 4 24 7 45 7 27 0 38 -4 38 -15z
m90 -40 c0 -42 -3 -55 -15 -55 -12 0 -15 13 -15 55 0 42 3 55 15 55 12 0 15
-13 15 -55z m157 13 l17 -42 18 42 c11 23 23 40 28 37 13 -8 -24 -99 -42 -103
-12 -2 -58 74 -58 98 0 25 22 6 37 -32z m173 27 c0 -10 -11 -15 -35 -15 -19 0
-35 -4 -35 -10 0 -5 16 -10 35 -10 19 0 35 -4 35 -10 0 -5 -16 -10 -35 -10
-47 0 -45 -18 3 -22 51 -4 112 2 112 12 0 5 -15 10 -32 12 -29 3 -33 6 -33 33
l0 30 115 0 115 0 3 -52 c3 -44 0 -53 -14 -53 -14 0 -16 7 -10 46 5 39 4 45
-10 40 -9 -3 -20 -6 -25 -6 -5 0 -9 -18 -9 -40 0 -29 -4 -40 -15 -40 -11 0
-15 11 -15 39 0 44 -11 50 -72 43 -47 -5 -50 -20 -6 -24 22 -2 34 -9 36 -21 7
-35 -16 -46 -92 -46 -103 0 -106 2 -106 58 0 26 3 51 7 54 3 4 24 7 45 7 27 0
38 -4 38 -15z m355 0 c0 -5 -17 -11 -37 -13 -35 -3 -38 -6 -38 -33 0 -24 4
-29 25 -29 14 0 25 5 25 10 0 6 -7 10 -15 10 -8 0 -15 5 -15 10 0 6 14 10 30
10 25 0 30 -4 30 -25 0 -33 -35 -50 -73 -36 -24 9 -27 16 -27 54 0 24 3 47 7
51 11 10 88 3 88 -9z m93 9 c19 -6 22 -13 22 -55 0 -27 -4 -49 -10 -49 -5 0
-10 7 -10 15 0 9 -9 15 -25 15 -16 0 -25 -6 -25 -15 0 -8 -7 -15 -15 -15 -11
0 -15 11 -15 38 0 41 7 56 30 65 21 8 22 8 48 1z m127 -9 c0 -5 -15 -11 -32
-13 -29 -3 -33 -7 -33 -33 0 -27 3 -29 35 -29 19 0 35 -4 35 -10 0 -17 -87
-12 -94 6 -11 28 -6 62 10 79 18 17 79 17 79 0z m45 -40 c0 -67 -16 -73 -22
-7 -5 50 -2 62 13 62 5 0 9 -25 9 -55z m-886 13 l26 -33 0 33 c0 17 5 32 10
32 6 0 10 -22 10 -50 0 -27 -3 -50 -7 -50 -4 0 -22 15 -41 33 l-34 32 7 -32
c5 -26 3 -33 -9 -33 -12 0 -16 11 -16 50 0 60 16 66 54 18z m1063 0 l33 -32 0
32 c0 18 5 32 10 32 6 0 10 -22 10 -50 0 -60 -16 -66 -54 -17 l-26 32 0 -32
c0 -18 -4 -33 -10 -33 -5 0 -10 23 -10 50 0 28 3 50 7 50 4 0 22 -14 40 -32z"/>
<path d="M13368 5163 c6 -2 18 -2 25 0 6 3 1 5 -13 5 -14 0 -19 -2 -12 -5z"/>
<path d="M12684 4879 c-1 -16 3 -29 7 -29 11 0 12 47 2 53 -5 3 -8 -8 -9 -24z"/>
<path d="M14868 4439 l-25 -41 -21 36 c-28 47 -62 50 -62 6 0 -16 5 -30 11
-30 5 0 7 5 4 10 -3 6 -3 15 1 22 4 7 16 -9 30 -40 13 -29 27 -52 31 -52 5 0
17 16 27 35 21 38 40 30 29 -12 -9 -39 25 -27 42 13 18 45 19 48 1 41 -10 -4
-18 4 -25 24 -5 16 -12 29 -14 29 -3 0 -16 -19 -29 -41z"/>
<path d="M14988 4462 c-9 -9 -18 -38 -21 -64 l-5 -48 41 0 c32 0 38 3 29 12
-7 7 -12 33 -12 59 0 54 -10 67 -32 41z"/>
<path d="M15280 4440 c0 -22 5 -40 11 -40 6 0 8 9 4 20 -9 29 1 25 59 -25 29
-25 56 -45 60 -45 3 0 6 22 6 48 0 26 5 53 12 60 9 9 7 12 -10 12 -20 0 -22
-3 -16 -42 l7 -42 -60 47 c-32 26 -62 47 -66 47 -4 0 -7 -18 -7 -40z"/>
<path d="M15926 4472 c-7 -11 -1 -60 7 -69 4 -3 7 3 7 15 0 12 3 22 6 22 3 0
29 -20 56 -45 28 -25 56 -44 62 -42 17 6 20 47 3 47 -7 0 -39 18 -70 40 -59
43 -63 44 -71 32z"/>
<path d="M16325 4468 c-3 -7 -4 -34 -2 -60 2 -40 5 -48 22 -48 19 0 20 5 15
57 -5 53 -24 81 -35 51z"/>
<path d="M14373 4456 c11 -9 17 -27 17 -54 0 -30 -4 -42 -17 -45 -10 -3 17 -5
60 -6 73 -1 77 0 77 21 0 20 -1 21 -13 4 -8 -12 -23 -17 -41 -14 -25 3 -28 7
-31 46 -2 23 1 42 6 42 5 0 9 5 9 10 0 6 -19 10 -42 10 -38 -1 -41 -2 -25 -14z"/>
<path d="M14542 4459 c13 -7 16 -17 11 -40 -9 -45 18 -69 78 -69 55 0 72 17
82 83 5 34 4 37 -19 37 -13 0 -24 -4 -24 -10 0 -5 5 -10 10 -10 15 0 12 -66
-4 -79 -8 -7 -30 -11 -48 -9 -32 3 -33 4 -36 56 -3 51 -3 52 -35 52 -26 -1
-29 -2 -15 -11z"/>
<path d="M15088 4458 c16 -16 16 -95 0 -101 -7 -3 22 -6 64 -6 71 -1 97 6 81
23 -3 3 -12 1 -19 -5 -19 -16 -68 -7 -72 14 -3 13 3 17 29 17 18 0 29 3 25 8
-4 4 -17 7 -29 7 -25 0 -36 33 -15 46 8 6 -3 9 -31 9 -35 0 -42 -3 -33 -12z"/>
<path d="M15210 4455 c7 -8 16 -12 21 -9 13 8 1 24 -18 24 -13 0 -13 -3 -3
-15z"/>
<path d="M15551 4444 c-26 -33 -26 -46 -3 -67 22 -20 63 -24 44 -5 -17 17 -15
64 4 82 14 15 14 16 -5 16 -11 0 -29 -12 -40 -26z"/>
<path d="M15754 4448 c15 -76 15 -87 -2 -91 -9 -3 18 -5 61 -6 66 -1 77 1 77
16 0 13 -3 14 -12 5 -7 -7 -27 -12 -45 -12 -27 0 -33 4 -33 21 0 18 4 20 25
15 19 -5 25 -2 25 9 0 11 -7 15 -22 13 -19 -2 -23 2 -23 25 1 23 -3 27 -27 27
-24 0 -28 -3 -24 -22z"/>
<path d="M15866 4455 c4 -8 10 -15 15 -15 5 0 9 7 9 15 0 8 -7 15 -15 15 -9 0
-12 -6 -9 -15z"/>
<path d="M16055 4460 c-3 -5 -3 -15 1 -21 6 -11 23 6 24 24 0 10 -18 9 -25 -3z"/>
<path d="M16110 4455 c-7 -8 -8 -15 -2 -15 5 0 15 7 22 15 7 8 8 15 2 15 -5 0
-15 -7 -22 -15z"/>
<path d="M16165 4450 c16 -51 15 -88 -2 -93 -10 -3 -2 -5 17 -6 l35 -1 0 60
c1 59 1 60 -28 60 -24 0 -27 -3 -22 -20z"/>
<path d="M16265 4461 c-3 -5 -1 -12 5 -16 5 -3 10 1 10 9 0 18 -6 21 -15 7z"/>
<path d="M16442 4461 c-11 -7 -11 -9 1 -14 9 -3 21 1 27 9 10 11 10 14 -1 14
-8 0 -20 -4 -27 -9z"/>
<path d="M16528 4444 c3 -17 7 -22 12 -13 6 8 15 -2 29 -29 12 -23 26 -42 31
-42 5 0 20 19 32 43 l23 42 3 -34 c2 -20 -2 -37 -9 -42 -22 -13 -6 -17 36 -9
22 4 32 8 23 9 -24 1 -25 66 -2 79 13 7 9 10 -17 16 -27 5 -37 3 -46 -11 -40
-60 -38 -59 -62 -19 -27 43 -61 50 -53 10z"/>
<path d="M15670 4390 c13 -9 12 -12 -4 -25 -20 -15 -20 -15 0 -15 10 0 24 11
31 25 10 23 9 25 -15 25 -22 0 -24 -2 -12 -10z"/>
<path d="M14757 4374 c-13 -13 -7 -24 14 -24 11 0 19 5 17 12 -5 14 -22 21
-31 12z"/>
<path d="M15922 4368 c3 -7 13 -15 22 -16 12 -3 17 1 14 10 -3 7 -13 15 -22
16 -12 3 -17 -1 -14 -10z"/>
<path d="M16517 4366 c-4 -10 0 -12 14 -9 10 3 16 9 13 14 -8 13 -21 11 -27
-5z"/>
<path d="M15265 4360 c-4 -6 7 -10 25 -10 18 0 29 4 25 10 -3 6 -15 10 -25 10
-10 0 -22 -4 -25 -10z"/>
<path d="M16388 4353 c6 -2 18 -2 25 0 6 3 1 5 -13 5 -14 0 -19 -2 -12 -5z"/>
<path d="M4189 4267 c-107 -30 -221 -132 -257 -230 -26 -70 -35 -160 -22 -226
15 -81 71 -188 134 -258 60 -65 95 -131 96 -175 0 -53 2 -53 128 -51 64 2 125
3 135 3 11 0 17 8 17 23 0 61 31 126 95 197 38 42 81 105 103 148 36 73 37 80
37 182 0 98 -2 110 -32 170 -64 130 -184 216 -314 225 -46 3 -92 0 -120 -8z
m56 -102 l25 -24 0 -280 0 -280 -26 -20 c-30 -23 -74 -27 -107 -9 -41 21 -103
77 -117 105 -8 15 -23 38 -34 51 -14 16 -20 35 -18 65 1 23 1 63 2 88 0 43 50
214 67 230 96 86 115 99 149 99 24 0 43 -8 59 -25z m233 -33 c58 -52 64 -62
78 -121 8 -36 19 -70 25 -77 6 -7 10 -28 10 -46 0 -18 0 -60 0 -93 0 -45 -5
-67 -19 -85 -11 -14 -22 -35 -26 -47 -10 -32 -110 -111 -150 -119 -38 -7 -90
15 -100 41 -3 9 -6 137 -6 284 0 256 1 269 21 295 16 21 29 26 62 26 37 0 49
-7 105 -58z"/>
<path d="M4142 4126 c-11 -15 -27 -26 -35 -26 -19 0 -47 -37 -47 -62 0 -10 9
-18 23 -20 14 -2 22 -10 22 -23 0 -11 -6 -19 -12 -17 -16 3 -17 -30 -1 -46 7
-7 24 -12 40 -12 34 0 52 -30 44 -75 -6 -28 -3 -35 14 -40 34 -11 40 3 40 101
l0 95 -35 -7 c-31 -5 -35 -4 -35 14 0 11 -7 27 -15 36 -8 8 -15 24 -15 36 0
34 44 23 48 -12 2 -20 9 -28 23 -28 18 0 20 6 17 53 -3 48 -5 52 -29 55 -19 2
-33 -4 -47 -22z"/>
<path d="M4037 3983 c-4 -3 -7 -14 -7 -23 0 -9 -7 -31 -16 -48 -19 -39 -9 -61
41 -91 38 -22 42 -32 22 -50 -11 -8 -20 -6 -37 9 -29 25 -30 25 -30 -4 0 -14
11 -38 25 -54 14 -17 25 -34 24 -39 -4 -15 13 -43 25 -43 7 0 25 -13 41 -30
30 -32 71 -40 93 -18 14 14 16 146 4 166 -5 7 -16 10 -25 7 -41 -16 -86 43
-61 82 19 30 18 33 -12 33 -15 0 -38 12 -55 29 -33 33 -36 46 -14 55 8 3 15
10 15 16 0 11 -23 14 -33 3z m101 -271 c3 -19 8 -23 27 -18 26 7 42 -16 22
-32 -28 -21 -37 -21 -66 4 -29 25 -39 52 -24 68 14 13 38 0 41 -22z"/>
<path d="M4340 4095 c0 -47 3 -55 19 -55 14 0 21 10 25 35 5 26 12 35 26 35
11 0 20 4 20 8 0 18 -26 32 -57 32 l-33 0 0 -55z"/>
<path d="M4443 4093 c-7 -2 -13 -13 -13 -23 0 -10 -5 -22 -11 -25 -5 -4 -14
-18 -19 -31 -8 -20 -13 -22 -35 -14 l-25 10 0 -100 c0 -100 0 -100 25 -100 20
0 25 5 25 24 0 35 16 41 35 12 23 -34 6 -62 -45 -76 l-40 -11 0 -84 c0 -82 1
-85 25 -91 17 -4 34 0 52 12 14 11 37 26 51 34 14 9 30 31 37 49 6 18 18 37
28 42 11 7 17 22 17 46 l0 35 -25 -16 c-14 -9 -30 -14 -35 -11 -20 12 -9 35
25 51 42 20 52 51 31 92 -9 17 -16 37 -16 45 0 8 -6 17 -14 20 -10 4 -14 -3
-13 -29 1 -43 -16 -60 -71 -68 -38 -6 -43 -4 -40 11 2 12 14 19 35 21 43 4 59
25 37 47 -22 22 -4 65 27 65 21 0 21 0 2 32 -19 33 -30 40 -50 31z m17 -367
c9 -12 7 -21 -11 -45 -29 -40 -69 -43 -69 -5 0 21 4 24 20 19 15 -5 20 -2 20
13 0 33 19 42 40 18z"/>
<path d="M7500 3955 l0 -105 95 0 96 0 -3 103 -3 102 -92 3 -93 3 0 -106z"/>
<path d="M8370 3955 l0 -105 94 0 c52 0 101 -3 110 -6 14 -5 16 8 16 105 l0
111 -110 0 -110 0 0 -105z"/>
<path d="M9770 4025 l0 -36 92 3 93 3 0 30 0 30 -92 3 -93 3 0 -36z"/>
<path d="M11315 3988 c-4 -40 -5 -86 -3 -103 l3 -30 98 -3 97 -3 0 106 0 105
-94 0 -94 0 -7 -72z"/>
<path d="M11412 2808 c-6 -6 -12 -20 -12 -30 0 -14 8 -18 41 -18 38 0 40 1 37
28 -2 20 -9 28 -28 30 -14 2 -31 -3 -38 -10z"/>
<path d="M11362 2648 l3 -73 78 -3 77 -3 0 76 0 75 -80 0 -81 0 3 -72z m98 26
c16 -19 2 -69 -19 -69 -21 0 -36 52 -21 70 16 19 24 19 40 -1z"/>
<path d="M11502 2261 c-8 -4 -12 -19 -10 -32 2 -18 9 -24 28 -24 19 0 26 6 28
24 3 20 -11 41 -28 41 -3 0 -11 -4 -18 -9z"/>
<path d="M11720 2015 l0 -215 175 0 175 0 0 215 0 215 -175 0 -175 0 0 -215z
m202 39 c-3 -69 -1 -83 13 -91 9 -6 15 -18 13 -29 -3 -16 -12 -19 -53 -19 -44
0 -50 3 -53 23 -2 15 2 22 12 22 13 0 16 13 16 65 0 37 -4 65 -10 65 -11 0
-14 33 -3 44 4 4 21 6 38 4 l30 -3 -3 -81z"/>
<path d="M12237 2213 c-14 -13 -7 -43 12 -53 15 -7 23 -6 35 6 19 19 20 26 4
42 -13 13 -41 16 -51 5z"/>
<path d="M11387 2034 c-9 -9 -9 -180 -1 -212 6 -22 8 -23 143 -20 l136 3 0
115 0 115 -136 3 c-74 1 -138 -1 -142 -4z m175 -41 c24 -22 23 -69 -2 -91
l-21 -17 23 -5 c13 -3 24 -14 26 -23 3 -15 -6 -17 -62 -17 -57 0 -66 2 -66 18
0 10 16 33 35 52 34 33 45 60 25 60 -6 0 -13 -7 -16 -15 -8 -21 -44 -19 -44 2
0 46 66 69 102 36z"/>
<path d="M12120 1895 l0 -96 138 3 137 3 3 50 c2 28 1 69 -3 93 l-6 42 -135 0
-134 0 0 -95z"/>
<path d="M7200 2383 l0 -83 80 0 80 0 0 83 0 82 -80 0 -80 0 0 -82z"/>
<path d="M9727 2464 c-4 -4 -7 -43 -7 -86 l0 -79 83 3 82 3 0 80 0 80 -75 3
c-42 1 -79 0 -83 -4z"/>
<path d="M7072 1928 l3 -83 75 0 75 0 3 83 3 82 -81 0 -81 0 3 -82z"/>
<path d="M8227 2004 c-10 -10 -9 -126 2 -142 5 -9 29 -12 81 -10 l74 3 1 75 0
75 -75 3 c-42 1 -79 0 -83 -4z"/>
<path d="M9690 1985 c0 -25 1 -25 80 -25 79 0 80 0 80 25 0 25 -1 25 -80 25
-79 0 -80 0 -80 -25z"/>
<path d="M12270 805 c0 -10 10 -15 30 -15 20 0 30 5 30 15 0 10 -10 15 -30 15
-20 0 -30 -5 -30 -15z"/>
<path d="M12390 770 c0 -25 4 -30 25 -30 21 0 25 5 25 30 0 25 -4 30 -25 30
-21 0 -25 -5 -25 -30z"/>
<path d="M13690 770 c0 -28 3 -31 28 -28 21 2 27 8 27 28 0 20 -6 26 -27 28
-25 3 -28 0 -28 -28z"/>
<path d="M13850 790 c0 -5 9 -10 20 -10 11 0 20 5 20 10 0 6 -9 10 -20 10 -11
0 -20 -4 -20 -10z"/>
<path d="M14405 579 c-9 -26 15 -52 38 -43 11 4 17 17 17 35 0 24 -4 29 -24
29 -16 0 -27 -7 -31 -21z"/>
<path d="M2770 515 l0 -45 45 0 45 0 0 45 0 45 -45 0 -45 0 0 -45z"/>
<path d="M1132 584 c4 -21 22 -23 26 -1 2 10 -3 17 -13 17 -10 0 -15 -6 -13
-16z"/>
<path d="M12750 590 c0 -5 11 -10 24 -10 14 0 28 5 31 10 4 6 -7 10 -24 10
-17 0 -31 -4 -31 -10z"/>
<path d="M12872 568 c3 -36 19 -45 41 -24 22 23 10 56 -20 56 -21 0 -24 -4
-21 -32z"/>
<path d="M13150 570 c0 -25 4 -30 25 -30 21 0 25 5 25 30 0 25 -4 30 -25 30
-21 0 -25 -5 -25 -30z"/>
<path d="M14150 590 c0 -5 12 -10 26 -10 14 0 23 4 19 10 -3 6 -15 10 -26 10
-10 0 -19 -4 -19 -10z"/>
<path d="M14690 571 c0 -17 6 -31 16 -35 23 -9 34 2 34 35 0 24 -4 29 -25 29
-21 0 -25 -5 -25 -29z"/>
<path d="M770 485 c0 -13 9 -16 43 -13 23 2 42 8 42 13 0 6 -19 11 -42 13 -34
3 -43 0 -43 -13z"/>
<path d="M950 540 c0 -11 4 -20 8 -20 5 0 17 9 27 20 18 20 17 20 -8 20 -20 0
-27 -5 -27 -20z"/>
<path d="M992 527 c-43 -44 -42 -59 6 -55 34 3 37 6 40 37 5 50 -10 55 -46 18z"/>
<path d="M1963 564 c-8 -3 -13 -24 -13 -50 l0 -44 45 0 45 0 0 45 c0 29 -4 45
-12 45 -7 0 -22 2 -33 5 -11 2 -26 2 -32 -1z"/>
<path d="M2340 545 c0 -11 11 -15 40 -15 29 0 40 4 40 15 0 11 -11 15 -40 15
-29 0 -40 -4 -40 -15z"/>
<path d="M3510 514 l0 -45 42 3 c46 3 55 17 44 64 -5 20 -12 24 -46 24 l-40 0
0 -46z"/>
<path d="M3875 551 c-3 -5 -1 -12 5 -16 13 -8 80 5 80 16 0 12 -77 12 -85 0z"/>
<path d="M4067 553 c-16 -15 -5 -23 33 -23 29 0 40 4 40 15 0 10 -10 15 -33
15 -19 0 -37 -3 -40 -7z"/>
<path d="M4441 560 c-7 -4 -11 -23 -9 -46 3 -38 4 -39 46 -42 l42 -3 0 49 0
50 -34 0 c-18 0 -39 -3 -45 -8z"/>
<path d="M5633 548 c2 -7 9 -13 15 -12 7 1 26 2 42 3 48 2 34 21 -16 21 -32 0
-44 -4 -41 -12z"/>
<path d="M5824 561 c-2 -2 -4 -24 -4 -48 l0 -44 43 3 c42 3 42 3 45 46 2 23 0
42 -5 43 -36 3 -75 3 -79 0z"/>
<path d="M12090 405 c0 -12 7 -15 25 -13 14 2 26 8 26 13 0 6 -12 11 -26 13
-18 2 -25 -1 -25 -13z"/>
<path d="M14404 385 c-10 -25 4 -47 28 -43 17 2 24 11 26 31 3 23 0 27 -23 27
-14 0 -28 -7 -31 -15z"/>
<path d="M12210 395 c0 -11 7 -15 23 -13 12 2 22 8 22 13 0 6 -10 11 -22 13
-16 2 -23 -2 -23 -13z"/>
<path d="M12327 404 c-4 -4 -7 -20 -7 -36 0 -23 4 -28 26 -28 23 0 25 3 22 32
-3 31 -25 48 -41 32z"/>
<path d="M12867 388 c-8 -26 5 -48 29 -48 20 0 24 5 24 30 0 25 -4 30 -24 30
-13 0 -26 -6 -29 -12z"/>
<path d="M13143 373 c3 -22 10 -29 30 -31 24 -3 27 0 27 27 0 28 -3 31 -30 31
-28 0 -30 -3 -27 -27z"/>
<path d="M14150 390 c0 -5 12 -10 26 -10 14 0 23 4 19 10 -3 6 -15 10 -26 10
-10 0 -19 -4 -19 -10z"/>
</g>
</svg>
