<?xml version="1.0" standalone="no"?>
<!DOCTYPE svg PUBLIC "-//W3C//DTD SVG 20010904//EN"
 "http://www.w3.org/TR/2001/REC-SVG-20010904/DTD/svg10.dtd">
<svg version="1.0" xmlns="http://www.w3.org/2000/svg"
 width="1472.000000pt" height="704.000000pt" viewBox="0 0 1472.000000 704.000000"
 preserveAspectRatio="xMidYMid meet">

<g transform="translate(0.000000,704.000000) scale(0.100000,-0.100000)"
fill="#000000" stroke="none">
<path d="M0 3520 l0 -3520 7360 0 7360 0 0 3520 0 3520 -7360 0 -7360 0 0
-3520z m4540 3419 c0 -5 -7 -9 -15 -9 -15 0 -20 12 -9 23 8 8 24 -1 24 -14z
m6316 -316 c-10 -10 -19 5 -10 18 6 11 8 11 12 0 2 -7 1 -15 -2 -18z m-9012
-734 c-3 -5 -10 -7 -15 -3 -5 3 -7 10 -3 15 3 5 10 7 15 3 5 -3 7 -10 3 -15z
m1296 -428 c0 -102 -4 -152 -11 -157 -21 -13 -199 -18 -199 -5 0 7 26 11 75
11 l75 0 0 150 0 150 30 0 30 0 0 -149z m900 -11 l0 -160 -115 0 -115 0 0
-109 c0 -61 -4 -113 -10 -116 -5 -3 -56 -2 -112 2 l-103 8 75 5 75 5 3 103 3
102 33 0 c18 0 36 3 40 7 3 4 39 7 79 7 l72 1 3 153 3 152 34 0 35 0 0 -160z
m608 -465 c1 -341 0 -635 -3 -652 l-6 -33 -104 0 c-63 0 -105 4 -105 10 0 6
32 10 75 10 l75 0 0 646 0 645 33 -3 32 -3 3 -620z m1151 589 c31 -6 31 -7 31
-70 l0 -64 -257 -2 -258 -3 -3 -52 -3 -53 156 0 c200 0 285 -17 333 -67 32
-34 32 -34 32 -141 0 -90 -3 -112 -20 -140 -36 -58 -59 -62 -352 -61 -145 1
-276 4 -293 8 -29 6 -30 8 -33 67 -2 50 0 63 14 68 9 4 126 5 260 4 l244 -3 0
57 0 57 -202 3 c-234 4 -256 10 -296 88 -21 40 -23 55 -19 130 3 52 11 98 21
118 30 59 43 61 342 62 149 0 286 -3 303 -6z m851 -3 c23 -6 25 -12 28 -69 l3
-62 -263 -2 -263 -3 0 -50 0 -50 95 -6 c52 -4 154 -7 225 -8 72 -1 147 -4 168
-7 l38 -7 -3 -61 -3 -61 -256 -3 -256 -2 -6 -48 c-3 -26 -3 -50 -1 -53 2 -4
107 -10 234 -14 127 -4 243 -10 258 -14 25 -7 27 -11 30 -69 l3 -62 -278 0
c-434 0 -433 0 -433 322 1 228 6 262 54 306 l36 32 282 -1 c156 -1 294 -4 308
-8z m793 -19 c66 -41 67 -48 67 -358 l0 -277 -81 6 c-52 3 -85 10 -91 19 -5 7
-8 117 -7 243 0 127 0 236 0 243 -1 7 -15 12 -36 12 l-35 0 -2 -172 c-2 -95
-2 -213 0 -262 l3 -89 -80 5 c-45 3 -87 10 -96 18 -14 11 -15 44 -13 254 l3
241 -37 3 -38 3 -2 -258 -3 -258 -45 -3 c-25 -2 -64 -1 -87 3 l-43 6 0 282 c0
262 2 284 19 311 37 55 44 56 316 54 243 -3 251 -4 288 -26z m834 2 c15 -11
38 -36 51 -54 21 -32 22 -39 22 -308 l0 -275 -79 6 c-44 3 -84 8 -90 12 -7 4
-11 52 -11 126 l0 119 -170 0 -170 0 0 -131 0 -132 -81 6 c-52 3 -85 10 -91
19 -4 7 -7 135 -6 283 4 379 -18 356 345 353 237 -3 253 -4 280 -24z m530
-165 c101 -99 187 -179 193 -179 6 0 10 69 10 186 l0 187 79 -6 c44 -3 84 -8
90 -12 7 -4 11 -105 11 -305 0 -295 0 -300 -22 -320 -24 -22 -26 -23 -83 -13
-35 6 -62 28 -227 191 l-188 185 0 -193 0 -193 -79 6 c-44 3 -84 8 -90 12 -15
9 -15 579 0 606 14 26 41 36 87 31 32 -4 60 -27 219 -183z m1160 155 c21 -17
44 -42 50 -55 9 -17 13 -100 13 -298 l0 -274 -79 6 c-44 3 -84 8 -90 12 -7 4
-11 52 -11 126 l0 119 -170 0 -170 0 0 -131 0 -132 -81 6 c-52 3 -85 10 -90
19 -5 7 -9 131 -9 276 0 291 3 305 63 343 30 19 47 20 284 17 l251 -3 39 -31z
m-6607 -357 l0 -104 -65 -9 c-36 -6 -85 -7 -108 -3 -52 8 -49 9 32 14 35 2 65
6 67 8 2 2 6 46 8 98 3 52 5 95 5 97 1 1 15 2 31 2 l30 0 0 -103z m4713 -121
c6 -15 -11 -36 -29 -36 -14 0 -23 20 -16 38 6 16 39 15 45 -2z m-4483 -105 l0
-99 -52 -13 c-29 -7 -80 -13 -113 -13 l-60 -1 -3 -113 -3 -113 -104 3 c-114 3
-140 20 -35 22 l65 1 2 60 c2 33 5 79 9 103 5 38 7 42 29 36 12 -3 26 -1 29 5
4 6 40 11 87 11 l79 0 0 105 0 105 35 0 35 0 0 -99z m218 -221 l3 -96 -46 -12
c-56 -15 -179 -16 -170 -2 3 6 37 10 76 10 l69 0 0 101 0 100 33 -3 32 -3 3
-95z m2300 12 c78 -42 82 -55 82 -312 0 -337 16 -323 -379 -321 -152 1 -285 3
-296 5 -19 3 -20 12 -23 330 l-2 327 287 -3 c278 -3 290 -4 331 -26z m892 19
c22 -6 25 -13 28 -64 2 -40 -1 -59 -10 -62 -7 -2 -123 -6 -258 -7 l-245 -3 -3
-57 -3 -58 228 -1 c125 -1 242 -4 258 -8 29 -6 30 -8 33 -69 l3 -62 -48 -2
c-26 -1 -142 -2 -258 -2 l-210 -1 -3 -57 -3 -58 228 -1 c125 -1 242 -4 258 -8
29 -6 30 -8 33 -69 l3 -62 -293 0 c-327 1 -341 4 -385 69 -22 33 -23 41 -23
255 0 248 5 271 69 313 33 23 39 23 305 22 149 -1 282 -4 296 -8z m785 -1 c3
-5 15 -10 26 -10 18 0 19 -9 19 -250 l0 -250 228 -1 c125 -1 241 -4 257 -8 29
-6 30 -8 33 -69 l3 -62 -279 0 c-291 0 -326 4 -371 44 -47 42 -51 67 -51 344
0 142 3 262 7 265 10 11 121 8 128 -3z m1247 -1 c71 -14 112 -36 134 -73 17
-28 19 -55 19 -301 l0 -270 -82 -3 c-98 -3 -92 -12 -96 148 l-2 105 -165 0
-165 0 -3 -127 -3 -128 -83 0 c-67 0 -85 3 -90 16 -3 9 -6 132 -6 275 0 274 2
291 48 332 11 10 33 22 48 27 42 12 384 12 446 -1z m-5892 -314 l0 -155 -106
0 c-71 0 -103 3 -99 11 4 5 19 9 33 8 15 -1 44 -1 65 -1 l37 2 0 68 c0 38 3
103 6 145 7 76 7 77 35 77 l29 0 0 -155z m893 143 c2 -7 4 -76 3 -153 l-1
-140 -108 -3 c-73 -2 -107 1 -102 8 3 5 37 10 76 10 l69 0 0 145 0 145 29 0
c16 0 31 -6 34 -12z m6710 -474 c16 -6 11 -15 -39 -65 l-58 -59 -108 0 c-61 0
-109 4 -113 10 -3 6 22 37 57 70 l63 61 90 -5 c50 -2 98 -8 108 -12z m-6635
-160 l42 -5 0 -58 c0 -57 -1 -59 -31 -65 -17 -3 -76 -6 -130 -6 l-99 0 0 -185
0 -185 90 -1 c50 -1 95 -3 100 -4 6 -1 24 -3 40 -4 l30 -1 0 -65 0 -65 -342 2
-343 3 -3 68 -3 67 126 0 125 0 0 185 0 185 -97 1 c-145 1 -147 3 -151 73 -2
33 1 62 7 65 11 7 578 3 639 -5z m2560 -2 c1 -1 2 -31 2 -67 l0 -65 -260 0
-260 0 0 -54 0 -54 223 -7 c122 -4 239 -7 259 -8 l36 -1 4 -55 c2 -31 1 -60
-4 -65 -4 -6 -115 -10 -250 -11 -134 -1 -249 -3 -255 -3 -9 -1 -13 -20 -13
-57 l0 -54 238 -5 c130 -2 247 -6 260 -8 20 -3 22 -8 22 -65 l0 -63 -295 0
-295 0 -40 25 c-67 42 -70 56 -70 298 0 127 4 227 11 245 13 38 65 79 105 84
27 3 576 -7 582 -10z m4910 2 c24 -4 57 -18 73 -32 57 -48 59 -57 59 -347 l0
-265 -84 0 c-47 0 -87 4 -90 9 -4 5 -6 59 -7 120 0 73 -4 113 -12 118 -15 10
-251 16 -294 8 l-33 -6 0 -125 0 -125 -87 3 -88 3 -3 273 c-2 229 0 277 13
302 25 48 60 64 149 70 108 7 350 3 404 -6z m-6963 -185 c99 -98 184 -179 188
-179 4 0 7 83 7 185 l0 185 53 0 c28 0 69 -3 90 -6 l37 -7 0 -298 c0 -286 -1
-300 -20 -319 -14 -14 -33 -20 -65 -20 -44 0 -48 3 -173 121 -70 67 -156 151
-192 187 l-65 66 -3 -188 -2 -187 -88 3 -87 3 -3 298 -2 298 25 25 c22 22 31
24 73 19 45 -7 55 -15 227 -186z m1178 185 l37 -7 0 -63 0 -64 -260 0 -260 0
0 -185 0 -185 170 0 170 0 0 55 0 55 -94 0 c-61 0 -106 5 -130 15 l-37 16 3
57 3 57 135 3 c74 2 172 -2 218 -9 l83 -11 -3 -155 -3 -155 -37 -34 -38 -34
-252 0 c-243 0 -254 1 -292 23 -73 41 -77 61 -74 320 l3 228 42 40 42 39 268
0 c147 0 285 -3 306 -6z m1345 -185 c101 -99 187 -179 190 -179 4 0 7 82 7
182 l0 183 75 0 c119 -1 108 30 107 -308 -2 -275 -3 -296 -21 -316 -14 -15
-31 -21 -63 -21 -41 0 -49 5 -151 99 -59 55 -145 138 -191 185 -47 47 -88 83
-93 80 -4 -3 -8 -86 -8 -185 l0 -179 -84 0 -83 0 -7 31 c-8 39 -8 546 0 575 8
31 42 44 94 37 42 -6 56 -17 228 -184z m1210 174 c4 -6 5 -36 4 -67 l-4 -56
-129 0 -129 0 0 -185 0 -185 88 -1 c48 0 105 -3 127 -7 l40 -7 3 -63 3 -62
-346 0 -345 0 0 70 0 70 125 0 125 0 0 185 0 185 -87 0 c-49 0 -105 3 -125 6
l-38 7 0 64 0 64 340 -3 c243 -2 343 -6 348 -15z m812 8 c23 -6 25 -12 28 -69
l3 -62 -258 -2 -258 -3 -3 -52 c-2 -29 1 -53 5 -54 4 0 120 -2 257 -5 137 -2
251 -6 255 -8 3 -2 5 -31 3 -64 l-4 -60 -86 -7 c-48 -4 -154 -6 -237 -5 -215
4 -195 10 -195 -55 l0 -55 198 -1 c108 -1 224 -4 257 -8 l60 -6 3 -62 3 -63
-291 0 c-273 0 -293 1 -331 20 -75 39 -79 55 -79 308 0 247 4 266 63 302 30
19 51 20 307 19 151 -1 286 -4 300 -8z m792 -15 c62 -30 78 -67 78 -181 0 -80
-4 -103 -20 -130 -29 -47 -74 -65 -161 -65 l-73 0 59 -60 59 -59 65 -3 66 -3
3 -62 3 -63 -117 0 -116 0 -133 131 c-115 113 -135 128 -142 112 -5 -10 -9
-69 -8 -130 l0 -113 -86 0 c-70 0 -88 3 -93 16 -3 9 -6 155 -6 325 l0 310 293
-3 c260 -3 296 -5 329 -22z m881 18 l37 -7 0 -63 0 -64 -130 0 -130 0 0 -184
0 -183 108 -6 c155 -9 152 -8 152 -78 l0 -59 -342 2 -343 3 -3 68 -3 67 126 0
125 0 0 185 0 185 -94 0 c-51 0 -107 3 -124 6 -29 6 -30 9 -34 63 -2 31 -3 59
-1 64 5 8 602 9 656 1z m-8118 -164 c3 -5 -1 -10 -10 -10 -9 0 -13 5 -10 10 3
6 8 10 10 10 2 0 7 -4 10 -10z m7855 -879 c0 -3 -17 -22 -37 -43 -35 -36 -40
-38 -102 -38 l-65 0 38 39 c28 29 49 41 75 43 56 6 91 5 91 -1z m-7329 -82
c55 -28 69 -65 69 -182 0 -80 -3 -96 -19 -112 -20 -17 -20 -17 1 -45 18 -25
20 -39 16 -127 -4 -106 -14 -130 -65 -164 -26 -17 -53 -19 -316 -19 l-288 0 3
63 3 62 268 3 267 2 0 64 c0 49 -4 65 -16 70 -9 3 -130 6 -270 6 l-255 0 3 63
3 62 265 5 265 5 0 65 0 65 -265 5 -265 5 1 23 c0 12 1 40 2 62 l2 40 275 0
c259 0 278 -1 316 -21z m758 15 l61 -7 0 -58 0 -59 -270 0 -270 0 0 -70 0 -70
218 0 c197 0 220 -2 249 -20 55 -33 62 -54 64 -181 1 -96 -1 -120 -16 -143
-35 -53 -53 -56 -315 -56 -262 0 -279 3 -316 57 -17 26 -19 49 -19 268 0 230
1 241 22 276 20 32 43 49 83 62 22 8 438 8 509 1z m727 -13 c74 -34 74 -34 74
-319 l0 -254 -39 -39 -39 -39 -153 -2 c-312 -3 -350 -1 -378 19 -56 42 -61 67
-61 319 0 224 1 232 23 265 42 64 65 69 312 69 193 0 225 -3 261 -19z m384
-69 c39 -29 62 -80 57 -131 -13 -125 -158 -172 -249 -81 -33 33 -38 44 -38 84
0 101 68 162 165 150 22 -2 51 -13 65 -22z m1140 -12 l0 -40 -87 0 c-49 0 -94
-4 -101 -8 -9 -7 -12 -45 -10 -158 l3 -149 98 -3 97 -3 0 -38 0 -38 -92 -8
c-50 -4 -158 -4 -240 0 l-148 8 0 38 0 39 94 0 93 0 7 46 c8 60 8 192 0 233
l-6 31 -78 0 c-103 0 -110 3 -110 51 l0 39 240 0 240 0 0 -40z m550 -195 l0
-235 -27 -11 c-25 -9 -34 -2 -190 153 -90 90 -168 165 -173 166 -6 2 -10 -57
-10 -157 l0 -161 -39 0 c-25 0 -41 5 -45 15 -7 20 -6 325 3 395 6 52 8 55 35
58 26 3 47 -14 193 -160 l163 -163 0 168 0 167 45 0 45 0 0 -235z m218 142
c51 -51 90 -96 87 -100 -3 -4 -2 -5 1 -2 4 2 41 -28 83 -67 l76 -71 3 167 2
166 45 0 45 0 -2 -231 c-4 -318 0 -316 -240 -76 -82 81 -153 147 -158 147 -6
0 -10 -63 -10 -165 0 -164 0 -165 -22 -165 -66 1 -63 -11 -65 233 -1 190 1
225 14 240 9 9 23 17 32 17 9 0 58 -42 109 -93z m835 82 c53 -27 57 -41 57
-227 0 -187 -7 -218 -53 -239 -14 -7 -93 -12 -195 -12 l-172 -1 -32 29 -33 29
0 185 c0 181 1 186 24 211 29 31 30 31 224 34 102 1 166 -2 180 -9z m207 -119
l0 -131 47 -45 c26 -25 61 -57 80 -71 l32 -25 25 20 c14 10 50 42 81 70 l55
51 0 130 0 131 45 0 45 0 -1 -107 c0 -143 -10 -198 -40 -226 -13 -12 -58 -52
-101 -88 -68 -58 -82 -65 -110 -61 -18 3 -37 10 -44 16 -6 6 -52 45 -103 86
l-91 74 0 153 0 153 40 0 40 0 0 -130z m918 110 c20 -12 32 -28 33 -42 5 -84
5 -150 1 -276 l-5 -142 -36 3 -36 2 -3 93 -3 92 -154 0 c-141 0 -155 -2 -156
-17 -2 -29 -7 -126 -8 -155 -1 -26 -4 -28 -41 -28 l-40 0 0 213 c1 286 -8 276
245 277 152 0 173 -2 203 -20z m592 -25 l0 -46 -197 3 -198 3 -3 -87 c-2 -69
-6 -86 -17 -82 -10 4 -12 0 -8 -15 3 -11 9 -18 14 -15 5 3 9 -22 9 -55 l0 -61
200 0 200 0 0 -44 0 -45 -209 -1 -210 -1 -33 29 c-31 29 -32 31 -33 118 -1 49
0 135 3 192 5 92 8 105 30 127 l25 25 213 0 214 0 0 -45z m550 0 l0 -44 -97 2
-98 1 -3 -157 -3 -157 101 0 100 0 0 -46 0 -47 -236 6 c-129 3 -238 8 -241 11
-3 3 -7 22 -8 41 l-3 35 99 0 99 0 0 160 0 160 -94 0 c-52 0 -97 4 -100 9 -3
5 -3 23 0 40 l7 31 238 0 239 0 0 -45z m517 21 l28 -24 0 -191 0 -191 -27 -27
-28 -27 -189 -1 c-252 0 -235 -16 -237 223 -1 97 2 188 7 202 20 53 48 59 241
60 173 0 178 -1 205 -24z m320 -143 c129 -130 167 -163 174 -152 5 8 9 66 8
129 -3 201 -5 190 41 190 l40 0 0 -229 c0 -191 -2 -231 -15 -241 -12 -10 -15
-10 -15 2 0 10 -8 13 -28 10 -25 -3 -45 13 -177 147 -81 82 -152 148 -157 145
-4 -3 -8 -77 -8 -165 l0 -159 -39 0 -38 0 -7 108 c-3 59 -4 165 -1 237 6 128
10 144 43 145 8 0 88 -75 179 -167z m-10107 -253 c0 -5 -4 -10 -9 -10 -6 0
-13 5 -16 10 -3 6 1 10 9 10 9 0 16 -4 16 -10z m10550 -46 c0 -50 -3 -59 -34
-90 -26 -26 -42 -34 -70 -34 l-36 0 0 45 c0 41 2 45 25 45 23 0 25 4 25 45 l0
45 45 0 45 0 0 -56z m-5610 -439 l5 -200 198 -3 197 -2 0 -43 0 -43 -209 -3
-209 -3 -33 30 -34 30 -3 215 -3 216 28 3 c62 8 58 20 63 -197z m3133 164 l27
-29 0 -209 c0 -226 1 -221 -56 -221 -24 0 -24 1 -24 100 0 73 -3 100 -12 100
-7 0 -78 1 -158 3 l-145 2 -3 -102 -3 -103 -44 0 -45 0 0 205 c0 286 -2 283
205 288 197 4 225 0 258 -34z m-2175 -11 l3 -38 -106 0 -106 0 3 -157 3 -158
98 -3 97 -3 0 -45 0 -46 -245 4 -245 3 0 43 0 42 100 0 c55 0 100 3 100 8 0 4
1 75 3 157 l2 150 -95 3 c-101 3 -110 7 -110 55 l0 27 248 -2 247 -3 3 -37z
m513 13 l29 -29 0 -184 c0 -178 -1 -184 -24 -213 l-24 -30 -219 -3 -219 -3 -1
228 c-1 125 0 236 3 246 5 15 24 17 215 17 l211 0 29 -29z m589 -15 l0 -44
-187 -1 c-104 0 -194 0 -200 0 -9 -1 -13 -19 -13 -56 l0 -55 200 0 200 0 0
-42 0 -43 -195 0 c-139 0 -198 -3 -203 -12 -4 -6 -6 -32 -4 -57 l4 -46 199 0
199 0 0 -45 0 -45 -205 0 c-297 0 -288 -8 -283 254 l3 178 33 29 32 29 210 0
210 0 0 -44z m521 15 c27 -28 29 -34 29 -111 0 -80 -1 -83 -35 -117 -35 -35
-36 -35 -100 -29 -36 3 -65 3 -65 -2 0 -4 23 -31 50 -59 45 -46 56 -52 98 -55
l47 -3 3 -42 3 -43 -62 0 -62 0 -102 100 c-91 90 -105 100 -138 100 l-37 0 0
-100 0 -100 -45 0 -45 0 0 245 0 245 216 0 216 0 29 -29z m1117 17 c7 -7 12
-20 12 -29 0 -10 -72 -91 -160 -181 -88 -89 -160 -166 -160 -170 0 -5 72 -8
161 -8 l160 0 -3 -42 -3 -43 -224 -3 c-156 -2 -228 1 -237 9 -31 26 -13 54
144 211 86 87 159 163 160 168 4 10 -56 15 -143 11 -27 -2 -78 0 -112 4 l-63
7 0 39 0 39 228 0 c164 0 231 -3 240 -12z m562 -30 l0 -43 -180 3 c-115 2
-187 -1 -200 -8 -17 -9 -20 -21 -20 -76 0 -39 -4 -63 -9 -59 -6 3 -15 -4 -21
-16 -10 -17 -9 -20 1 -14 9 6 11 3 6 -9 -4 -10 -1 -19 8 -22 11 -5 15 -22 15
-60 l0 -54 155 0 155 0 0 55 0 55 -100 0 -100 0 0 45 0 45 98 -5 c53 -2 118
-5 145 -5 l47 0 0 -111 c0 -109 0 -111 -29 -140 l-29 -29 -180 0 c-177 0 -181
0 -210 25 l-29 24 -6 176 c-6 184 -3 210 34 244 22 20 33 21 236 21 l213 0 0
-42z m524 15 c14 -14 29 -36 32 -48 3 -12 4 -97 2 -188 l-3 -166 -29 -30 -30
-31 -184 0 -184 0 -29 29 -29 29 0 190 0 190 31 26 c30 26 31 26 213 26 l183
0 27 -27z m458 -70 l3 -98 158 -3 157 -3 0 101 0 100 39 0 c26 0 41 -5 45 -16
3 -9 6 -96 6 -195 0 -283 5 -279 -300 -279 l-200 0 0 46 0 45 188 -1 c103 -1
195 -1 205 -1 14 1 17 10 17 55 l0 53 -92 6 c-51 4 -127 4 -169 1 -73 -5 -76
-5 -107 24 l-32 30 0 116 0 116 40 0 39 0 3 -97z m-8637 -123 l18 -20 14 20
c18 25 48 26 66 0 13 -19 13 -19 30 0 25 29 71 26 96 -6 37 -46 25 -90 -50
-189 -37 -49 -38 -54 -41 -140 -3 -82 -5 -90 -23 -90 -18 0 -20 6 -18 80 2
101 6 113 44 161 52 66 73 113 60 140 -15 33 -34 30 -48 -6 -8 -21 -18 -30
-33 -30 -15 0 -25 9 -33 30 -6 17 -14 30 -17 30 -3 0 -11 -13 -17 -30 -8 -20
-18 -30 -33 -30 -14 0 -24 9 -31 30 -13 35 -34 39 -49 10 -14 -27 -5 -54 35
-111 59 -82 65 -102 65 -194 0 -77 -2 -86 -17 -83 -15 3 -19 18 -23 93 -5 86
-7 92 -47 149 -55 76 -69 118 -53 157 21 51 72 65 105 29z m5035 -536 l0 -45
-189 2 c-104 1 -194 -2 -200 -5 -13 -8 -14 -75 -2 -94 6 -11 51 -14 200 -15
l191 -1 0 -43 0 -43 -200 0 -200 0 0 -100 0 -100 -40 0 -40 0 0 213 c1 290
-12 277 277 277 l203 0 0 -46z m152 -151 l3 -198 151 -3 152 -3 7 57 c4 32 6
100 5 153 -1 53 -2 117 -1 144 1 46 1 47 34 47 18 0 38 -5 44 -11 8 -8 10 -72
6 -218 -5 -204 -5 -206 -31 -234 l-26 -27 -175 0 c-253 0 -262 8 -255 225 1
61 3 145 3 188 l1 77 40 0 40 0 2 -197z m948 152 l0 -44 -97 -3 -97 -3 -1
-197 0 -198 -42 0 -43 0 -2 168 c-1 92 -2 174 -4 182 -1 8 -2 23 -3 33 -1 15
-13 17 -96 17 l-95 0 0 45 0 45 240 0 240 0 0 -45z m144 26 c3 -9 6 -90 7
-181 2 -91 5 -173 7 -183 4 -16 18 -17 156 -15 l151 3 3 198 2 197 47 0 46 0
-5 -215 -5 -216 -28 -29 -29 -30 -182 0 c-182 0 -183 0 -213 26 l-31 26 0 217
0 217 35 1 c24 0 36 -4 39 -16z m942 -14 c21 -25 24 -38 24 -113 0 -81 -1 -87
-29 -115 -27 -27 -35 -29 -103 -29 l-73 0 62 -60 c54 -54 65 -60 102 -60 l41
0 0 -40 0 -40 -64 0 -64 0 -101 100 c-89 89 -104 100 -136 100 l-35 0 0 -100
0 -100 -45 0 -45 0 0 246 0 245 221 -3 221 -3 24 -28z m541 0 c27 -27 28 -31
31 -155 5 -181 -4 -249 -35 -278 -25 -23 -30 -24 -210 -24 -254 0 -241 -18
-234 300 5 193 1 190 248 187 l173 -2 27 -28z m4018 -576 c16 -74 120 -178
198 -197 35 -8 35 -21 -2 -29 -74 -16 -178 -120 -197 -197 -8 -36 -21 -36 -29
1 -16 74 -120 178 -197 197 -36 8 -36 21 1 29 74 16 178 120 197 198 8 35 21
35 29 -2z"/>
<path d="M7840 5438 c-1 -2 -3 -26 -5 -55 -4 -43 -2 -52 12 -57 10 -2 87 -5
171 -5 l152 -1 0 60 0 60 -165 0 c-91 0 -165 -1 -165 -2z"/>
<path d="M9512 5383 l3 -58 168 -3 167 -2 0 60 0 60 -170 0 -171 0 3 -57z"/>
<path d="M5732 4633 l-62 -4 2 -182 3 -182 168 -3 167 -2 0 184 c0 182 0 184
-22 190 -23 6 -138 5 -256 -1z"/>
<path d="M8670 4576 l0 -53 147 -5 c200 -6 193 -8 193 58 l0 54 -170 0 -170 0
0 -54z"/>
<path d="M11190 3777 l0 -54 161 -7 c88 -3 165 -4 170 0 5 3 9 30 9 60 l0 54
-170 0 -170 0 0 -53z"/>
<path d="M9520 3770 l0 -60 165 0 165 0 0 60 0 60 -165 0 -165 0 0 -60z"/>
<path d="M3516 2444 c-3 -9 -6 -33 -6 -54 0 -73 -10 -70 210 -70 164 0 199 2
203 15 9 21 -4 109 -17 117 -6 4 -95 8 -197 8 -161 0 -188 -2 -193 -16z"/>
<path d="M4267 2723 c-4 -3 -7 -96 -7 -205 l0 -198 205 0 205 0 0 205 0 205
-198 0 c-109 0 -202 -3 -205 -7z m268 -162 c3 -16 3 -46 -1 -66 l-6 -36 -62 3
-61 3 -3 49 c-5 72 -1 76 67 76 58 0 60 -1 66 -29z"/>
<path d="M4982 2704 c-28 -19 -30 -74 -4 -97 63 -57 149 29 92 91 -24 26 -57
28 -88 6z"/>
<path d="M7518 2714 c-5 -4 -8 -76 -8 -161 l0 -153 155 0 155 0 0 155 0 155
-82 0 c-46 0 -112 3 -148 6 -36 3 -68 3 -72 -2z"/>
<path d="M8035 2700 c-3 -5 -1 -10 4 -10 6 0 11 5 11 10 0 6 -2 10 -4 10 -3 0
-8 -4 -11 -10z"/>
<path d="M8035 2670 c3 -5 8 -10 11 -10 2 0 4 5 4 10 0 6 -5 10 -11 10 -5 0
-7 -4 -4 -10z"/>
<path d="M8619 2696 c-7 -14 -9 -40 -5 -60 l7 -36 154 0 155 0 0 54 0 53 -46
7 c-26 3 -94 6 -151 6 -100 0 -104 -1 -114 -24z"/>
<path d="M10281 2706 c-8 -9 -11 -60 -9 -157 l3 -144 153 -3 152 -3 0 155 c0
131 -2 155 -16 160 -9 3 -73 6 -144 6 -96 0 -130 -3 -139 -14z"/>
<path d="M8578 2003 c-27 -4 -28 -7 -28 -59 l0 -54 160 0 161 0 -3 58 -3 57
-130 1 c-71 1 -142 -1 -157 -3z"/>
<path d="M7005 2001 l-110 -6 0 -150 0 -150 152 -3 152 -3 6 33 c4 18 3 89 -2
158 l-8 125 -40 1 c-22 0 -89 -2 -150 -5z"/>
<path d="M7998 1998 c-3 -7 -3 -34 0 -60 l4 -48 153 0 153 0 4 43 c9 76 7 77
-161 77 -110 0 -150 -3 -153 -12z"/>
<path d="M9580 1860 c0 -5 5 -10 11 -10 5 0 7 5 4 10 -3 6 -8 10 -11 10 -2 0
-4 -4 -4 -10z"/>
<path d="M9581 1824 c0 -11 3 -14 6 -6 3 7 2 16 -1 19 -3 4 -6 -2 -5 -13z"/>
<path d="M10208 1920 c-2 -44 -2 -114 0 -155 l4 -75 154 0 154 0 0 155 0 155
-154 0 -154 0 -4 -80z"/>
<path d="M9267 1292 c-27 -3 -28 -5 -25 -55 l3 -52 45 -7 c25 -3 91 -7 147 -7
117 -1 126 5 116 77 l-6 42 -86 2 c-149 3 -165 3 -194 0z"/>
<path d="M9790 1148 c0 -79 4 -148 8 -155 6 -9 217 -20 290 -14 10 1 12 35 10
154 l-3 152 -152 3 -153 3 0 -143z"/>
</g>
</svg>
